<?xml version="1.0" encoding="utf-8"?>
<!-- Generator: Adobe Illustrator 15.1.0, SVG Export Plug-In . SVG Version: 6.00 Build 0)  -->
<!DOCTYPE svg PUBLIC "-//W3C//DTD SVG 1.1//EN" "http://www.w3.org/Graphics/SVG/1.1/DTD/svg11.dtd">
<svg version="1.1" id="Ebene_1" xmlns="http://www.w3.org/2000/svg" xmlns:xlink="http://www.w3.org/1999/xlink" x="0px" y="0px"
	 width="102.811px" height="102.811px" viewBox="0 0 102.811 102.811" style="enable-background:new 0 0 102.811 102.811;"
	 xml:space="preserve">
<style type="text/css">
<![CDATA[
	.st0{fill:#FFFFFF;}
	.st1{fill:#363636;}
	.st2{fill:#D4D4D4;}
]]>
</style>
<g id="icon_4_">
	<circle id="circle_9_" class="st0" cx="51.405" cy="51.573" r="51.405"/>
	<path id="schatten_5_" class="st2" d="M44.95,102.56c2.115,0.266,4.268,0.418,6.455,0.418c27.722,0,50.306-21.945,51.355-49.41
		L57.052,24.646l16.854,16.426v23.375l-1,13.25L48.03,77.822l-18.319,1.06L44.95,102.56z"/>
	<g id="paper">
		<g>
			<g>
				<g>
					<path class="st1" d="M67.165,60.008c0,0.484-0.396,0.882-0.882,0.882H36.527c-0.484,0-0.882-0.397-0.882-0.882V59.42
						c0-0.484,0.397-0.882,0.882-0.882h29.756c0.484,0,0.882,0.397,0.882,0.882V60.008L67.165,60.008z"/>
				</g>
				<g>
					<path class="st1" d="M48.972,35.583c0,0.485-0.396,0.882-0.882,0.882H36.527c-0.484,0-0.882-0.396-0.882-0.882v-0.588
						c0-0.484,0.397-0.882,0.882-0.882H48.09c0.485,0,0.882,0.396,0.882,0.882V35.583L48.972,35.583z"/>
				</g>
				<g>
					<path class="st1" d="M66.719,68.149c0,0.484-0.397,0.881-0.883,0.881H54.274c-0.485,0-0.882-0.396-0.882-0.881v-0.588
						c0-0.485,0.396-0.882,0.882-0.882h11.562c0.485,0,0.883,0.396,0.883,0.882V68.149z"/>
				</g>
				<g>
					<path class="st1" d="M55.101,43.725c0,0.484-0.396,0.882-0.882,0.882H36.527c-0.484,0-0.882-0.397-0.882-0.882v-0.588
						c0-0.484,0.396-0.882,0.882-0.882h17.691c0.485,0,0.882,0.397,0.882,0.882V43.725z"/>
				</g>
				<g>
					<path class="st1" d="M67.165,51.866c0,0.484-0.396,0.882-0.882,0.882H36.527c-0.484,0-0.882-0.397-0.882-0.882v-0.588
						c0-0.485,0.397-0.882,0.882-0.882h29.756c0.484,0,0.882,0.396,0.882,0.882V51.866L67.165,51.866z"/>
				</g>
			</g>
			<path class="st1" d="M72.788,37.301L58.532,25.576c-1.181-0.972-3.224-1.703-4.752-1.703H31.354
				c-1.938,0-3.517,1.577-3.517,3.517c0,0,0,37.843,0,48.261c0,3.621,3.425,3.621,3.507,3.621c8.711,0,40.113,0,40.113,0
				c1.939,0,3.517-1.577,3.517-3.517V41.927C74.974,40.314,74.034,38.325,72.788,37.301z M57.557,29.184
				c0-0.861,0.714-0.2,0.714-0.2l11.301,9.655c0,0,0.723,0.712-0.517,0.712c-2.646,0-10.585,0-10.585,0
				c-0.504,0-0.913-0.409-0.913-0.913C57.557,38.438,57.557,31.497,57.557,29.184z M71.457,76.667c0,0-32.263,0-40.36,0
				c-0.144,0-0.655-0.041-0.655-0.753c0-9.804,0-48.525,0-48.525c0-0.494,0.418-0.912,0.912-0.912H53.78
				c0.38,0,1.172,0.201,1.172,1.286v10.675c0,1.939,1.578,3.517,3.518,3.517h13.247c0.242,0,0.651,0.166,0.651,0.751
				c0,0.01,0.001,33.05,0.001,33.05C72.369,76.258,71.961,76.667,71.457,76.667z"/>
		</g>
	</g>
</g>
</svg>
