<?xml version="1.0" encoding="utf-8"?>
<!-- Generator: Adobe Illustrator 15.1.0, SVG Export Plug-In . SVG Version: 6.00 Build 0)  -->
<!DOCTYPE svg PUBLIC "-//W3C//DTD SVG 1.1//EN" "http://www.w3.org/Graphics/SVG/1.1/DTD/svg11.dtd">
<svg version="1.1" id="Ebene_1" xmlns="http://www.w3.org/2000/svg" xmlns:xlink="http://www.w3.org/1999/xlink" x="0px" y="0px"
	 width="102.811px" height="102.811px" viewBox="0 0 102.811 102.811" style="enable-background:new 0 0 102.811 102.811;"
	 xml:space="preserve">
<style type="text/css">
<![CDATA[
	.st0{fill:#FFFFFF;}
	.st1{fill:#363636;}
	.st2{fill:#D4D4D4;}
]]>
</style>
<g id="icon">
	<circle id="circle_5_" class="st0" cx="51.405" cy="51.406" r="51.405"/>
	<path id="schatten_1_" class="st2" d="M44.95,102.393c2.115,0.266,4.268,0.418,6.455,0.418c27.722,0,50.306-21.945,51.355-49.41
		L59.023,27.156l-0.868,3.416l1,8.625l-5.078,5.198l-13.422,2.052L23.739,75.072L44.95,102.393z"/>
	<path id="pfeil" class="st1" d="M78.391,46.377L59.682,27.666c-0.984-0.984-2.466-1.279-3.751-0.747
		c-1.285,0.534-2.125,1.788-2.125,3.181v9.137c-16.961,1.083-30.397,15.147-30.395,32.382c0,0.922,0.039,1.832,0.116,2.731
		c0.073,0.87,0.713,1.588,1.567,1.763c0.855,0.175,1.724-0.231,2.136-1.002c5.154-9.663,15.046-16.409,26.575-17.143v9.551
		c0,1.392,0.84,2.646,2.125,3.18c0.426,0.177,0.872,0.262,1.317,0.262c0.896,0,1.776-0.35,2.434-1.007l18.709-18.711
		C79.736,49.899,79.736,47.719,78.391,46.377z"/>
</g>
</svg>
