<?xml version="1.0" encoding="utf-8"?>
<!-- Generator: Adobe Illustrator 15.1.0, SVG Export Plug-In . SVG Version: 6.00 Build 0)  -->
<!DOCTYPE svg PUBLIC "-//W3C//DTD SVG 1.1//EN" "http://www.w3.org/Graphics/SVG/1.1/DTD/svg11.dtd">
<svg version="1.1" id="Ebene_1" xmlns="http://www.w3.org/2000/svg" xmlns:xlink="http://www.w3.org/1999/xlink" x="0px" y="0px"
	 width="121.578px" height="121.833px" viewBox="-9.408 -9.427 121.578 121.833"
	 style="enable-background:new -9.408 -9.427 121.578 121.833;" xml:space="preserve">
<style type="text/css">
<![CDATA[
	.st0{fill:#BCBCBC;}
	.st1{fill:#FFFFFF;}
	.st2{fill:#363636;}
	.st3{fill:#D4D4D4;}
]]>
</style>
<rect x="-8.908" y="-8.927" class="st0" width="120.578" height="120.833"/>
<g id="icon_3_">
	<circle id="circle_8_" class="st1" cx="51.405" cy="51.573" r="51.405"/>
	<path id="schatten_4_" class="st3" d="M44.95,102.56c2.114,0.267,4.268,0.418,6.454,0.418c27.723,0,50.307-21.944,51.355-49.41
		L54.553,21.503L43.155,33.823l3.75,23.25v7.75l-1,8.75l-23.523,7.315L44.95,102.56z"/>
	<g id="avatar">
		<path class="st2" d="M79.796,74.24l-15.111-7.99l-0.698-2.183c-0.209-0.729-0.539-1.46-1.22-1.651
			c-0.216-0.063-0.489-0.456-0.523-0.731l-0.403-4.24c-0.022-0.361,0.123-0.688,0.314-0.917c1.157-1.388,1.788-2.994,2.057-4.83
			c0.134-0.925,0.615-1.775,0.86-2.687l0.97-5.069c0.102-0.667,0.081-1.18-0.662-1.438c-0.205-0.071-0.384-0.412-0.384-0.922
			l0.01-9.566c-0.158-2.314-1.385-4.105-3.123-5.353c-3.321-2.381-9.271-1.276-7.328-5.16c0.115-0.229,0.077-0.626-0.72-0.332
			c-2.979,1.095-10.91,3.991-12.902,5.492c-1.784,1.345-2.965,3.037-3.124,5.353l0.01,9.566c0,0.421-0.178,0.851-0.384,0.922
			c-0.744,0.258-0.764,0.771-0.663,1.438l0.969,5.069c0.247,0.91,0.728,1.763,0.862,2.687c0.267,1.836,0.897,3.442,2.055,4.83
			c0.191,0.229,0.338,0.556,0.315,0.917l-0.403,4.24c-0.035,0.275-0.31,0.67-0.524,0.731c-0.681,0.191-1.011,0.922-1.22,1.651
			l-0.698,2.183l-15.112,7.99c-0.39,0.205-0.634,0.611-0.634,1.053v5.596c0,0.658,0.533,1.19,1.189,1.19h55.668
			c0.657,0,1.19-0.532,1.19-1.19v-5.596C80.429,74.853,80.186,74.446,79.796,74.24z"/>
	</g>
</g>
</svg>
