<?xml version="1.0" encoding="utf-8"?>
<!-- Generator: Adobe Illustrator 15.1.0, SVG Export Plug-In . SVG Version: 6.00 Build 0)  -->
<!DOCTYPE svg PUBLIC "-//W3C//DTD SVG 1.1//EN" "http://www.w3.org/Graphics/SVG/1.1/DTD/svg11.dtd">
<svg version="1.1" id="Ebene_1" xmlns="http://www.w3.org/2000/svg" xmlns:xlink="http://www.w3.org/1999/xlink" x="0px" y="0px"
	 width="102.811px" height="102.811px" viewBox="0 0 102.811 102.811" style="enable-background:new 0 0 102.811 102.811;"
	 xml:space="preserve">
<style type="text/css">
<![CDATA[
	.st0{fill:#FFFFFF;}
	.st1{fill:#363636;}
	.st2{fill:#D4D4D4;}
]]>
</style>
<g id="icon_2_">
	<circle id="circle_7_" class="st0" cx="51.405" cy="51.573" r="51.405"/>
	<path id="schatten_3_" class="st2" d="M44.95,102.56c2.115,0.266,4.268,0.418,6.455,0.418c27.722,0,50.306-21.945,51.355-49.41
		L80.813,26.384l-0.074,20.855l0.332,19.333l-12,1.333l-17.666-1l-29.788,1.298L44.95,102.56z"/>
	<g id="pc">
		<path class="st1" d="M79.065,25.764v-0.091h-0.304H24.019h-0.304v0.091c-1.792,0.123-3.127,1.548-3.34,3.277v0.304v36.073
			c0,0.699,0.182,1.289,0.486,1.819c0.699,1.231,1.731,1.854,3.158,1.854h19.978v5.039h-3.795c-0.941,0-1.669,0.731-1.669,1.671
			s0.729,1.671,1.669,1.671h22.378c0.94,0,1.699-0.731,1.699-1.671s-0.759-1.671-1.699-1.671h-3.796v-5.039h19.979
			c1.428,0,2.469-0.622,3.157-1.854c0.313-0.557,0.517-1.152,0.517-1.819V29.345v-0.304C82.224,27.312,80.796,25.887,79.065,25.764z
			 M79.065,29.345v36.073c0,0.214-0.091,0.304-0.304,0.304H24.019c-0.212,0-0.304-0.09-0.304-0.304V29.345v-0.304h55.351V29.345
			L79.065,29.345z"/>
	</g>
</g>
</svg>
