<?xml version="1.0" encoding="utf-8"?>
<!-- Generator: Adobe Illustrator 15.1.0, SVG Export Plug-In . SVG Version: 6.00 Build 0)  -->
<!DOCTYPE svg PUBLIC "-//W3C//DTD SVG 1.1//EN" "http://www.w3.org/Graphics/SVG/1.1/DTD/svg11.dtd">
<svg version="1.1" id="Capa_1" xmlns="http://www.w3.org/2000/svg" xmlns:xlink="http://www.w3.org/1999/xlink" x="0px" y="0px"
	 width="32px" height="32px" viewBox="0 0 32 32" style="enable-background:new 0 0 32 32;" xml:space="preserve">
<style type="text/css">
<![CDATA[
	.st0{fill:#525252;}
	.st1{fill:#3F3F3F;}
]]>
</style>
<g>
	<g>
		<path class="st1" d="M15.61,18.367h-0.779c-0.403,0-0.731-0.326-0.731-0.73c0-0.149,0.06-0.293,0.167-0.398
			c0.453-0.439,0.833-1.031,1.109-1.669c0.056,0.041,0.116,0.071,0.184,0.071c0.437,0,0.952-0.966,0.952-1.624
			s-0.062-1.192-0.499-1.192c-0.052,0-0.106,0.009-0.163,0.023c-0.031-1.786-0.482-4.013-3.208-4.013
			c-2.844,0-3.176,2.223-3.208,4.006c-0.04-0.008-0.08-0.017-0.117-0.017c-0.438,0-0.498,0.534-0.498,1.192s0.513,1.624,0.951,1.624
			c0.054,0,0.104-0.015,0.151-0.042c0.274,0.628,0.65,1.209,1.096,1.645c0.107,0.104,0.167,0.246,0.167,0.396
			c0,0.404-0.328,0.731-0.731,0.731h-0.78c-1.665,0-3.015,1.35-3.015,3.015v0.836c0,0.524,0.426,0.951,0.952,0.951h10.062
			c0.524,0,0.95-0.427,0.95-0.951v-0.836C18.625,19.718,17.275,18.367,15.61,18.367z"/>
		<path class="st1" d="M24.636,10.096h-8.437c0.244,0.539,0.418,1.202,0.491,2.023c0.18,0.111,0.314,0.291,0.426,0.507h7.521
			c0.392,0,0.706-0.315,0.706-0.705v-1.119C25.342,10.413,25.027,10.096,24.636,10.096z"/>
		<path class="st1" d="M24.636,14.706h-7.349c-0.199,0.753-0.69,1.542-1.371,1.752c-0.02,0.037-0.043,0.069-0.064,0.106v0.672h8.783
			c0.391,0,0.705-0.316,0.705-0.707v-1.118C25.342,15.021,25.027,14.706,24.636,14.706z"/>
		<path class="st1" d="M24.636,19.316h-5.737c0.379,0.599,0.602,1.305,0.602,2.065v0.464h5.136c0.392,0,0.706-0.315,0.706-0.705
			v-1.119C25.342,19.631,25.027,19.316,24.636,19.316z"/>
		<path class="st0" d="M27.668,3.063H4.333C1.939,3.063,0,5.002,0,7.396v17.209C0,27,1.939,28.938,4.333,28.938h23.335
			c2.394,0,4.332-1.939,4.332-4.332V7.396C32,5.002,30.062,3.063,27.668,3.063z M29.955,24.605c0,1.261-1.025,2.287-2.287,2.287
			H4.333c-1.261,0-2.287-1.026-2.287-2.287V7.396c0-1.261,1.026-2.287,2.287-2.287h23.335c1.262,0,2.287,1.026,2.287,2.287V24.605z"
			/>
	</g>
</g>
</svg>
