<?xml version="1.0" encoding="utf-8"?>
<!-- Generator: Adobe Illustrator 15.1.0, SVG Export Plug-In . SVG Version: 6.00 Build 0)  -->
<!DOCTYPE svg PUBLIC "-//W3C//DTD SVG 1.1//EN" "http://www.w3.org/Graphics/SVG/1.1/DTD/svg11.dtd">
<svg version="1.1" id="Ebene_1" xmlns="http://www.w3.org/2000/svg" xmlns:xlink="http://www.w3.org/1999/xlink" x="0px" y="0px"
	 width="26.072px" height="25.361px" viewBox="0 0 26.072 25.361" style="enable-background:new 0 0 26.072 25.361;"
	 xml:space="preserve">
<style type="text/css">
<![CDATA[
	.st0{fill:#303030;}
]]>
</style>
<g id="house_x5F_icon">
	<path class="st0" d="M12.981,0C12.368,0,1.594,11.118,0.423,12.188c-1.171,1.07,0.313,3.07,1.751,1.562
		c1.44-1.508,10.966-10.833,10.966-10.833s10.009,9.914,10.886,10.713c1.246,1.136,2.804-0.398,1.633-1.47
		c-1.172-1.071-6.465-6.407-6.465-6.407V1.361h-2v2.278C17.193,3.639,13.595,0,12.981,0z"/>
	<path class="st0" d="M13.331,5.441l-9.138,8.544c0,0,0,8.383,0,9.713s2.544,1.662,2.544,1.662s1.456,0,2.456,0v-7.31
		c0-0.442,1.116-0.69,1.56-0.69h4.818c0.443,0,0.622,0.248,0.622,0.69v7.31c1,0,2.422,0,3.018,0c2.484,0,2.982-1.688,2.982-1.688
		v-9.711L13.331,5.441z"/>
</g>
</svg>
