<?xml version="1.0" encoding="utf-8"?>
<!-- Generator: Adobe Illustrator 15.1.0, SVG Export Plug-In . SVG Version: 6.00 Build 0)  -->
<!DOCTYPE svg PUBLIC "-//W3C//DTD SVG 1.1//EN" "http://www.w3.org/Graphics/SVG/1.1/DTD/svg11.dtd">
<svg version="1.1" id="Ebene_1" xmlns="http://www.w3.org/2000/svg" xmlns:xlink="http://www.w3.org/1999/xlink" x="0px" y="0px"
	 width="97.947px" height="97.947px" viewBox="0 0 97.947 97.947" style="enable-background:new 0 0 97.947 97.947;"
	 xml:space="preserve">
<style type="text/css">
<![CDATA[
	.st0{enable-background:new    ;}
	.st1{fill:#F3F8FF;}
	.st2{fill:#0080C3;}
]]>
</style>
<circle id="circle_3_" class="st1" cx="48.974" cy="48.975" r="48.974"/>
<g class="st0">
	<path class="st2" d="M36.227,25.355c0,2.52-1.86,4.56-4.92,4.56c-2.88,0-4.74-2.04-4.74-4.56c0-2.58,1.92-4.561,4.86-4.561
		S36.167,22.775,36.227,25.355z M26.807,62.854V33.515h9.12v29.339H26.807z"/>
	<path class="st2" d="M43.247,42.874c0-3.659-0.12-6.72-0.24-9.359h7.919l0.42,4.08h0.18c1.201-1.92,4.141-4.74,9.061-4.74
		c6,0,10.499,4.021,10.499,12.66v17.339h-9.12v-16.26c0-3.779-1.319-6.359-4.619-6.359c-2.52,0-4.02,1.74-4.68,3.42
		c-0.24,0.6-0.301,1.439-0.301,2.28v16.919h-9.119V42.874z"/>
</g>
</svg>
