<?xml version="1.0" encoding="utf-8"?>
<!-- Generator: Adobe Illustrator 15.1.0, SVG Export Plug-In . SVG Version: 6.00 Build 0)  -->
<!DOCTYPE svg PUBLIC "-//W3C//DTD SVG 1.1//EN" "http://www.w3.org/Graphics/SVG/1.1/DTD/svg11.dtd">
<svg version="1.1" id="Ebene_1" xmlns="http://www.w3.org/2000/svg" xmlns:xlink="http://www.w3.org/1999/xlink" x="0px" y="0px"
	 width="912px" height="856px" viewBox="0 0 912 856" style="enable-background:new 0 0 912 856;" xml:space="preserve">
<style type="text/css">
<![CDATA[
	.st0{display:none;fill:#FFFFFF;}
	.st1{display:none;fill:#BFBFBF;}
	.st2{fill:#404040;}
]]>
</style>
<path class="st0" d="M912,821.084C912,840.468,894.849,856,874.225,856H37.775C17.152,856,0,840.468,0,821.084V34.916
	C0,15.533,17.152,0,37.775,0h836.45C894.849,0,912,15.533,912,34.916V821.084z"/>
<g id="Ebene_2">
	<ellipse class="st1" cx="455.764" cy="820.987" rx="273.455" ry="24.82"/>
	<g>
		<path class="st2" d="M731.862,626.634c2.774,4.563,4.548,9.348,5.287,14.357c1.025,6.94,0.139,13.662-2.665,20.229
			c-2.791,6.545-7.286,11.905-13.451,16.058l-29.023,19.201c-11.349,7.331-22.939,13.148-34.771,17.456
			c-11.833,4.307-23.976,7.388-36.446,9.229c-20.06,2.962-40.36,2.553-60.918-1.225c-20.559-3.778-40.695-10.567-60.409-20.347
			c-19.713-9.776-38.712-22.331-56.975-37.628c-18.265-15.314-35.206-32.886-50.791-52.74
			c-9.668-10.855-19.985-23.347-30.966-37.473c-9.309-12.033-20.047-26.507-32.233-43.437
			c-12.185-16.912-24.741-35.849-37.699-56.754c-13.177-20.892-23.899-39.253-32.148-55.088
			c-8.253-15.854-14.79-29.069-19.576-39.652c-5.6-12.359-9.775-23.05-12.523-32.056c-7.609-16.354-13.869-32.814-18.766-49.384
			c-4.896-16.571-8.561-33.157-11.008-49.738c-3.202-21.683-4.1-42.858-2.719-63.56c1.382-20.702,5.314-40.343,11.762-58.919
			c6.446-18.577,15.577-35.689,27.392-51.339c11.815-15.649,26.528-29.129,44.135-40.477l28.659-18.688
			c4.543-2.789,9.257-4.534,14.123-5.253c6.849-1.011,13.508-0.061,19.982,2.87c6.456,2.932,11.664,7.523,15.591,13.793
			l79.011,125.628c2.791,4.561,4.537,9.275,5.256,14.142c1.057,7.155,0.195,14.042-2.604,20.66
			c-2.796,6.62-7.315,11.946-13.572,15.964l-56.699,36.954c-7.494,4.882-12.842,11.197-16.075,18.985
			c-3.215,7.786-4.223,15.799-3.004,24.054c0.926,6.271,2.967,11.992,6.146,17.177l133.542,213.306
			c5.207,8.199,11.549,13.856,19.062,16.965c7.493,3.111,15.316,4.073,23.427,2.876c5.531-0.816,10.988-2.912,16.368-6.266
			l56.697-36.954c4.491-2.764,9.168-4.522,14.035-5.24c6.704-0.99,13.328-0.034,19.855,2.888c6.526,2.922,11.802,7.466,15.81,13.652
			L731.862,626.634z"/>
	</g>
</g>
</svg>
