<?xml version="1.0" encoding="utf-8"?>
<!-- Generator: Adobe Illustrator 15.1.0, SVG Export Plug-In . SVG Version: 6.00 Build 0)  -->
<!DOCTYPE svg PUBLIC "-//W3C//DTD SVG 1.1//EN" "http://www.w3.org/Graphics/SVG/1.1/DTD/svg11.dtd">
<svg version="1.1" id="Ebene_1" xmlns="http://www.w3.org/2000/svg" xmlns:xlink="http://www.w3.org/1999/xlink" x="0px" y="0px"
	 width="302.921px" height="278.194px" viewBox="0 0 302.921 278.194" style="enable-background:new 0 0 302.921 278.194;"
	 xml:space="preserve">
<style type="text/css">
<![CDATA[
	.st0{fill:#42955B;}
]]>
</style>
<polygon class="st0" points="28.514,258.093 70.188,258.093 50.444,278.194 0,278.194 0,0.728 48.982,0.728 69.09,20.467 
	28.514,20.467 28.514,258.093 "/>
<path class="st0" d="M65.633,244.463l-6.55-17.632c2.564,0.979,5.127,1.691,7.75,2.18c2.62,0.495,5.236,0.715,7.914,0.715
	c14.515,0,25.273-4.699,32.313-14.088c7.041-9.387,10.533-23.747,10.533-43.169c0-7.973-0.107-17.143-0.323-27.517
	c-0.222-10.31-0.333-16.644-0.333-18.987c0-32.752,6.935-57.969,20.797-75.647c13.863-17.688,33.569-26.532,59.163-26.532
	c7.154,0,14.037,0.816,20.639,2.4c6.604,1.584,13.264,4.037,19.977,7.367l6.551,16.432c-3.438-0.655-6.713-1.143-9.82-1.526
	c-3.168-0.382-6.115-0.547-8.9-0.547c-14.463,0-24.891,5.347-31.168,15.991c-6.275,10.642-9.439,28.492-9.439,53.602
	c0,1.146,0.055,5.128,0.164,11.95c0.109,6.825,0.162,13.104,0.162,18.724c0,18.56-1.254,33.135-3.715,43.715
	c-2.395,10.647-6.438,19.658-11.949,27.129c-8.023,10.537-17.632,18.511-28.874,23.91c-11.246,5.4-24.016,8.083-38.266,8.083
	c-7.369,0-14.025-0.553-19.975-1.592C76.278,248.331,70.762,246.694,65.633,244.463L65.633,244.463z"/>
<polygon class="st0" points="233.102,258.093 274.771,258.093 274.771,19.739 234.929,19.739 254.299,0 302.921,0 302.921,277.834 
	252.11,277.834 233.102,258.093 "/>
</svg>
