<?xml version="1.0" encoding="utf-8"?>
<!-- Generator: Adobe Illustrator 15.1.0, SVG Export Plug-In . SVG Version: 6.00 Build 0)  -->
<!DOCTYPE svg PUBLIC "-//W3C//DTD SVG 1.1//EN" "http://www.w3.org/Graphics/SVG/1.1/DTD/svg11.dtd">
<svg version="1.1" id="Ebene_1" xmlns="http://www.w3.org/2000/svg" xmlns:xlink="http://www.w3.org/1999/xlink" x="0px" y="0px"
	 width="1580.855px" height="530px" viewBox="0 0 1580.855 530" enable-background="new 0 0 1580.855 530" xml:space="preserve">
<g>
	<rect x="378" y="0" fill="#FFFFFF" width="619" height="530"/>
</g>
<g>
	<rect x="378" y="0" fill="#FFFFFF" width="619" height="530"/>
</g>
<g>
	<rect x="378" y="0" fill="#FFFFFF" width="619" height="530"/>
</g>
<g>
	<rect x="380" y="0" fill="#FFFFFF" width="619" height="530"/>
</g>
<g id="Content">
	<g id="arrow_x5F_group" display="none">
		<polygon display="inline" fill="#404040" points="1248.807,284 1226.402,322.806 1203.997,284 		"/>
		<path display="inline" fill="#404040" d="M1220.402,291L1220.402,291c0,0-6.402-92-131.976-92C1056,199,439,199,439,199l0,0v-12
			l0,0c0,0,613.855,0,649.428,0c137.976,0,143.976,104,143.976,104l0,0H1220.402z"/>
	</g>
	<polygon id="arrow_x5F_right_x5F_top" fill="#B3B3B3" points="973.806,103 935,80.595 935,97 437,97 437,109 935,109 935,125.405 	
		"/>
	<polygon id="arrow_x5F_left_x5F_top" fill="#B3B3B3" points="401.194,103 440,80.595 440,97 938,97 938,109 440,109 440,125.405 	
		"/>
	<polygon id="arrow_x5F_right_x5F_bottom" fill="#B3B3B3" points="973.806,430 935,407.596 935,424 437,424 437,436 935,436 
		935,452.405 	"/>
	<polygon id="arrow_x5F_left_x5F_bottom" fill="#B3B3B3" points="401.194,430 440,407.596 440,424 938,424 938,436 440,436 
		440,452.405 	"/>
	<g id="card_x5F_1">
		<path id="box1" fill="#42955B" d="M386,176.161C386,194.85,371.03,210,351.972,210H34.508C15.449,210,0,194.85,0,176.161V33.839
			C0,15.15,15.449,0,34.508,0h317.464C371.03,0,386,15.15,386,33.839V176.161z"/>
		<g id="text_x5F_Kunde">
			<path fill="#FFFFFF" d="M127.998,129.655h-11.633l-12.657-20.355l-4.329,3.105v17.25H89.135V81.341h10.244v22.107l4.032-5.684
				l13.086-16.424h11.368l-16.854,21.381L127.998,129.655z"/>
			<path fill="#FFFFFF" d="M159.458,129.655l-1.354-4.726h-0.529c-1.079,1.718-2.61,3.046-4.594,3.982
				c-1.982,0.936-4.241,1.404-6.774,1.404c-4.34,0-7.611-1.162-9.814-3.486c-2.203-2.324-3.305-5.667-3.305-10.029V92.709h10.079
				v21.579c0,2.666,0.474,4.666,1.421,5.998c0.947,1.333,2.456,2,4.527,2c2.82,0,4.858-0.942,6.114-2.826
				c1.255-1.884,1.883-5.006,1.883-9.369V92.709h10.079v36.945H159.458z"/>
			<path fill="#FFFFFF" d="M211.87,129.655h-10.08v-21.578c0-2.666-0.474-4.665-1.421-5.998c-0.947-1.333-2.456-2-4.527-2
				c-2.82,0-4.857,0.941-6.113,2.825s-1.884,5.007-1.884,9.369v17.382h-10.079V92.709h7.7l1.354,4.726h0.562
				c1.124-1.785,2.672-3.134,4.644-4.048s4.213-1.372,6.725-1.372c4.296,0,7.557,1.163,9.782,3.487
				c2.225,2.324,3.338,5.679,3.338,10.063L211.87,129.655L211.87,129.655z"/>
			<path fill="#FFFFFF" d="M233.944,130.316c-4.34,0-7.749-1.686-10.228-5.056c-2.479-3.371-3.718-8.042-3.718-14.012
				c0-6.06,1.261-10.778,3.784-14.161c2.522-3.381,5.998-5.073,10.426-5.073c4.648,0,8.195,1.807,10.641,5.42h0.331
				c-0.507-2.754-0.761-5.21-0.761-7.37v-11.83h10.112v51.42H246.8l-1.95-4.792h-0.43
				C242.129,128.498,238.638,130.316,233.944,130.316z M237.48,122.286c2.578,0,4.467-0.749,5.668-2.248
				c1.2-1.498,1.855-4.042,1.966-7.635v-1.09c0-3.965-0.611-6.808-1.834-8.525c-1.223-1.719-3.211-2.578-5.965-2.578
				c-2.247,0-3.993,0.953-5.238,2.857c-1.244,1.906-1.867,4.677-1.867,8.312s0.628,6.361,1.884,8.179
				C233.35,121.375,235.146,122.286,237.48,122.286z"/>
			<path fill="#FFFFFF" d="M281.796,130.316c-5.948,0-10.597-1.641-13.945-4.924c-3.35-3.282-5.023-7.931-5.023-13.945
				c0-6.189,1.548-10.977,4.643-14.358c3.096-3.381,7.375-5.073,12.839-5.073c5.222,0,9.286,1.487,12.194,4.461
				c2.908,2.975,4.362,7.083,4.362,12.326v4.891h-23.827c0.11,2.864,0.959,5.102,2.545,6.708c1.586,1.608,3.812,2.412,6.676,2.412
				c2.225,0,4.329-0.23,6.313-0.693c1.981-0.463,4.054-1.2,6.213-2.215v7.8c-1.763,0.881-3.646,1.537-5.651,1.966
				C287.129,130.099,284.682,130.316,281.796,130.316z M280.375,99.186c-2.138,0-3.812,0.677-5.023,2.032
				c-1.211,1.354-1.905,3.277-2.082,5.767h14.145c-0.045-2.488-0.694-4.412-1.95-5.767
				C284.209,99.863,282.512,99.186,280.375,99.186z"/>
		</g>
	</g>
	<g id="card_x5F_2">
		<path id="box2" fill="#42955B" d="M386,496.181C386,514.858,371.059,530,352.012,530H34.507C15.46,530,0,514.858,0,496.181
			V354.819C0,336.142,15.46,321,34.507,321h317.505C371.059,321,386,336.142,386,354.819V496.181z"/>
		<g id="text_x5F_IT-Spezialist">
			<path fill="#FFFFFF" d="M35.461,444.971v-38.629h8.19v38.629H35.461z"/>
			<path fill="#FFFFFF" d="M68.276,444.971h-8.19v-31.813H49.597v-6.816h29.17v6.816h-10.49L68.276,444.971L68.276,444.971z"/>
			<path fill="#FFFFFF" d="M81.461,433.768v-6.605h14.188v6.605H81.461z"/>
			<path fill="#FFFFFF" d="M124.925,434.242c0,3.488-1.256,6.236-3.766,8.244c-2.51,2.008-6.002,3.012-10.476,3.012
				c-4.122,0-7.769-0.773-10.939-2.324v-7.609c2.607,1.163,4.813,1.981,6.619,2.457c1.806,0.476,3.457,0.714,4.954,0.714
				c1.797,0,3.175-0.344,4.135-1.03c0.96-0.688,1.44-1.709,1.44-3.064c0-0.757-0.212-1.432-0.635-2.021
				c-0.423-0.59-1.043-1.156-1.862-1.704c-0.819-0.546-2.488-1.417-5.007-2.614c-2.36-1.11-4.131-2.177-5.311-3.197
				c-1.181-1.021-2.123-2.21-2.827-3.566c-0.705-1.355-1.058-2.941-1.058-4.756c0-3.418,1.158-6.104,3.475-8.059
				c2.316-1.956,5.518-2.935,9.604-2.935c2.008,0,3.924,0.238,5.747,0.715c1.823,0.476,3.729,1.146,5.72,2.008l-2.642,6.368
				c-2.062-0.847-3.766-1.437-5.113-1.771c-1.347-0.335-2.673-0.502-3.977-0.502c-1.55,0-2.738,0.361-3.566,1.083
				c-0.828,0.723-1.242,1.665-1.242,2.827c0,0.723,0.168,1.352,0.502,1.889c0.335,0.538,0.868,1.059,1.599,1.561
				c0.731,0.502,2.462,1.403,5.192,2.708c3.61,1.727,6.085,3.457,7.424,5.19C124.255,429.598,124.925,431.725,124.925,434.242z"/>
			<path fill="#FFFFFF" d="M147.515,445.498c-3.47,0-6.191-1.259-8.164-3.777h-0.423c0.282,2.467,0.423,3.893,0.423,4.279v11.97
				h-8.059v-42.538h6.553l1.136,3.831h0.37c1.885-2.924,4.677-4.386,8.376-4.386c3.487,0,6.218,1.347,8.19,4.042
				c1.972,2.694,2.959,6.438,2.959,11.229c0,3.153-0.462,5.892-1.387,8.217c-0.925,2.325-2.242,4.097-3.95,5.312
				C151.83,444.892,149.822,445.498,147.515,445.498z M145.137,421.323c-1.99,0-3.443,0.612-4.359,1.836
				c-0.916,1.226-1.392,3.246-1.427,6.064v0.872c0,3.17,0.472,5.441,1.414,6.815c0.941,1.374,2.435,2.062,4.479,2.062
				c3.61,0,5.416-2.978,5.416-8.93c0-2.907-0.445-5.088-1.334-6.54C148.436,422.05,147.039,421.323,145.137,421.323z"/>
			<path fill="#FFFFFF" d="M178.904,445.498c-4.756,0-8.473-1.312-11.15-3.937c-2.677-2.625-4.016-6.342-4.016-11.15
				c0-4.948,1.237-8.774,3.712-11.479c2.475-2.704,5.896-4.056,10.265-4.056c4.175,0,7.425,1.188,9.75,3.565
				c2.325,2.378,3.487,5.663,3.487,9.855v3.909h-19.05c0.088,2.29,0.767,4.078,2.034,5.363c1.269,1.286,3.048,1.93,5.338,1.93
				c1.778,0,3.461-0.186,5.046-0.556c1.586-0.369,3.241-0.96,4.968-1.77v6.234c-1.409,0.704-2.916,1.229-4.519,1.572
				C183.167,445.326,181.212,445.498,178.904,445.498z M177.768,420.61c-1.708,0-3.047,0.541-4.016,1.625
				c-0.969,1.083-1.523,2.62-1.665,4.61h11.309c-0.035-1.99-0.555-3.527-1.559-4.61C180.833,421.151,179.477,420.61,177.768,420.61z
				"/>
			<path fill="#FFFFFF" d="M218.061,444.971h-23.33v-4.756l13.687-18.627H195.55v-6.156h22.035v5.23l-13.316,18.151h13.792V444.971z
				"/>
			<path fill="#FFFFFF" d="M223.557,407.796c0-2.625,1.462-3.938,4.386-3.938c2.924,0,4.386,1.313,4.386,3.938
				c0,1.25-0.365,2.224-1.096,2.919s-1.828,1.044-3.29,1.044C225.019,411.759,223.557,410.438,223.557,407.796z M231.959,444.971
				H223.9v-29.539h8.059V444.971z"/>
			<path fill="#FFFFFF" d="M259.173,444.971l-1.56-4.017h-0.211c-1.356,1.708-2.752,2.894-4.188,3.555
				c-1.437,0.66-3.308,0.989-5.615,0.989c-2.836,0-5.068-0.81-6.697-2.431c-1.63-1.62-2.444-3.928-2.444-6.923
				c0-3.135,1.097-5.446,3.289-6.936c2.193-1.488,5.5-2.313,9.922-2.471l5.126-0.159v-1.295c0-2.994-1.532-4.49-4.598-4.49
				c-2.36,0-5.135,0.713-8.323,2.141l-2.668-5.443c3.399-1.778,7.169-2.669,11.309-2.669c3.963,0,7.001,0.863,9.115,2.59
				c2.113,1.728,3.171,4.352,3.171,7.873v19.686H259.173L259.173,444.971z M256.795,431.283l-3.118,0.105
				c-2.343,0.071-4.087,0.494-5.23,1.269c-1.146,0.775-1.718,1.955-1.718,3.54c0,2.272,1.304,3.409,3.911,3.409
				c1.866,0,3.359-0.537,4.479-1.612c1.118-1.073,1.678-2.501,1.678-4.279L256.795,431.283L256.795,431.283z"/>
			<path fill="#FFFFFF" d="M281.155,444.971h-8.059v-41.112h8.059V444.971z"/>
			<path fill="#FFFFFF" d="M289.267,407.796c0-2.625,1.462-3.938,4.387-3.938c2.924,0,4.386,1.313,4.386,3.938
				c0,1.25-0.366,2.224-1.097,2.919s-1.827,1.044-3.289,1.044C290.729,411.759,289.267,410.438,289.267,407.796z M297.669,444.971
				h-8.059v-29.539h8.059V444.971z"/>
			<path fill="#FFFFFF" d="M326.733,436.198c0,3.03-1.053,5.338-3.158,6.923c-2.104,1.585-5.253,2.378-9.445,2.378
				c-2.149,0-3.98-0.146-5.496-0.436c-1.515-0.291-2.933-0.718-4.254-1.282v-6.658c1.497,0.705,3.185,1.296,5.061,1.771
				s3.527,0.714,4.954,0.714c2.924,0,4.386-0.846,4.386-2.537c0-0.634-0.194-1.148-0.581-1.545
				c-0.388-0.396-1.058-0.846-2.009-1.348c-0.951-0.502-2.219-1.088-3.805-1.757c-2.271-0.951-3.941-1.832-5.007-2.644
				c-1.065-0.81-1.841-1.739-2.325-2.787c-0.484-1.048-0.727-2.339-0.727-3.871c0-2.625,1.018-4.653,3.052-6.09
				c2.035-1.436,4.919-2.152,8.653-2.152c3.558,0,7.02,0.773,10.384,2.323l-2.431,5.813c-1.479-0.635-2.862-1.153-4.148-1.561
				c-1.286-0.403-2.599-0.606-3.937-0.606c-2.378,0-3.567,0.644-3.567,1.929c0,0.723,0.384,1.348,1.149,1.876
				c0.767,0.528,2.444,1.313,5.033,2.353c2.308,0.934,3.999,1.806,5.073,2.615c1.074,0.811,1.867,1.743,2.378,2.802
				C326.478,433.478,326.733,434.737,326.733,436.198z"/>
			<path fill="#FFFFFF" d="M345.466,439.078c1.409,0,3.1-0.309,5.073-0.925v5.997c-2.009,0.898-4.475,1.348-7.398,1.348
				c-3.224,0-5.571-0.813-7.041-2.443c-1.472-1.629-2.206-4.072-2.206-7.332v-14.241h-3.858v-3.408l4.439-2.693l2.325-6.236h5.152
				v6.289h8.27v6.05h-8.27v14.241c0,1.146,0.32,1.991,0.964,2.537C343.559,438.806,344.409,439.078,345.466,439.078z"/>
		</g>
	</g>
	<g id="text_x5F_upper">
		<path fill="#4D4D4D" d="M573.198,64.766c0,2.891-0.986,5.114-2.959,6.67c-1.974,1.557-4.795,2.334-8.467,2.334h-3.359V85h-3.32
			V56.446h7.402C569.63,56.446,573.198,59.219,573.198,64.766z M558.413,70.918h2.988c2.941,0,5.07-0.476,6.387-1.426
			c1.315-0.95,1.973-2.475,1.973-4.57c0-1.888-0.619-3.294-1.854-4.219c-1.237-0.925-3.164-1.388-5.781-1.388h-3.711L558.413,70.918
			L558.413,70.918z"/>
		<path fill="#4D4D4D" d="M588.452,63.204c0.95,0,1.803,0.077,2.559,0.233l-0.448,3.008c-0.887-0.194-1.667-0.293-2.345-0.293
			c-1.731,0-3.213,0.703-4.442,2.109c-1.23,1.406-1.847,3.158-1.847,5.254V85h-3.241V63.594h2.676l0.371,3.965h0.155
			c0.794-1.393,1.751-2.467,2.871-3.223C585.88,63.582,587.111,63.204,588.452,63.204z"/>
		<path fill="#4D4D4D" d="M613.491,74.278c0,3.49-0.879,6.215-2.638,8.175c-1.758,1.96-4.187,2.938-7.284,2.938
			c-1.914,0-3.613-0.449-5.099-1.348c-1.484-0.899-2.63-2.188-3.438-3.867c-0.809-1.68-1.211-3.646-1.211-5.898
			c0-3.488,0.872-6.208,2.617-8.153c1.744-1.946,4.167-2.92,7.266-2.92c2.995,0,5.374,0.996,7.139,2.987
			C612.609,68.184,613.491,70.879,613.491,74.278z M597.183,74.278c0,2.734,0.548,4.818,1.642,6.25
			c1.094,1.434,2.702,2.148,4.824,2.148c2.121,0,3.732-0.713,4.834-2.139c1.1-1.427,1.649-3.513,1.649-6.261
			c0-2.721-0.55-4.788-1.649-6.2c-1.102-1.413-2.726-2.119-4.873-2.119c-2.123,0-3.725,0.696-4.806,2.09
			S597.183,71.518,597.183,74.278z"/>
		<path fill="#4D4D4D" d="M616.577,94.61c-1.237,0-2.239-0.163-3.008-0.487v-2.638c0.897,0.261,1.784,0.392,2.655,0.392
			c1.017,0,1.762-0.277,2.236-0.83c0.475-0.554,0.713-1.396,0.713-2.529V63.594h3.242v24.688
			C622.417,92.5,620.47,94.61,616.577,94.61z M618.901,57.793c0-0.742,0.182-1.286,0.547-1.631c0.364-0.346,0.819-0.519,1.367-0.519
			c0.521,0,0.97,0.176,1.348,0.527c0.377,0.352,0.565,0.892,0.565,1.621c0,0.729-0.188,1.272-0.565,1.631
			c-0.378,0.357-0.827,0.537-1.348,0.537c-0.548,0-1.003-0.18-1.367-0.537C619.083,59.066,618.901,58.523,618.901,57.793z"/>
		<path fill="#4D4D4D" d="M638.335,85.391c-3.164,0-5.661-0.963-7.49-2.891c-1.83-1.928-2.744-4.604-2.744-8.027
			c0-3.45,0.851-6.191,2.55-8.223c1.698-2.032,3.98-3.047,6.846-3.047c2.682,0,4.805,0.882,6.367,2.646
			c1.563,1.765,2.344,4.092,2.344,6.982v2.051H631.46c0.065,2.513,0.7,4.421,1.904,5.723s2.899,1.953,5.088,1.953
			c2.305,0,4.583-0.48,6.836-1.445v2.892c-1.146,0.495-2.23,0.85-3.252,1.063C641.014,85.284,639.78,85.391,638.335,85.391z
			 M637.456,65.918c-1.719,0-3.089,0.56-4.111,1.68c-1.021,1.12-1.625,2.669-1.807,4.648h11.19c0-2.044-0.455-3.61-1.366-4.697
			S639.148,65.918,637.456,65.918z"/>
		<path fill="#4D4D4D" d="M654.938,74.043c0.56-0.794,1.412-1.836,2.559-3.125l6.914-7.324h3.848l-8.672,9.121L668.862,85h-3.927
			l-7.559-10.117l-2.441,2.109V85h-3.203V54.61h3.203v16.113c0,0.716-0.052,1.823-0.155,3.32H654.938z"/>
		<path fill="#4D4D4D" d="M679.645,82.715c0.572,0,1.125-0.042,1.659-0.127c0.534-0.084,0.957-0.172,1.271-0.265v2.48
			c-0.353,0.169-0.869,0.309-1.553,0.42c-0.685,0.11-1.3,0.166-1.847,0.166c-4.141,0-6.211-2.181-6.211-6.543V66.114h-3.065v-1.563
			l3.065-1.348l1.367-4.57h1.875v4.961h6.211v2.52h-6.211v12.599c0,1.289,0.306,2.278,0.918,2.969S678.576,82.715,679.645,82.715z"
			/>
		<path fill="#4D4D4D" d="M691.538,85l-8.125-21.406h3.477l4.609,12.695c1.042,2.969,1.653,4.896,1.836,5.78h0.156
			c0.144-0.689,0.596-2.118,1.356-4.286c0.762-2.169,2.472-6.897,5.127-14.189h3.478L695.327,85H691.538z"/>
		<path fill="#4D4D4D" d="M715.933,85.391c-3.163,0-5.661-0.963-7.489-2.891c-1.829-1.928-2.744-4.604-2.744-8.027
			c0-3.45,0.85-6.191,2.549-8.223c1.699-2.032,3.98-3.047,6.846-3.047c2.684,0,4.805,0.882,6.367,2.646
			c1.563,1.765,2.344,4.092,2.344,6.982v2.051h-14.746c0.065,2.513,0.7,4.421,1.904,5.723s2.9,1.953,5.088,1.953
			c2.305,0,4.583-0.48,6.836-1.445v2.892c-1.146,0.495-2.229,0.85-3.252,1.063C718.612,85.281,717.378,85.391,715.933,85.391z
			 M715.054,65.918c-1.719,0-3.089,0.56-4.11,1.68c-1.022,1.12-1.624,2.669-1.808,4.648h11.191c0-2.044-0.456-3.61-1.367-4.697
			S716.746,65.918,715.054,65.918z"/>
		<path fill="#4D4D4D" d="M739.097,63.204c0.95,0,1.805,0.077,2.56,0.233l-0.449,3.008c-0.886-0.194-1.667-0.293-2.344-0.293
			c-1.731,0-3.213,0.703-4.443,2.109c-1.229,1.406-1.846,3.158-1.846,5.254V85h-3.242V63.594h2.676l0.371,3.965h0.156
			c0.794-1.393,1.751-2.467,2.871-3.223C736.525,63.582,737.756,63.204,739.097,63.204z"/>
		<path fill="#4D4D4D" d="M752.573,82.715c0.573,0,1.126-0.042,1.659-0.127c0.534-0.084,0.957-0.172,1.271-0.265v2.48
			c-0.352,0.169-0.869,0.309-1.553,0.42c-0.685,0.11-1.299,0.166-1.847,0.166c-4.141,0-6.211-2.181-6.211-6.543V66.114h-3.065
			v-1.563l3.065-1.348l1.367-4.57h1.875v4.961h6.211v2.52h-6.211v12.599c0,1.289,0.307,2.278,0.918,2.969
			C750.666,82.371,751.506,82.715,752.573,82.715z"/>
		<path fill="#4D4D4D" d="M769.546,63.204c0.95,0,1.804,0.077,2.56,0.233l-0.449,3.008c-0.887-0.194-1.667-0.293-2.344-0.293
			c-1.731,0-3.213,0.703-4.443,2.109s-1.846,3.158-1.846,5.254V85h-3.242V63.594h2.676l0.371,3.965h0.156
			c0.794-1.393,1.751-2.467,2.871-3.223C766.975,63.582,768.205,63.204,769.546,63.204z"/>
		<path fill="#4D4D4D" d="M789.271,85l-0.645-3.047h-0.156c-1.066,1.341-2.132,2.25-3.192,2.725
			c-1.062,0.475-2.387,0.713-3.976,0.713c-2.122,0-3.786-0.547-4.99-1.641c-1.203-1.095-1.807-2.649-1.807-4.668
			c0-4.323,3.457-6.588,10.371-6.797l3.633-0.117V70.84c0-1.68-0.361-2.92-1.084-3.721c-0.723-0.802-1.878-1.201-3.467-1.201
			c-1.784,0-3.802,0.547-6.055,1.641l-0.996-2.479c1.055-0.573,2.21-1.022,3.467-1.349c1.257-0.325,2.518-0.487,3.779-0.487
			c2.552,0,4.442,0.565,5.674,1.698c1.23,1.134,1.846,2.949,1.846,5.449V85H789.271z M781.948,82.715
			c2.019,0,3.604-0.553,4.756-1.66c1.151-1.106,1.729-2.656,1.729-4.648v-1.934l-3.241,0.137c-2.578,0.092-4.438,0.492-5.576,1.201
			c-1.141,0.71-1.709,1.813-1.709,3.312c0,1.172,0.354,2.063,1.063,2.676S780.672,82.715,781.948,82.715z"/>
		<path fill="#4D4D4D" d="M815.874,63.594v2.051l-3.965,0.469c0.364,0.456,0.689,1.053,0.977,1.787
			c0.286,0.736,0.431,1.566,0.431,2.49c0,2.097-0.717,3.771-2.148,5.021s-3.398,1.875-5.898,1.875c-0.638,0-1.236-0.053-1.797-0.156
			c-1.38,0.729-2.069,1.646-2.069,2.754c0,0.586,0.241,1.019,0.723,1.299s1.31,0.42,2.479,0.42h3.789c2.317,0,4.1,0.488,5.343,1.465
			c1.243,0.978,1.864,2.396,1.864,4.259c0,2.369-0.949,4.176-2.852,5.42c-1.901,1.242-4.675,1.864-8.32,1.864
			c-2.8,0-4.958-0.521-6.475-1.563c-1.518-1.042-2.275-2.513-2.275-4.414c0-1.302,0.417-2.429,1.25-3.379s2.005-1.595,3.517-1.935
			c-0.548-0.247-1.007-0.631-1.378-1.151c-0.37-0.521-0.557-1.126-0.557-1.816c0-0.781,0.208-1.465,0.625-2.051
			s1.074-1.152,1.973-1.699c-1.105-0.456-2.009-1.229-2.704-2.324c-0.696-1.094-1.046-2.344-1.046-3.75
			c0-2.344,0.703-4.149,2.109-5.42c1.406-1.27,3.398-1.903,5.978-1.903c1.12,0,2.129,0.13,3.026,0.391h7.401V63.594z
			 M798.804,88.594c0,1.159,0.488,2.038,1.466,2.637c0.977,0.6,2.375,0.898,4.198,0.898c2.722,0,4.736-0.407,6.045-1.221
			c1.31-0.814,1.964-1.917,1.964-3.312c0-1.159-0.358-1.963-1.074-2.412c-0.717-0.449-2.063-0.674-4.043-0.674h-3.888
			c-1.472,0-2.616,0.352-3.438,1.055S798.804,87.279,798.804,88.594z M800.563,70.45c0,1.497,0.423,2.63,1.27,3.397
			c0.847,0.77,2.023,1.152,3.535,1.152c3.164,0,4.746-1.536,4.746-4.609c0-3.216-1.603-4.824-4.806-4.824
			c-1.522,0-2.694,0.41-3.516,1.23S800.563,68.835,800.563,70.45z"/>
	</g>
	<g id="text_x5F_lower">
		<path fill="#4D4D4D" d="M546.675,400.125V412h-3.319v-28.556h7.831c3.503,0,6.091,0.672,7.765,2.012
			c1.673,1.343,2.51,3.359,2.51,6.056c0,3.776-1.914,6.328-5.742,7.656L563.472,412h-3.926l-6.914-11.875H546.675z M546.675,397.273
			h4.551c2.345,0,4.063-0.465,5.156-1.396c1.094-0.931,1.642-2.326,1.642-4.189c0-1.887-0.558-3.248-1.67-4.082
			c-1.113-0.832-2.9-1.25-5.361-1.25h-4.316L546.675,397.273L546.675,397.273z"/>
		<path fill="#4D4D4D" d="M580.757,412l-0.645-3.048h-0.156c-1.068,1.343-2.132,2.25-3.193,2.726s-2.386,0.713-3.975,0.713
			c-2.123,0-3.786-0.547-4.99-1.641c-1.205-1.095-1.807-2.648-1.807-4.668c0-4.322,3.457-6.589,10.371-6.798l3.633-0.116v-1.328
			c0-1.681-0.361-2.92-1.084-3.722c-0.723-0.801-1.878-1.2-3.467-1.2c-1.784,0-3.803,0.547-6.056,1.641l-0.996-2.48
			c1.056-0.571,2.211-1.021,3.468-1.348c1.256-0.324,2.516-0.488,3.778-0.488c2.553,0,4.443,0.566,5.675,1.699
			c1.23,1.133,1.846,2.949,1.846,5.449V412H580.757z M573.433,409.715c2.019,0,3.604-0.554,4.757-1.66
			c1.151-1.105,1.729-2.656,1.729-4.648v-1.934l-3.242,0.137c-2.578,0.092-4.437,0.492-5.576,1.201
			c-1.14,0.711-1.709,1.813-1.709,3.311c0,1.173,0.354,2.064,1.064,2.677C571.164,409.409,572.156,409.715,573.433,409.715z"/>
		<path fill="#4D4D4D" d="M604.487,412v-13.849c0-1.744-0.397-3.047-1.191-3.906c-0.794-0.858-2.038-1.289-3.729-1.289
			c-2.253,0-3.896,0.613-4.933,1.837c-1.035,1.225-1.553,3.229-1.553,6.016V412h-3.242v-30.392h3.242v9.199
			c0,1.106-0.052,2.024-0.156,2.754h0.195c0.638-1.027,1.546-1.838,2.725-2.432c1.179-0.593,2.522-0.89,4.033-0.89
			c2.617,0,4.58,0.623,5.889,1.865c1.31,1.244,1.964,3.221,1.964,5.928V412H604.487z"/>
		<path fill="#4D4D4D" d="M641.675,412v-13.927c0-1.705-0.365-2.983-1.094-3.838c-0.729-0.852-1.862-1.279-3.398-1.279
			c-2.019,0-3.509,0.58-4.473,1.738c-0.964,1.16-1.445,2.943-1.445,5.353V412h-3.241v-13.927c0-1.705-0.365-2.983-1.095-3.838
			c-0.729-0.852-1.869-1.279-3.418-1.279c-2.031,0-3.519,0.609-4.463,1.826c-0.944,1.22-1.416,3.213-1.416,5.986V412h-3.242v-21.406
			h2.638l0.526,2.93h0.156c0.612-1.041,1.475-1.854,2.588-2.441c1.113-0.586,2.36-0.879,3.74-0.879c3.346,0,5.534,1.211,6.563,3.634
			h0.156c0.638-1.119,1.563-2.005,2.773-2.656c1.211-0.65,2.591-0.978,4.141-0.978c2.422,0,4.235,0.623,5.439,1.865
			c1.203,1.244,1.807,3.232,1.807,5.967V412H641.675z"/>
		<path fill="#4D4D4D" d="M660.64,412.391c-3.163,0-5.661-0.963-7.489-2.891c-1.83-1.927-2.744-4.603-2.744-8.027
			c0-3.449,0.85-6.191,2.549-8.223c1.699-2.032,3.98-3.048,6.846-3.048c2.683,0,4.805,0.884,6.367,2.646
			c1.563,1.766,2.344,4.092,2.344,6.981v2.052h-14.746c0.065,2.514,0.7,4.422,1.904,5.723c1.204,1.303,2.9,1.953,5.088,1.953
			c2.305,0,4.583-0.48,6.836-1.445v2.892c-1.146,0.495-2.229,0.85-3.252,1.063C663.318,412.282,662.085,412.391,660.64,412.391z
			 M659.761,392.918c-1.719,0-3.089,0.561-4.11,1.68c-1.022,1.121-1.625,2.67-1.808,4.647h11.191c0-2.043-0.456-3.608-1.367-4.696
			C662.755,393.463,661.453,392.918,659.761,392.918z"/>
		<path fill="#4D4D4D" d="M688.688,412v-13.849c0-1.744-0.397-3.047-1.191-3.906c-0.794-0.858-2.038-1.289-3.73-1.289
			c-2.238,0-3.88,0.605-4.922,1.816s-1.563,3.211-1.563,5.996V412h-3.242v-21.406h2.637l0.527,2.93h0.156
			c0.664-1.055,1.595-1.871,2.793-2.451c1.197-0.578,2.531-0.869,4.004-0.869c2.578,0,4.519,0.623,5.82,1.865
			c1.302,1.244,1.953,3.232,1.953,5.967V412H688.688z"/>
		<path fill="#4D4D4D" d="M703.276,412l-8.125-21.406h3.477l4.609,12.694c1.042,2.97,1.652,4.896,1.836,5.781h0.155
			c0.145-0.688,0.597-2.119,1.357-4.287s2.471-6.896,5.127-14.188h3.477L707.064,412H703.276z"/>
		<path fill="#4D4D4D" d="M727.671,412.391c-3.164,0-5.661-0.963-7.49-2.891c-1.829-1.927-2.743-4.603-2.743-8.027
			c0-3.449,0.85-6.191,2.549-8.223c1.699-2.032,3.98-3.048,6.846-3.048c2.683,0,4.805,0.884,6.367,2.646
			c1.563,1.766,2.344,4.092,2.344,6.981v2.052h-14.746c0.065,2.514,0.7,4.422,1.904,5.723c1.204,1.303,2.9,1.953,5.088,1.953
			c2.305,0,4.583-0.48,6.836-1.445v2.892c-1.146,0.495-2.229,0.85-3.252,1.063S729.116,412.391,727.671,412.391z M726.792,392.918
			c-1.719,0-3.089,0.561-4.111,1.68c-1.021,1.121-1.624,2.67-1.807,4.647h11.19c0-2.043-0.455-3.608-1.366-4.696
			C729.787,393.463,728.484,392.918,726.792,392.918z"/>
		<path fill="#4D4D4D" d="M750.835,390.202c0.95,0,1.804,0.078,2.56,0.234l-0.449,3.008c-0.887-0.194-1.667-0.293-2.344-0.293
			c-1.731,0-3.214,0.703-4.443,2.109c-1.23,1.406-1.846,3.158-1.846,5.254V412h-3.242v-21.406h2.676l0.371,3.965h0.156
			c0.794-1.394,1.751-2.467,2.871-3.223C748.264,390.581,749.494,390.202,750.835,390.202z"/>
		<path fill="#4D4D4D" d="M764.313,409.715c0.572,0,1.125-0.041,1.659-0.127c0.534-0.084,0.957-0.173,1.271-0.265v2.48
			c-0.353,0.17-0.869,0.31-1.553,0.42c-0.685,0.111-1.3,0.166-1.847,0.166c-4.141,0-6.211-2.18-6.211-6.543v-12.734h-3.065v-1.563
			l3.065-1.349l1.367-4.569h1.875v4.961h6.211v2.52h-6.211v12.599c0,1.288,0.306,2.278,0.918,2.969S763.244,409.715,764.313,409.715
			z"/>
		<path fill="#4D4D4D" d="M781.284,390.202c0.95,0,1.804,0.078,2.559,0.234l-0.448,3.008c-0.887-0.194-1.668-0.293-2.345-0.293
			c-1.73,0-3.213,0.703-4.442,2.109c-1.23,1.406-1.847,3.158-1.847,5.254V412h-3.241v-21.406h2.676l0.371,3.965h0.155
			c0.794-1.394,1.751-2.467,2.871-3.223C778.713,390.581,779.943,390.202,781.284,390.202z"/>
		<path fill="#4D4D4D" d="M801.011,412l-0.645-3.048h-0.156c-1.067,1.343-2.132,2.25-3.193,2.726s-2.386,0.713-3.975,0.713
			c-2.122,0-3.786-0.547-4.99-1.641c-1.204-1.095-1.807-2.648-1.807-4.668c0-4.322,3.457-6.589,10.371-6.798l3.633-0.116v-1.328
			c0-1.681-0.361-2.92-1.084-3.722c-0.723-0.801-1.878-1.2-3.467-1.2c-1.784,0-3.802,0.547-6.056,1.641l-0.996-2.48
			c1.056-0.571,2.211-1.021,3.468-1.348c1.257-0.324,2.517-0.488,3.778-0.488c2.553,0,4.443,0.566,5.675,1.699
			c1.23,1.133,1.846,2.949,1.846,5.449V412H801.011z M793.688,409.715c2.019,0,3.604-0.554,4.756-1.66
			c1.151-1.105,1.729-2.656,1.729-4.648v-1.934l-3.242,0.137c-2.578,0.092-4.437,0.492-5.576,1.201
			c-1.14,0.711-1.709,1.813-1.709,3.311c0,1.173,0.354,2.064,1.064,2.677C791.418,409.409,792.41,409.715,793.688,409.715z"/>
		<path fill="#4D4D4D" d="M827.612,390.594v2.051l-3.966,0.469c0.364,0.457,0.69,1.053,0.978,1.787
			c0.286,0.736,0.43,1.566,0.43,2.49c0,2.098-0.716,3.77-2.147,5.02c-1.433,1.25-3.398,1.875-5.898,1.875
			c-0.638,0-1.236-0.051-1.797-0.155c-1.38,0.729-2.07,1.647-2.07,2.754c0,0.586,0.241,1.02,0.724,1.299
			c0.48,0.281,1.309,0.42,2.479,0.42h3.789c2.317,0,4.1,0.488,5.342,1.465c1.243,0.978,1.865,2.396,1.865,4.258
			c0,2.37-0.95,4.178-2.852,5.42c-1.901,1.244-4.676,1.865-8.32,1.865c-2.8,0-4.958-0.521-6.475-1.563
			c-1.518-1.041-2.275-2.514-2.275-4.414c0-1.303,0.417-2.429,1.25-3.379c0.833-0.949,2.005-1.595,3.516-1.935
			c-0.547-0.246-1.006-0.631-1.377-1.151s-0.557-1.125-0.557-1.816c0-0.781,0.208-1.465,0.625-2.051s1.074-1.152,1.973-1.699
			c-1.105-0.455-2.009-1.23-2.705-2.324c-0.695-1.094-1.045-2.344-1.045-3.75c0-2.344,0.703-4.149,2.109-5.42
			c1.406-1.27,3.398-1.904,5.977-1.904c1.12,0,2.129,0.132,3.027,0.392h7.401V390.594z M810.542,415.594
			c0,1.159,0.488,2.038,1.465,2.637c0.978,0.6,2.376,0.898,4.199,0.898c2.722,0,4.736-0.406,6.045-1.222
			c1.31-0.813,1.963-1.917,1.963-3.311c0-1.158-0.358-1.963-1.074-2.412s-2.063-0.674-4.043-0.674h-3.887
			c-1.472,0-2.617,0.352-3.438,1.055C810.951,413.269,810.542,414.279,810.542,415.594z M812.3,397.448
			c0,1.498,0.423,2.631,1.271,3.398c0.847,0.77,2.023,1.151,3.535,1.151c3.164,0,4.745-1.534,4.745-4.608
			c0-3.215-1.602-4.824-4.805-4.824c-1.522,0-2.695,0.41-3.516,1.23C812.709,394.615,812.3,395.836,812.3,397.448z"/>
	</g>
</g>
<g id="Sanitt_x5F_Logos">
	<g id="Sanitt_x5F_1_2_">
		<polygon id="main1_4_" fill="#42955B" points="1007.485,143.557 1021.338,143.557 1014.773,150.238 998.006,150.238 
			998.006,58.004 1014.289,58.004 1020.973,64.565 1007.485,64.565 		"/>
		<path id="main2_1_" fill="#42955B" d="M1027.726,134.372l-2.178-5.861c0.854,0.326,1.704,0.563,2.576,0.725
			c0.871,0.165,1.741,0.237,2.631,0.237c4.825,0,8.4-1.562,10.741-4.683c2.341-3.12,3.501-7.895,3.501-14.351
			c0-2.649-0.035-5.697-0.107-9.146c-0.073-3.428-0.109-5.533-0.109-6.313c0-10.887,2.306-19.27,6.913-25.146
			c4.607-5.879,11.158-8.819,19.668-8.819c2.378,0,4.664,0.271,6.859,0.797c2.195,0.526,4.409,1.342,6.641,2.449l2.179,5.462
			c-1.145-0.218-2.231-0.379-3.267-0.507c-1.053-0.126-2.031-0.181-2.957-0.181c-4.809,0-8.274,1.776-10.36,5.314
			s-3.14,9.471-3.14,17.818c0,0.381,0.021,1.705,0.057,3.973c0.036,2.27,0.054,4.356,0.054,6.224c0,6.171-0.417,11.016-1.235,14.532
			c-0.796,3.54-2.14,6.535-3.972,9.02c-2.667,3.503-5.861,6.153-9.599,7.947c-3.738,1.796-7.983,2.688-12.721,2.688
			c-2.448,0-4.662-0.184-6.64-0.529C1031.264,135.658,1029.43,135.113,1027.726,134.372L1027.726,134.372z"/>
		<path id="main3_1_" fill="#42955B" d="M1100.334,73.03c-9.183,7.495-16.536,16.986-22.14,28.329
			c-5.738,11.545-8.566,22.944-8.566,34.911h16.609c0-3.324,0.641-7.646,1.921-12.299h20.4v12.299h17.618V62.194
			C1117.867,62.194,1109.178,65.805,1100.334,73.03z M1108.561,112.003h-16.452c4.997-10.97,10.469-18.382,16.452-21.757V112.003z"
			/>
		<path id="main4_1_" fill="#42955B" d="M1188.503,136.123h-17.722c0-12.491-4.56-25.992-13.672-40.511
			c-2.904-4.589-4.524-6.885-4.862-6.885v47.396h-17.62V63.005h17.62c4.255,0,10.129,5.703,17.622,17.113
			c0.742,1.082,2.023,3.105,3.849,6.078V63.004h14.786L1188.503,136.123L1188.503,136.123z"/>
		<polygon id="main5_4_" fill="#42955B" points="1201.813,143.557 1215.664,143.557 1215.664,64.323 1202.42,64.323 
			1208.857,57.762 1225.021,57.762 1225.021,150.119 1208.131,150.119 		"/>
		<polygon id="main6_4_" fill="#42955B" points="1256.021,136.108 1240.78,136.108 1240.78,73.476 1256.021,73.476 		"/>
		<polygon id="main7_4_" fill="#42955B" points="1306.01,85.233 1290.688,85.233 1290.688,136.108 1275.623,136.108 
			1275.623,85.233 1259.611,85.233 1259.611,73.958 1306.01,73.958 		"/>
		<polygon id="main8_4_" fill="#42955B" points="1356.708,85.233 1341.388,85.233 1341.388,136.108 1326.324,136.108 
			1326.324,85.233 1310.311,85.233 1310.311,73.958 1356.708,73.958 		"/>
		<polygon id="main9_4_" fill="#42955B" points="1378.792,143.557 1392.646,143.557 1386.083,150.238 1369.313,150.238 
			1369.313,58.004 1385.596,58.004 1392.279,64.565 1378.792,64.565 		"/>
		<path id="sub1_4_" fill="#42955B" d="M1394.582,91.846l-3.532,0.847l0.026-18.923h3.506V91.846L1394.582,91.846z M1412.919,92.021
			l-3.737,0.79l0.061-3.185l-2.891-4.557c-1.09-1.693-1.957-2.841-2.599-3.444c-0.39-0.389-0.877-0.818-1.462-1.285l-1.516-1.079
			l-0.062,12.816l-3.387,0.818l-0.029-19.563c0.449,0,0.789,0.009,1.021,0.027c0.232,0.021,0.597,0.083,1.084,0.191
			c0.484,0.108,1.037,0.345,1.662,0.715c0.76,0.467,1.615,1.089,2.569,1.868c0.797,0.644,1.576,1.334,2.336,2.073
			c0.585,0.525,1.204,1.236,1.868,2.131c0.505,0.663,0.973,1.363,1.401,2.103v-8.673h3.736L1412.919,92.021L1412.919,92.021z
			 M1419.694,80.867h9.168l-3.68,3.503h-5.43l-0.059,7.476l-3.505,0.877V73.77h16.089l-3.699,3.505h-8.885V80.867L1419.694,80.867z
			 M1450.355,82.91c0,2.472-0.834,4.599-2.496,6.38c-1.666,1.779-3.654,2.671-5.974,2.671h-3.15c-2.337,0-4.333-0.886-5.988-2.657
			c-1.653-1.772-2.482-3.903-2.482-6.395c0-2.512,0.834-4.661,2.497-6.455c1.665-1.79,3.656-2.688,5.975-2.688h3.151
			c2.336,0,4.329,0.887,5.986,2.657C1449.527,78.198,1450.355,80.361,1450.355,82.91L1450.355,82.91z M1446.561,82.91
			c0-1.559-0.447-2.887-1.345-3.984c-0.896-1.104-2.006-1.652-3.329-1.652h-3.15c-1.268,0-2.369,0.558-3.303,1.666
			c-0.445,0.545-0.788,1.146-1.021,1.811c-0.234,0.662-0.351,1.382-0.351,2.161c0,1.517,0.456,2.82,1.371,3.911
			c0.916,1.091,2.016,1.638,3.303,1.638h3.15c1.282,0,2.387-0.547,3.301-1.638S1446.561,84.428,1446.561,82.91L1446.561,82.91z
			 M1469.771,91.729l-3.826,0.848l0.147-1.052l0.176-1.313c0-1.946-0.896-3.594-2.688-4.935c-1.791-1.345-4.078-2.016-6.863-2.016
			l5.14-5.11l0.117-0.232c0-0.175-0.236-0.352-0.714-0.524c-0.479-0.176-0.95-0.264-1.418-0.264h-4.027l-0.06,14.684l-3.826,0.765
			l0.029-18.95h7.944c1.671,0,3.077,0.34,4.217,1.021c1.14,0.682,1.709,1.489,1.709,2.426c0,0.466-0.201,0.981-0.613,1.544
			l-0.789,0.848l-1.4,1.313c2.198,0.954,3.854,2.249,4.965,3.885c0.564,0.896,1.004,1.938,1.312,3.125
			C1469.619,88.974,1469.771,90.288,1469.771,91.729L1469.771,91.729z M1496.314,91.962l-3.59,0.962L1488.928,82l-5.526,11.26
			l-5.416-11.179l-3.568,9.938l-4.028,0.614l7.125-19.506l5.897,12.177l6.017-12.177L1496.314,91.962L1496.314,91.962z
			 M1505.689,85.597l-3.184,5.169c-0.058,0.173-0.136,0.35-0.23,0.527c-0.099,0.173-0.215,0.367-0.354,0.583l-0.231,0.32
			l-4.848,1.372l11.973-19.915l11.213,18.397l-3.708,1.343l-0.469-0.992l-0.643-1.462l-3.327-5.343H1505.689L1505.689,85.597
			L1505.689,85.597z M1507.823,82.092h1.954l-0.963-1.605L1507.823,82.092L1507.823,82.092z M1536.497,73.769l-3.621,3.504h-5.694
			l-0.059,14.571l-3.532,0.992l0.087-15.563h-8.146l3.386-3.504H1536.497L1536.497,73.769z M1541.871,91.846l-3.532,0.847
			l0.027-18.923h3.505V91.846L1541.871,91.846z M1563.625,82.91c0,2.472-0.833,4.599-2.498,6.38
			c-1.664,1.779-3.654,2.671-5.971,2.671h-3.153c-2.336,0-4.329-0.886-5.985-2.657c-1.656-1.772-2.484-3.903-2.484-6.395
			c0-2.512,0.833-4.661,2.499-6.455c1.663-1.79,3.654-2.688,5.972-2.688h3.153c2.335,0,4.331,0.887,5.987,2.657
			C1562.797,78.198,1563.625,80.361,1563.625,82.91L1563.625,82.91z M1559.828,82.91c0-1.559-0.449-2.887-1.342-3.984
			c-0.896-1.104-2.006-1.652-3.33-1.652h-3.153c-1.267,0-2.365,0.558-3.3,1.666c-0.448,0.545-0.789,1.146-1.021,1.811
			c-0.234,0.662-0.351,1.382-0.351,2.161c0,1.517,0.455,2.82,1.371,3.911c0.913,1.091,2.014,1.638,3.3,1.638h3.153
			c1.282,0,2.384-0.547,3.3-1.638C1559.37,85.732,1559.828,84.428,1559.828,82.91L1559.828,82.91z M1580.795,92.021l-3.739,0.79
			l0.061-3.185l-2.89-4.557c-1.09-1.693-1.957-2.841-2.599-3.444c-0.389-0.389-0.876-0.818-1.462-1.285l-1.518-1.079l-0.058,12.816
			l-3.388,0.818l-0.029-19.563c0.449,0,0.786,0.009,1.022,0.027c0.23,0.021,0.592,0.083,1.079,0.191
			c0.486,0.108,1.041,0.345,1.664,0.715c0.761,0.467,1.617,1.089,2.569,1.868c0.796,0.644,1.579,1.334,2.337,2.073
			c0.583,0.525,1.205,1.236,1.866,2.131c0.506,0.663,0.976,1.363,1.403,2.103v-8.673h3.737L1580.795,92.021L1580.795,92.021z"/>
		<path id="sub2_4_" fill="#42955B" d="M1403.895,95.302l-3.62,3.503h-5.694l-0.061,14.571l-3.532,0.992l0.088-15.563h-8.147
			l3.388-3.503H1403.895L1403.895,95.302z M1406.057,102.25h13.779l-3.912,3.971l-9.896-0.088c0.29,1.053,0.813,1.947,1.573,2.687
			c0.778,0.682,1.646,1.024,2.6,1.024h8.03c0.681,0,1.509-0.1,2.48-0.294l1.345-0.321l-3.826,4.118h-8.818
			c-2.063,0-3.818-0.926-5.27-2.776c-1.449-1.849-2.178-4.088-2.178-6.714c0-2.354,0.736-4.394,2.207-6.118
			c1.47-1.722,3.216-2.583,5.239-2.583h12.41l-3.62,3.445h-8.001c-0.914,0-1.747,0.331-2.496,0.992
			C1406.955,100.257,1406.406,101.141,1406.057,102.25L1406.057,102.25z M1442.701,95.302l-4.206,3.417l-1.925,0.086h-5.782
			c-1.186,0-2.219,0.556-3.095,1.666c-0.432,0.563-0.748,1.169-0.965,1.81c-0.214,0.643-0.32,1.362-0.32,2.162
			c0,1.538,0.424,2.847,1.269,3.929c0.849,1.077,1.884,1.618,3.11,1.618h7.534c0.993,0,2.159-0.089,3.505-0.263
			c0.291,0,0.592-0.048,0.902-0.146l-3.911,3.912h-8.907c-1.984,0-3.698-0.894-5.139-2.685s-2.16-3.944-2.16-6.454
			c0-2.531,0.714-4.672,2.145-6.423c1.434-1.752,3.15-2.627,5.154-2.627h12.791V95.302L1442.701,95.302z M1449.271,104.674
			l1.109-2.656h7.213l0.061-6.863h3.678v18.428l-3.797,0.642l0.118-8.702h-8.382v7.999l-3.971,0.85l0.029-19.214h3.94
			L1449.271,104.674L1449.271,104.674z M1479.729,113.552l-3.735,0.789l0.056-3.185l-2.89-4.556
			c-1.09-1.696-1.958-2.843-2.599-3.445c-0.391-0.389-0.875-0.816-1.461-1.285l-1.518-1.081l-0.061,12.818l-3.387,0.818
			l-0.025-19.564c0.443,0,0.783,0.011,1.02,0.029c0.233,0.021,0.593,0.083,1.081,0.189c0.484,0.108,1.041,0.347,1.663,0.718
			c0.759,0.464,1.615,1.088,2.568,1.866c0.799,0.644,1.576,1.335,2.336,2.073c0.587,0.525,1.208,1.236,1.869,2.132
			c0.506,0.66,0.973,1.362,1.4,2.102V95.3h3.738L1479.729,113.552L1479.729,113.552z M1501.396,104.441
			c0,2.472-0.834,4.601-2.5,6.38c-1.662,1.78-3.654,2.669-5.97,2.669h-3.153c-2.337,0-4.33-0.884-5.985-2.653
			c-1.655-1.773-2.484-3.904-2.484-6.396c0-2.512,0.832-4.663,2.498-6.453c1.663-1.793,3.654-2.687,5.973-2.687h3.153
			c2.334,0,4.328,0.884,5.984,2.656C1500.568,99.729,1501.396,101.89,1501.396,104.441L1501.396,104.441z M1497.6,104.441
			c0-1.559-0.448-2.887-1.343-3.986c-0.896-1.101-2.006-1.65-3.329-1.65h-3.154c-1.268,0-2.365,0.555-3.299,1.665
			c-0.448,0.547-0.787,1.148-1.023,1.81c-0.232,0.663-0.349,1.383-0.349,2.162c0,1.52,0.455,2.821,1.372,3.912
			c0.912,1.09,2.014,1.636,3.299,1.636h3.154c1.283,0,2.384-0.546,3.299-1.636S1497.6,105.96,1497.6,104.441L1497.6,104.441z
			 M1515.059,109.58l-3.735,3.911h-8.496l0.026-18.189h3.505l0.06,14.688h4.468c0.778,0,1.683-0.067,2.716-0.204L1515.059,109.58
			L1515.059,109.58z M1535.559,104.441c0,2.472-0.833,4.601-2.496,6.38c-1.662,1.78-3.653,2.669-5.972,2.669h-3.151
			c-2.336,0-4.332-0.884-5.988-2.653c-1.653-1.773-2.481-3.904-2.481-6.396c0-2.512,0.833-4.663,2.499-6.453
			c1.663-1.793,3.654-2.687,5.971-2.687h3.152c2.337,0,4.33,0.884,5.985,2.656C1534.732,99.729,1535.559,101.89,1535.559,104.441
			L1535.559,104.441z M1531.765,104.441c0-1.559-0.448-2.887-1.346-3.986c-0.896-1.101-2.006-1.65-3.328-1.65h-3.152
			c-1.267,0-2.365,0.555-3.301,1.665c-0.445,0.547-0.788,1.148-1.021,1.81c-0.234,0.663-0.351,1.383-0.351,2.162
			c0,1.52,0.457,2.821,1.371,3.912c0.915,1.09,2.016,1.636,3.302,1.636h3.152c1.285,0,2.382-0.546,3.298-1.636
			C1531.307,107.263,1531.765,105.96,1531.765,104.441L1531.765,104.441z M1556.175,95.302l-3.595,3.387l-7.182,0.116
			c-1.189,0-2.219,0.555-3.097,1.665c-0.43,0.563-0.75,1.169-0.964,1.81c-0.215,0.643-0.317,1.362-0.317,2.162
			c0,1.538,0.422,2.847,1.268,3.929c0.849,1.076,1.884,1.618,3.11,1.618h6.131v-4.322h-4.585c-0.563,0-1.48,0.088-2.745,0.264
			c-0.076,0-0.199,0.009-0.365,0.03c-0.166,0.02-0.347,0.059-0.541,0.113l3.768-3.912h7.974l-0.061,11.328h-9.577
			c-2.201,0-4.111-0.884-5.738-2.653c-1.627-1.773-2.438-3.904-2.438-6.396c0-2.512,0.793-4.662,2.379-6.452
			c1.587-1.793,3.521-2.688,5.798-2.688L1556.175,95.302L1556.175,95.302z M1580.645,95.593l-9.604,9.607v8.233l-3.564,0.759
			l0.061-8.905l-9.694-9.695h5.124l6.291,6.395l6.41-6.395L1580.645,95.593L1580.645,95.593z"/>
		<path id="sub3_4_" fill="#42955B" d="M1403.939,116.942l-3.621,3.504h-5.693l-0.058,14.571l-3.534,0.992l0.088-15.563h-8.146
			l3.388-3.504H1403.939L1403.939,116.942z M1422.014,134.9l-3.821,0.849l0.144-1.051l0.176-1.314c0-1.946-0.896-3.591-2.687-4.935
			s-4.078-2.015-6.862-2.015l5.138-5.111l0.12-0.231c0-0.176-0.24-0.352-0.718-0.527c-0.476-0.173-0.948-0.263-1.416-0.263h-4.028
			l-0.061,14.685l-3.825,0.765l0.029-18.95h7.944c1.675,0,3.08,0.34,4.219,1.021c1.139,0.683,1.708,1.489,1.708,2.426
			c0,0.465-0.203,0.981-0.613,1.544l-0.788,0.848l-1.4,1.316c2.195,0.951,3.854,2.245,4.963,3.881
			c0.564,0.896,1.005,1.938,1.314,3.126C1421.859,132.145,1422.014,133.46,1422.014,134.9L1422.014,134.9z M1431.068,128.768
			l-3.185,5.171c-0.059,0.173-0.137,0.352-0.231,0.527c-0.099,0.173-0.215,0.367-0.352,0.583l-0.234,0.321l-4.849,1.374
			l11.974-19.916l11.213,18.396l-3.708,1.342l-0.468-0.994l-0.644-1.46l-3.329-5.344L1431.068,128.768L1431.068,128.768z
			 M1433.199,125.265h1.959l-0.966-1.606L1433.199,125.265L1433.199,125.265z M1450.313,135.019l-3.533,0.847l0.028-18.923h3.505
			V135.019L1450.313,135.019z M1469.817,134.9l-3.738,0.789l0.059-3.181l-2.888-4.556c-1.092-1.695-1.959-2.845-2.6-3.446
			c-0.391-0.391-0.877-0.818-1.463-1.285l-1.518-1.081l-0.057,12.819l-3.387,0.817l-0.03-19.563c0.444,0,0.786,0.01,1.021,0.03
			c0.231,0.02,0.596,0.083,1.08,0.19c0.488,0.107,1.041,0.345,1.666,0.715c0.759,0.465,1.615,1.089,2.568,1.868
			c0.799,0.643,1.578,1.333,2.336,2.072c0.582,0.525,1.206,1.237,1.869,2.131c0.506,0.664,0.973,1.364,1.399,2.103v-8.673h3.737
			L1469.817,134.9L1469.817,134.9z M1476.447,135.019l-3.534,0.847l0.028-18.923h3.506V135.019L1476.447,135.019z M1495.368,134.9
			l-3.74,0.789l0.061-3.181l-2.892-4.556c-1.089-1.695-1.957-2.845-2.598-3.446c-0.391-0.391-0.878-0.818-1.46-1.285l-1.519-1.081
			l-0.061,12.819l-3.387,0.817l-0.028-19.563c0.447,0,0.788,0.01,1.023,0.03c0.23,0.02,0.592,0.083,1.079,0.19
			c0.484,0.107,1.041,0.345,1.663,0.715c0.76,0.465,1.616,1.089,2.568,1.868c0.799,0.643,1.578,1.333,2.337,2.072
			c0.586,0.525,1.207,1.237,1.869,2.131c0.506,0.664,0.973,1.364,1.401,2.103v-8.673h3.736L1495.368,134.9L1495.368,134.9z
			 M1516.188,116.942l-3.595,3.388l-7.181,0.117c-1.188,0-2.218,0.556-3.096,1.666c-0.431,0.563-0.748,1.166-0.965,1.811
			c-0.214,0.643-0.318,1.362-0.318,2.161c0,1.538,0.424,2.846,1.269,3.928c0.848,1.077,1.884,1.619,3.11,1.619h6.13v-4.323h-4.585
			c-0.563,0-1.479,0.09-2.744,0.265c-0.077,0-0.199,0.011-0.363,0.029c-0.166,0.021-0.347,0.06-0.539,0.115l3.765-3.912h7.972
			l-0.059,11.328h-9.577c-2.202,0-4.11-0.884-5.739-2.657c-1.624-1.771-2.438-3.9-2.438-6.392c0-2.512,0.794-4.663,2.38-6.455
			c1.586-1.79,3.521-2.688,5.797-2.688H1516.188L1516.188,116.942L1516.188,116.942L1516.188,116.942z M1535.723,135.133h-20.731
			l3.504-3.502h13.692c-0.113-1.109-0.798-2.071-2.043-2.891c-0.975-0.621-2.315-1.157-4.03-1.606c-3.58-0.877-6.11-1.86-7.59-2.949
			c-1.248-0.896-1.868-1.896-1.868-3.008c0-1.148,0.38-2.14,1.139-2.979c0.759-0.838,1.692-1.255,2.802-1.255h14.279l-3.502,3.357
			l-8.002,0.118h-0.788h-0.729c-0.565,0-0.99,0.06-1.271,0.176c-0.28,0.116-0.422,0.358-0.422,0.728c0,0.177,0.412,0.43,1.24,0.761
			c0.828,0.33,2.449,0.837,4.862,1.518c2.841,0.759,5.043,1.725,6.599,2.894c1.907,1.459,2.862,3.316,2.862,5.576L1535.723,135.133
			L1535.723,135.133z"/>
	</g>
	<g id="Sanitt_x5F_2_1_">
		<polygon id="main1_2_" fill="#42955B" points="1007.485,468.557 1021.338,468.557 1014.773,475.238 998.006,475.238 
			998.006,383.004 1014.289,383.004 1020.973,389.565 1007.485,389.565 		"/>
		<path id="main2_3_" fill="#42955B" d="M1027.726,459.37l-2.178-5.86c0.854,0.326,1.704,0.563,2.576,0.726
			c0.871,0.165,1.741,0.237,2.631,0.237c4.825,0,8.4-1.563,10.741-4.685c2.341-3.118,3.501-7.894,3.501-14.35
			c0-2.65-0.035-5.698-0.107-9.146c-0.073-3.429-0.109-5.533-0.109-6.313c0-10.887,2.306-19.27,6.913-25.146
			c4.607-5.88,11.158-8.818,19.668-8.818c2.378,0,4.664,0.27,6.859,0.797c2.195,0.526,4.409,1.342,6.641,2.449l2.179,5.462
			c-1.145-0.218-2.231-0.38-3.267-0.507c-1.053-0.127-2.031-0.183-2.957-0.183c-4.809,0-8.274,1.777-10.36,5.314
			c-2.086,3.538-3.14,9.472-3.14,17.818c0,0.381,0.021,1.704,0.057,3.973c0.036,2.27,0.054,4.355,0.054,6.225
			c0,6.17-0.417,11.016-1.235,14.531c-0.796,3.539-2.14,6.535-3.972,9.02c-2.667,3.503-5.861,6.152-9.599,7.947
			c-3.738,1.795-7.983,2.688-12.721,2.688c-2.448,0-4.662-0.185-6.64-0.528C1031.264,460.657,1029.43,460.113,1027.726,459.37
			L1027.726,459.37z"/>
		<path id="main3_3_" fill="#42955B" d="M1100.334,398.03c-9.183,7.495-16.536,16.985-22.14,28.329
			c-5.738,11.545-8.566,22.943-8.566,34.91h16.609c0-3.324,0.641-7.646,1.921-12.299h20.4v12.299h17.618v-74.075
			C1117.867,387.194,1109.178,390.805,1100.334,398.03z M1108.561,437.004h-16.452c4.997-10.972,10.469-18.384,16.452-21.759
			V437.004z"/>
		<path id="main4_3_" fill="#42955B" d="M1188.503,461.122h-17.722c0-12.49-4.56-25.991-13.672-40.51
			c-2.904-4.59-4.524-6.885-4.862-6.885v47.395h-17.62v-73.117h17.62c4.255,0,10.129,5.702,17.622,17.111
			c0.742,1.082,2.023,3.107,3.849,6.079v-23.191h14.786L1188.503,461.122L1188.503,461.122z"/>
		<polygon id="main5_2_" fill="#42955B" points="1201.813,468.557 1215.664,468.557 1215.664,389.323 1202.42,389.323 
			1208.857,382.762 1225.021,382.762 1225.021,475.118 1208.131,475.118 		"/>
		<polygon id="main6_2_" fill="#42955B" points="1256.021,461.108 1240.78,461.108 1240.78,398.477 1256.021,398.477 		"/>
		<polygon id="main7_2_" fill="#42955B" points="1306.01,410.233 1290.688,410.233 1290.688,461.108 1275.623,461.108 
			1275.623,410.233 1259.611,410.233 1259.611,398.956 1306.01,398.956 		"/>
		<polygon id="main8_2_" fill="#42955B" points="1356.708,410.233 1341.388,410.233 1341.388,461.108 1326.324,461.108 
			1326.324,410.233 1310.311,410.233 1310.311,398.956 1356.708,398.956 		"/>
		<polygon id="main9_2_" fill="#42955B" points="1378.792,468.557 1392.646,468.557 1386.083,475.238 1369.313,475.238 
			1369.313,383.004 1385.596,383.004 1392.279,389.565 1378.792,389.565 		"/>
		<path id="sub1_2_" fill="#42955B" d="M1394.582,416.846l-3.532,0.848l0.026-18.924h3.506V416.846L1394.582,416.846z
			 M1412.919,417.021l-3.737,0.789l0.061-3.184l-2.891-4.558c-1.09-1.692-1.957-2.84-2.599-3.443
			c-0.39-0.389-0.877-0.818-1.462-1.285l-1.516-1.079l-0.062,12.815l-3.387,0.819l-0.029-19.563c0.449,0,0.789,0.01,1.021,0.027
			c0.232,0.021,0.597,0.084,1.084,0.191c0.484,0.106,1.037,0.345,1.662,0.715c0.76,0.467,1.615,1.089,2.569,1.867
			c0.797,0.645,1.576,1.334,2.336,2.074c0.585,0.524,1.204,1.235,1.868,2.131c0.505,0.662,0.973,1.362,1.401,2.102v-8.673h3.736
			L1412.919,417.021L1412.919,417.021z M1419.694,405.866h9.168l-3.68,3.503h-5.43l-0.059,7.477l-3.505,0.877V398.77h16.089
			l-3.699,3.505h-8.885V405.866L1419.694,405.866z M1450.355,407.909c0,2.474-0.834,4.6-2.496,6.38
			c-1.666,1.78-3.654,2.672-5.974,2.672h-3.15c-2.337,0-4.333-0.887-5.988-2.656c-1.653-1.771-2.482-3.903-2.482-6.396
			c0-2.512,0.834-4.659,2.497-6.455c1.665-1.788,3.656-2.686,5.975-2.686h3.151c2.336,0,4.329,0.887,5.986,2.656
			C1449.527,403.198,1450.355,405.361,1450.355,407.909L1450.355,407.909z M1446.561,407.909c0-1.559-0.447-2.886-1.345-3.983
			c-0.896-1.104-2.006-1.652-3.329-1.652h-3.15c-1.268,0-2.369,0.557-3.303,1.666c-0.445,0.545-0.788,1.146-1.021,1.81
			c-0.234,0.661-0.351,1.383-0.351,2.161c0,1.518,0.456,2.82,1.371,3.912c0.916,1.09,2.016,1.637,3.303,1.637h3.15
			c1.282,0,2.387-0.547,3.301-1.637C1446.102,410.732,1446.561,409.428,1446.561,407.909L1446.561,407.909z M1469.771,416.729
			l-3.826,0.848l0.147-1.051l0.176-1.313c0-1.945-0.896-3.595-2.688-4.935c-1.791-1.345-4.078-2.016-6.863-2.016l5.14-5.11
			l0.117-0.232c0-0.176-0.236-0.353-0.714-0.524c-0.479-0.177-0.95-0.265-1.418-0.265h-4.027l-0.06,14.684l-3.826,0.765
			l0.029-18.949h7.944c1.671,0,3.077,0.34,4.217,1.021s1.709,1.488,1.709,2.425c0,0.467-0.201,0.981-0.613,1.544l-0.789,0.85
			l-1.4,1.313c2.198,0.954,3.854,2.249,4.965,3.886c0.564,0.895,1.004,1.938,1.312,3.123
			C1469.619,413.975,1469.771,415.286,1469.771,416.729L1469.771,416.729z M1496.314,416.963l-3.59,0.962l-3.797-10.924
			l-5.526,11.261l-5.416-11.181l-3.568,9.938l-4.028,0.614l7.125-19.506l5.897,12.177l6.017-12.177L1496.314,416.963
			L1496.314,416.963z M1505.689,410.597l-3.184,5.169c-0.058,0.174-0.136,0.351-0.23,0.527c-0.099,0.173-0.215,0.366-0.354,0.582
			l-0.231,0.321l-4.848,1.371l11.973-19.914l11.213,18.396l-3.708,1.344l-0.469-0.992l-0.643-1.462l-3.327-5.343H1505.689
			L1505.689,410.597L1505.689,410.597z M1507.823,407.092h1.954l-0.963-1.605L1507.823,407.092L1507.823,407.092z M1536.497,398.77
			l-3.621,3.504h-5.694l-0.059,14.571l-3.532,0.992l0.087-15.563h-8.146l3.386-3.504H1536.497L1536.497,398.77z M1541.871,416.846
			l-3.532,0.848l0.027-18.924h3.505V416.846L1541.871,416.846z M1563.625,407.909c0,2.474-0.833,4.6-2.498,6.38
			c-1.664,1.78-3.654,2.672-5.971,2.672h-3.153c-2.336,0-4.329-0.887-5.985-2.656c-1.656-1.771-2.484-3.903-2.484-6.396
			c0-2.512,0.833-4.659,2.499-6.455c1.663-1.788,3.654-2.686,5.972-2.686h3.153c2.335,0,4.331,0.887,5.987,2.656
			C1562.797,403.198,1563.625,405.361,1563.625,407.909L1563.625,407.909z M1559.828,407.909c0-1.559-0.449-2.886-1.342-3.983
			c-0.896-1.104-2.006-1.652-3.33-1.652h-3.153c-1.267,0-2.365,0.557-3.3,1.666c-0.448,0.545-0.789,1.146-1.021,1.81
			c-0.234,0.661-0.351,1.383-0.351,2.161c0,1.518,0.455,2.82,1.371,3.912c0.913,1.09,2.014,1.637,3.3,1.637h3.153
			c1.282,0,2.384-0.547,3.3-1.637C1559.37,410.732,1559.828,409.428,1559.828,407.909L1559.828,407.909z M1580.795,417.021
			l-3.739,0.789l0.061-3.184l-2.89-4.558c-1.09-1.692-1.957-2.84-2.599-3.443c-0.389-0.389-0.876-0.818-1.462-1.285l-1.518-1.079
			l-0.058,12.815l-3.388,0.819l-0.029-19.563c0.449,0,0.786,0.01,1.022,0.027c0.23,0.021,0.592,0.084,1.079,0.191
			c0.486,0.106,1.041,0.345,1.664,0.715c0.761,0.467,1.617,1.089,2.569,1.867c0.796,0.645,1.579,1.334,2.337,2.074
			c0.583,0.524,1.205,1.235,1.866,2.131c0.506,0.662,0.976,1.362,1.403,2.102v-8.673h3.737L1580.795,417.021L1580.795,417.021z"/>
		<path id="sub2_2_" fill="#42955B" d="M1403.895,420.302l-3.62,3.503h-5.694l-0.061,14.571l-3.532,0.991l0.088-15.563h-8.147
			l3.388-3.503H1403.895L1403.895,420.302z M1406.057,427.25h13.779l-3.912,3.971l-9.896-0.088c0.29,1.053,0.813,1.946,1.573,2.687
			c0.778,0.682,1.646,1.024,2.6,1.024h8.03c0.681,0,1.509-0.102,2.48-0.295l1.345-0.32l-3.826,4.117h-8.818
			c-2.063,0-3.818-0.926-5.27-2.775c-1.451-1.849-2.178-4.088-2.178-6.715c0-2.355,0.736-4.395,2.207-6.118
			c1.47-1.722,3.216-2.583,5.239-2.583h12.41l-3.62,3.445h-8.001c-0.914,0-1.747,0.33-2.496,0.992
			C1406.955,425.257,1406.406,426.141,1406.057,427.25L1406.057,427.25z M1442.701,420.302l-4.206,3.417l-1.925,0.086h-5.782
			c-1.186,0-2.219,0.556-3.095,1.666c-0.432,0.563-0.748,1.168-0.965,1.809c-0.214,0.644-0.32,1.362-0.32,2.162
			c0,1.538,0.424,2.846,1.269,3.928c0.849,1.078,1.884,1.619,3.11,1.619h7.534c0.993,0,2.159-0.088,3.505-0.262
			c0.291,0,0.592-0.049,0.902-0.146l-3.911,3.912h-8.907c-1.984,0-3.698-0.894-5.139-2.684c-1.44-1.791-2.16-3.945-2.16-6.455
			c0-2.531,0.714-4.672,2.145-6.423c1.434-1.752,3.15-2.628,5.154-2.628L1442.701,420.302L1442.701,420.302L1442.701,420.302z
			 M1449.271,429.674l1.109-2.656h7.213l0.061-6.863h3.678v18.428l-3.797,0.643l0.118-8.702h-8.382v7.998l-3.971,0.85l0.029-19.214
			h3.94L1449.271,429.674L1449.271,429.674z M1479.729,438.553l-3.735,0.789l0.056-3.186l-2.89-4.556
			c-1.09-1.695-1.958-2.844-2.599-3.445c-0.391-0.389-0.875-0.816-1.461-1.285l-1.518-1.081l-0.061,12.819l-3.387,0.818
			l-0.025-19.564c0.443,0,0.783,0.01,1.02,0.029c0.233,0.021,0.593,0.082,1.081,0.188c0.484,0.108,1.041,0.348,1.663,0.719
			c0.759,0.465,1.615,1.088,2.568,1.864c0.799,0.646,1.576,1.336,2.336,2.074c0.587,0.525,1.208,1.236,1.869,2.132
			c0.506,0.661,0.973,1.363,1.4,2.104V420.3h3.738L1479.729,438.553L1479.729,438.553z M1501.396,429.441
			c0,2.471-0.834,4.601-2.5,6.38c-1.662,1.78-3.654,2.669-5.97,2.669h-3.153c-2.337,0-4.33-0.884-5.985-2.653
			c-1.655-1.773-2.484-3.904-2.484-6.396c0-2.512,0.832-4.662,2.498-6.453c1.663-1.793,3.654-2.687,5.973-2.687h3.153
			c2.334,0,4.328,0.884,5.984,2.656C1500.568,424.729,1501.396,426.891,1501.396,429.441L1501.396,429.441z M1497.6,429.441
			c0-1.559-0.448-2.887-1.343-3.986c-0.896-1.1-2.006-1.649-3.329-1.649h-3.154c-1.268,0-2.365,0.555-3.299,1.665
			c-0.448,0.547-0.787,1.147-1.023,1.81c-0.232,0.663-0.349,1.383-0.349,2.162c0,1.52,0.455,2.821,1.372,3.912
			c0.912,1.09,2.014,1.636,3.299,1.636h3.154c1.283,0,2.384-0.546,3.299-1.636C1497.142,432.263,1497.6,430.96,1497.6,429.441
			L1497.6,429.441z M1515.059,434.579l-3.735,3.911h-8.496l0.026-18.188h3.505l0.06,14.688h4.468c0.778,0,1.683-0.067,2.716-0.205
			L1515.059,434.579L1515.059,434.579z M1535.559,429.441c0,2.471-0.833,4.601-2.496,6.38c-1.662,1.78-3.653,2.669-5.972,2.669
			h-3.151c-2.336,0-4.332-0.884-5.988-2.653c-1.653-1.773-2.481-3.904-2.481-6.396c0-2.512,0.833-4.662,2.499-6.453
			c1.663-1.793,3.654-2.687,5.971-2.687h3.152c2.337,0,4.33,0.884,5.985,2.656C1534.732,424.729,1535.559,426.891,1535.559,429.441
			L1535.559,429.441z M1531.765,429.441c0-1.559-0.448-2.887-1.346-3.986c-0.896-1.1-2.006-1.649-3.328-1.649h-3.152
			c-1.267,0-2.365,0.555-3.301,1.665c-0.445,0.547-0.788,1.147-1.021,1.81c-0.234,0.663-0.351,1.383-0.351,2.162
			c0,1.52,0.457,2.821,1.371,3.912c0.915,1.09,2.016,1.636,3.302,1.636h3.152c1.285,0,2.382-0.546,3.298-1.636
			C1531.307,432.263,1531.765,430.96,1531.765,429.441L1531.765,429.441z M1556.175,420.302l-3.595,3.388l-7.182,0.115
			c-1.189,0-2.219,0.555-3.097,1.665c-0.43,0.563-0.75,1.169-0.964,1.81c-0.215,0.644-0.317,1.362-0.317,2.162
			c0,1.538,0.422,2.846,1.268,3.928c0.849,1.078,1.884,1.619,3.11,1.619h6.131v-4.322h-4.585c-0.563,0-1.48,0.089-2.745,0.265
			c-0.076,0-0.199,0.01-0.365,0.03c-0.166,0.02-0.347,0.059-0.541,0.113l3.768-3.912h7.974l-0.061,11.328h-9.577
			c-2.201,0-4.111-0.884-5.738-2.653c-1.627-1.773-2.438-3.904-2.438-6.396c0-2.512,0.793-4.662,2.379-6.452
			c1.587-1.794,3.521-2.688,5.798-2.688H1556.175L1556.175,420.302z M1580.645,420.594l-9.604,9.605v8.234l-3.564,0.759l0.061-8.906
			l-9.694-9.693h5.124l6.291,6.396l6.41-6.396L1580.645,420.594L1580.645,420.594z"/>
		<path id="sub3_2_" fill="#42955B" d="M1403.939,441.941l-3.621,3.505h-5.693l-0.058,14.571l-3.534,0.992l0.088-15.563h-8.146
			l3.388-3.505H1403.939L1403.939,441.941z M1422.014,459.9l-3.821,0.848l0.144-1.05l0.176-1.314c0-1.945-0.896-3.593-2.687-4.935
			c-1.791-1.344-4.078-2.016-6.862-2.016l5.138-5.111l0.12-0.231c0-0.177-0.24-0.351-0.718-0.526
			c-0.476-0.173-0.948-0.263-1.416-0.263h-4.028l-0.061,14.685l-3.825,0.765l0.029-18.95h7.944c1.675,0,3.08,0.341,4.219,1.021
			c1.139,0.683,1.708,1.488,1.708,2.425c0,0.466-0.203,0.982-0.613,1.544l-0.788,0.85l-1.4,1.314
			c2.195,0.953,3.854,2.246,4.963,3.883c0.564,0.896,1.005,1.938,1.314,3.126C1421.859,457.145,1422.014,458.46,1422.014,459.9
			L1422.014,459.9z M1431.068,453.768l-3.185,5.171c-0.059,0.173-0.137,0.351-0.231,0.527c-0.099,0.173-0.215,0.365-0.352,0.583
			l-0.234,0.319l-4.849,1.375l11.974-19.916l11.213,18.396l-3.708,1.343l-0.468-0.994l-0.644-1.46l-3.329-5.345H1431.068
			L1431.068,453.768z M1433.199,450.266h1.959l-0.966-1.607L1433.199,450.266L1433.199,450.266z M1450.313,460.019l-3.533,0.847
			l0.028-18.923h3.505V460.019L1450.313,460.019z M1469.817,459.9l-3.738,0.789l0.059-3.182l-2.888-4.557
			c-1.092-1.694-1.959-2.844-2.6-3.445c-0.391-0.391-0.877-0.817-1.463-1.285l-1.518-1.08l-0.057,12.819l-3.387,0.816l-0.03-19.563
			c0.444,0,0.786,0.01,1.021,0.029c0.231,0.021,0.596,0.083,1.08,0.19c0.488,0.106,1.041,0.346,1.666,0.715
			c0.759,0.466,1.615,1.09,2.568,1.869c0.799,0.642,1.578,1.332,2.336,2.071c0.582,0.525,1.206,1.236,1.869,2.132
			c0.506,0.663,0.973,1.362,1.399,2.103v-8.673h3.737L1469.817,459.9L1469.817,459.9z M1476.447,460.019l-3.534,0.847l0.028-18.923
			h3.506V460.019L1476.447,460.019z M1495.368,459.9l-3.74,0.789l0.061-3.182l-2.892-4.557c-1.089-1.694-1.957-2.844-2.598-3.445
			c-0.391-0.391-0.878-0.817-1.46-1.285l-1.519-1.08l-0.061,12.819l-3.387,0.816l-0.028-19.563c0.447,0,0.788,0.01,1.023,0.029
			c0.23,0.021,0.592,0.083,1.079,0.19c0.484,0.106,1.041,0.346,1.663,0.715c0.76,0.466,1.616,1.09,2.568,1.869
			c0.799,0.642,1.578,1.332,2.337,2.071c0.586,0.525,1.207,1.236,1.869,2.132c0.506,0.663,0.973,1.362,1.401,2.103v-8.673h3.736
			L1495.368,459.9L1495.368,459.9z M1516.188,441.941l-3.595,3.387l-7.181,0.118c-1.188,0-2.218,0.557-3.096,1.665
			c-0.431,0.563-0.748,1.166-0.965,1.812c-0.214,0.643-0.318,1.36-0.318,2.16c0,1.537,0.424,2.846,1.269,3.928
			c0.848,1.077,1.884,1.619,3.11,1.619h6.13v-4.323h-4.585c-0.563,0-1.479,0.09-2.744,0.265c-0.077,0-0.199,0.01-0.363,0.029
			c-0.166,0.021-0.347,0.059-0.539,0.115l3.765-3.912h7.972l-0.059,11.328h-9.577c-2.202,0-4.11-0.885-5.739-2.657
			c-1.624-1.771-2.438-3.901-2.438-6.392c0-2.513,0.794-4.663,2.38-6.455c1.586-1.79,3.521-2.688,5.797-2.688L1516.188,441.941
			L1516.188,441.941L1516.188,441.941L1516.188,441.941z M1535.723,460.133h-20.731l3.504-3.502h13.692
			c-0.113-1.109-0.798-2.071-2.043-2.891c-0.975-0.622-2.315-1.158-4.03-1.605c-3.58-0.878-6.11-1.86-7.59-2.949
			c-1.248-0.896-1.868-1.898-1.868-3.009c0-1.147,0.38-2.141,1.139-2.979s1.692-1.256,2.802-1.256h14.279l-3.502,3.357l-8.002,0.118
			h-0.788h-0.729c-0.565,0-0.99,0.06-1.271,0.176c-0.28,0.115-0.422,0.357-0.422,0.728c0,0.176,0.412,0.429,1.24,0.76
			c0.828,0.33,2.449,0.839,4.862,1.519c2.841,0.759,5.043,1.725,6.599,2.893c1.907,1.459,2.862,3.317,2.862,5.576L1535.723,460.133
			L1535.723,460.133z"/>
	</g>
</g>
</svg>
