<?xml version="1.0" encoding="utf-8"?>
<!-- Generator: Adobe Illustrator 15.1.0, SVG Export Plug-In . SVG Version: 6.00 Build 0)  -->
<!DOCTYPE svg PUBLIC "-//W3C//DTD SVG 1.1//EN" "http://www.w3.org/Graphics/SVG/1.1/DTD/svg11.dtd">
<svg version="1.1" id="Ebene_1" xmlns="http://www.w3.org/2000/svg" xmlns:xlink="http://www.w3.org/1999/xlink" x="0px" y="0px"
	 width="1580.855px" height="530px" viewBox="0 0 1580.855 530" style="enable-background:new 0 0 1580.855 530;"
	 xml:space="preserve">
<style type="text/css">
<![CDATA[
	.st0{fill:#B3B3B3;}
	.st1{fill:#FFFFFF;}
	.st2{display:inline;fill:#404040;}
	.st3{display:none;}
	.st4{fill:#42955B;}
	.st5{fill:#454545;}
]]>
</style>
<g>
	<rect x="378" y="0" class="st1" width="619" height="530"/>
</g>
<g>
	<rect x="378" y="0" class="st1" width="619" height="530"/>
</g>
<g>
	<rect x="378" y="0" class="st1" width="619" height="530"/>
</g>
<g>
	<rect x="380" y="0" class="st1" width="619" height="530"/>
</g>
<g id="Content">
	<g id="arrow_x5F_group" class="st3">
		<polygon class="st2" points="1248.807,284 1226.402,322.806 1203.997,284 		"/>
		<path class="st2" d="M1220.402,291L1220.402,291c0,0-6.402-92-131.976-92C1056,199,439,199,439,199l0,0v-12l0,0
			c0,0,613.855,0,649.428,0c137.976,0,143.976,104,143.976,104l0,0H1220.402z"/>
	</g>
	<polygon id="arrow_x5F_right_x5F_top" class="st0" points="973.806,103 935,80.595 935,97 437,97 437,109 935,109 935,125.405 	"/>
	<polygon id="arrow_x5F_left_x5F_top" class="st0" points="401.194,103 440,80.595 440,97 938,97 938,109 440,109 440,125.405 	"/>
	<polygon id="arrow_x5F_right_x5F_bottom" class="st0" points="973.806,430 935,407.596 935,424 437,424 437,436 935,436 
		935,452.405 	"/>
	<polygon id="arrow_x5F_left_x5F_bottom" class="st0" points="401.194,430 440,407.596 440,424 938,424 938,436 440,436 
		440,452.405 	"/>
	<g id="card_x5F_1">
		<path id="box1" class="st4" d="M386,176.161C386,194.85,371.03,210,351.972,210H34.508C15.449,210,0,194.85,0,176.161V33.839
			C0,15.15,15.449,0,34.508,0h317.464C371.03,0,386,15.15,386,33.839V176.161z"/>
		<g id="text_x5F_Kunde">
			<path class="st1" d="M127.998,129.655h-11.633l-12.657-20.355l-4.329,3.105v17.25H89.135V81.341h10.244v22.107l4.032-5.684
				l13.086-16.424h11.368l-16.854,21.381L127.998,129.655z"/>
			<path class="st1" d="M159.458,129.655l-1.354-4.726h-0.529c-1.079,1.718-2.61,3.046-4.594,3.982
				c-1.982,0.936-4.241,1.404-6.774,1.404c-4.34,0-7.611-1.162-9.814-3.486c-2.203-2.324-3.305-5.667-3.305-10.029V92.709h10.079
				v21.579c0,2.666,0.474,4.666,1.421,5.998c0.947,1.333,2.456,2,4.527,2c2.82,0,4.858-0.942,6.114-2.826
				c1.255-1.884,1.883-5.006,1.883-9.369V92.709h10.079v36.945H159.458z"/>
			<path class="st1" d="M211.87,129.655h-10.08v-21.578c0-2.666-0.474-4.665-1.421-5.998c-0.947-1.333-2.456-2-4.527-2
				c-2.82,0-4.857,0.941-6.113,2.825s-1.884,5.007-1.884,9.369v17.382h-10.079V92.709h7.7l1.354,4.726h0.562
				c1.124-1.785,2.672-3.134,4.644-4.048s4.213-1.372,6.725-1.372c4.296,0,7.557,1.163,9.782,3.487
				c2.225,2.324,3.338,5.679,3.338,10.063L211.87,129.655L211.87,129.655z"/>
			<path class="st1" d="M233.944,130.316c-4.34,0-7.749-1.686-10.228-5.056c-2.479-3.371-3.718-8.042-3.718-14.012
				c0-6.06,1.261-10.778,3.784-14.161c2.522-3.381,5.998-5.073,10.426-5.073c4.648,0,8.195,1.807,10.641,5.42h0.331
				c-0.507-2.754-0.761-5.21-0.761-7.37v-11.83h10.112v51.42H246.8l-1.95-4.792h-0.43
				C242.129,128.498,238.638,130.316,233.944,130.316z M237.48,122.286c2.578,0,4.467-0.749,5.668-2.248
				c1.2-1.498,1.855-4.042,1.966-7.635v-1.09c0-3.965-0.611-6.808-1.834-8.525c-1.223-1.719-3.211-2.578-5.965-2.578
				c-2.247,0-3.993,0.953-5.238,2.857c-1.244,1.906-1.867,4.677-1.867,8.312s0.628,6.361,1.884,8.179
				C233.35,121.375,235.146,122.286,237.48,122.286z"/>
			<path class="st1" d="M281.796,130.316c-5.948,0-10.597-1.641-13.945-4.924c-3.35-3.282-5.023-7.931-5.023-13.945
				c0-6.189,1.548-10.977,4.643-14.358c3.096-3.381,7.375-5.073,12.839-5.073c5.222,0,9.286,1.487,12.194,4.461
				c2.908,2.975,4.362,7.083,4.362,12.326v4.891h-23.827c0.11,2.864,0.959,5.102,2.545,6.708c1.586,1.608,3.812,2.412,6.676,2.412
				c2.225,0,4.329-0.23,6.313-0.693c1.981-0.463,4.054-1.2,6.213-2.215v7.8c-1.763,0.881-3.646,1.537-5.651,1.966
				C287.129,130.099,284.682,130.316,281.796,130.316z M280.375,99.186c-2.138,0-3.812,0.677-5.023,2.032
				c-1.211,1.354-1.905,3.277-2.082,5.767h14.145c-0.045-2.488-0.694-4.412-1.95-5.767
				C284.209,99.863,282.512,99.186,280.375,99.186z"/>
		</g>
	</g>
	<g id="card_x5F_2">
		<path id="box2" class="st4" d="M386,496.181C386,514.858,371.059,530,352.012,530H34.507C15.46,530,0,514.858,0,496.181V354.819
			C0,336.142,15.46,321,34.507,321h317.505C371.059,321,386,336.142,386,354.819V496.181z"/>
		<g id="text_x5F_IT-Spezialist">
			<path class="st1" d="M35.461,444.971v-38.629h8.19v38.629H35.461z"/>
			<path class="st1" d="M68.276,444.971h-8.19v-31.813H49.597v-6.816h29.17v6.816h-10.49L68.276,444.971L68.276,444.971z"/>
			<path class="st1" d="M81.461,433.768v-6.605h14.188v6.605H81.461z"/>
			<path class="st1" d="M124.925,434.242c0,3.488-1.256,6.236-3.766,8.244c-2.51,2.008-6.002,3.012-10.476,3.012
				c-4.122,0-7.769-0.773-10.939-2.324v-7.609c2.607,1.163,4.813,1.981,6.619,2.457c1.806,0.476,3.457,0.714,4.954,0.714
				c1.797,0,3.175-0.344,4.135-1.03c0.96-0.688,1.44-1.709,1.44-3.064c0-0.757-0.212-1.432-0.635-2.021
				c-0.423-0.59-1.043-1.156-1.862-1.704c-0.819-0.546-2.488-1.417-5.007-2.614c-2.36-1.11-4.131-2.177-5.311-3.197
				c-1.181-1.021-2.123-2.21-2.827-3.566c-0.705-1.355-1.058-2.941-1.058-4.756c0-3.418,1.158-6.104,3.475-8.059
				c2.316-1.956,5.518-2.935,9.604-2.935c2.008,0,3.924,0.238,5.747,0.715c1.823,0.476,3.729,1.146,5.72,2.008l-2.642,6.368
				c-2.062-0.847-3.766-1.437-5.113-1.771c-1.347-0.335-2.673-0.502-3.977-0.502c-1.55,0-2.738,0.361-3.566,1.083
				c-0.828,0.723-1.242,1.665-1.242,2.827c0,0.723,0.168,1.352,0.502,1.889c0.335,0.538,0.868,1.059,1.599,1.561
				c0.731,0.502,2.462,1.403,5.192,2.708c3.61,1.727,6.085,3.457,7.424,5.19C124.255,429.598,124.925,431.725,124.925,434.242z"/>
			<path class="st1" d="M147.515,445.498c-3.47,0-6.191-1.259-8.164-3.777h-0.423c0.282,2.467,0.423,3.893,0.423,4.279v11.97h-8.059
				v-42.538h6.553l1.136,3.831h0.37c1.885-2.924,4.677-4.386,8.376-4.386c3.487,0,6.218,1.347,8.19,4.042
				c1.972,2.694,2.959,6.438,2.959,11.229c0,3.153-0.462,5.892-1.387,8.217c-0.925,2.325-2.242,4.097-3.95,5.312
				C151.83,444.892,149.822,445.498,147.515,445.498z M145.137,421.323c-1.99,0-3.443,0.612-4.359,1.836
				c-0.916,1.226-1.392,3.246-1.427,6.064v0.872c0,3.17,0.472,5.441,1.414,6.815c0.941,1.374,2.435,2.062,4.479,2.062
				c3.61,0,5.416-2.978,5.416-8.93c0-2.907-0.445-5.088-1.334-6.54C148.436,422.05,147.039,421.323,145.137,421.323z"/>
			<path class="st1" d="M178.904,445.498c-4.756,0-8.473-1.312-11.15-3.937c-2.677-2.625-4.016-6.342-4.016-11.15
				c0-4.948,1.237-8.774,3.712-11.479c2.475-2.704,5.896-4.056,10.265-4.056c4.175,0,7.425,1.188,9.75,3.565
				c2.325,2.378,3.487,5.663,3.487,9.855v3.909h-19.05c0.088,2.29,0.767,4.078,2.034,5.363c1.269,1.286,3.048,1.93,5.338,1.93
				c1.778,0,3.461-0.186,5.046-0.556c1.586-0.369,3.241-0.96,4.968-1.77v6.234c-1.409,0.704-2.916,1.229-4.519,1.572
				C183.167,445.326,181.212,445.498,178.904,445.498z M177.768,420.61c-1.708,0-3.047,0.541-4.016,1.625
				c-0.969,1.083-1.523,2.62-1.665,4.61h11.309c-0.035-1.99-0.555-3.527-1.559-4.61C180.833,421.151,179.477,420.61,177.768,420.61z
				"/>
			<path class="st1" d="M218.061,444.971h-23.33v-4.756l13.687-18.627H195.55v-6.156h22.035v5.23l-13.316,18.151h13.792V444.971z"/>
			<path class="st1" d="M223.557,407.796c0-2.625,1.462-3.938,4.386-3.938c2.924,0,4.386,1.313,4.386,3.938
				c0,1.25-0.365,2.224-1.096,2.919s-1.828,1.044-3.29,1.044C225.019,411.759,223.557,410.438,223.557,407.796z M231.959,444.971
				H223.9v-29.539h8.059V444.971z"/>
			<path class="st1" d="M259.173,444.971l-1.56-4.017h-0.211c-1.356,1.708-2.752,2.894-4.188,3.555
				c-1.437,0.66-3.308,0.989-5.615,0.989c-2.836,0-5.068-0.81-6.697-2.431c-1.63-1.62-2.444-3.928-2.444-6.923
				c0-3.135,1.097-5.446,3.289-6.936c2.193-1.488,5.5-2.313,9.922-2.471l5.126-0.159v-1.295c0-2.994-1.532-4.49-4.598-4.49
				c-2.36,0-5.135,0.713-8.323,2.141l-2.668-5.443c3.399-1.778,7.169-2.669,11.309-2.669c3.963,0,7.001,0.863,9.115,2.59
				c2.113,1.728,3.171,4.352,3.171,7.873v19.686H259.173L259.173,444.971z M256.795,431.283l-3.118,0.105
				c-2.343,0.071-4.087,0.494-5.23,1.269c-1.146,0.775-1.718,1.955-1.718,3.54c0,2.272,1.304,3.409,3.911,3.409
				c1.866,0,3.359-0.537,4.479-1.612c1.118-1.073,1.678-2.501,1.678-4.279L256.795,431.283L256.795,431.283z"/>
			<path class="st1" d="M281.155,444.971h-8.059v-41.112h8.059V444.971z"/>
			<path class="st1" d="M289.267,407.796c0-2.625,1.462-3.938,4.387-3.938c2.924,0,4.386,1.313,4.386,3.938
				c0,1.25-0.366,2.224-1.097,2.919s-1.827,1.044-3.289,1.044C290.729,411.759,289.267,410.438,289.267,407.796z M297.669,444.971
				h-8.059v-29.539h8.059V444.971z"/>
			<path class="st1" d="M326.733,436.198c0,3.03-1.053,5.338-3.158,6.923c-2.104,1.585-5.253,2.378-9.445,2.378
				c-2.149,0-3.98-0.146-5.496-0.436c-1.515-0.291-2.933-0.718-4.254-1.282v-6.658c1.497,0.705,3.185,1.296,5.061,1.771
				s3.527,0.714,4.954,0.714c2.924,0,4.386-0.846,4.386-2.537c0-0.634-0.194-1.148-0.581-1.545
				c-0.388-0.396-1.058-0.846-2.009-1.348c-0.951-0.502-2.219-1.088-3.805-1.757c-2.271-0.951-3.941-1.832-5.007-2.644
				c-1.065-0.81-1.841-1.739-2.325-2.787c-0.484-1.048-0.727-2.339-0.727-3.871c0-2.625,1.018-4.653,3.052-6.09
				c2.035-1.436,4.919-2.152,8.653-2.152c3.558,0,7.02,0.773,10.384,2.323l-2.431,5.813c-1.479-0.635-2.862-1.153-4.148-1.561
				c-1.286-0.403-2.599-0.606-3.937-0.606c-2.378,0-3.567,0.644-3.567,1.929c0,0.723,0.384,1.348,1.149,1.876
				c0.767,0.528,2.444,1.313,5.033,2.353c2.308,0.934,3.999,1.806,5.073,2.615c1.074,0.811,1.867,1.743,2.378,2.802
				C326.478,433.478,326.733,434.737,326.733,436.198z"/>
			<path class="st1" d="M345.466,439.078c1.409,0,3.1-0.309,5.073-0.925v5.997c-2.009,0.898-4.475,1.348-7.398,1.348
				c-3.224,0-5.571-0.813-7.041-2.443c-1.472-1.629-2.206-4.072-2.206-7.332v-14.241h-3.858v-3.408l4.439-2.693l2.325-6.236h5.152
				v6.289h8.27v6.05h-8.27v14.241c0,1.146,0.32,1.991,0.964,2.537C343.559,438.806,344.409,439.078,345.466,439.078z"/>
		</g>
	</g>
	<g id="text_x5F_upper">
		<g>
			<path class="st5" d="M511.668,55.232h3.664L504.781,84.5h-3.363l-10.49-29.269h3.604l6.727,18.938
				c0.774,2.176,1.388,4.291,1.842,6.346c0.48-2.162,1.107-4.317,1.882-6.466L511.668,55.232z"/>
			<path class="st5" d="M528.124,84.901c-3.243,0-5.803-0.987-7.678-2.963c-1.875-1.975-2.813-4.718-2.813-8.228
				c0-3.537,0.871-6.346,2.612-8.428c1.742-2.082,4.081-3.123,7.017-3.123c2.749,0,4.925,0.904,6.526,2.713s2.402,4.194,2.402,7.157
				v2.102h-15.115c0.066,2.576,0.717,4.531,1.952,5.866c1.234,1.335,2.973,2.002,5.215,2.002c2.362,0,4.698-0.494,7.007-1.481v2.963
				c-1.175,0.507-2.286,0.871-3.333,1.091C530.87,84.79,529.605,84.901,528.124,84.901z M527.223,64.941
				c-1.762,0-3.167,0.574-4.214,1.722c-1.048,1.148-1.665,2.736-1.852,4.765h11.471c0-2.095-0.467-3.7-1.401-4.815
				C530.292,65.499,528.958,64.941,527.223,64.941z"/>
			<path class="st5" d="M551.867,62.158c0.974,0,1.848,0.08,2.623,0.24l-0.46,3.083c-0.908-0.2-1.708-0.3-2.402-0.3
				c-1.775,0-3.293,0.721-4.555,2.162c-1.261,1.441-1.892,3.237-1.892,5.385V84.5h-3.323V62.559h2.743l0.38,4.064h0.16
				c0.814-1.428,1.795-2.529,2.943-3.303C549.231,62.546,550.492,62.158,551.867,62.158z"/>
			<path class="st5" d="M586.561,84.5V70.226c0-1.748-0.374-3.06-1.121-3.934c-0.748-0.874-1.909-1.311-3.483-1.311
				c-2.069,0-3.597,0.594-4.584,1.782c-0.988,1.188-1.481,3.017-1.481,5.485V84.5h-3.323V70.226c0-1.748-0.374-3.06-1.121-3.934
				c-0.748-0.874-1.916-1.311-3.503-1.311c-2.082,0-3.607,0.624-4.575,1.872c-0.968,1.249-1.451,3.293-1.451,6.136V84.5h-3.323
				V62.559h2.703l0.541,3.003h0.16c0.627-1.067,1.512-1.902,2.652-2.502c1.142-0.601,2.419-0.901,3.834-0.901
				c3.43,0,5.672,1.241,6.727,3.724h0.16c0.654-1.147,1.602-2.055,2.843-2.723c1.241-0.667,2.656-1.001,4.244-1.001
				c2.482,0,4.341,0.638,5.575,1.912s1.852,3.313,1.852,6.116V84.5H586.561z"/>
			<path class="st5" d="M596.451,56.613c0-0.761,0.187-1.318,0.561-1.671c0.374-0.354,0.841-0.531,1.401-0.531
				c0.534,0,0.994,0.18,1.381,0.541c0.387,0.36,0.581,0.915,0.581,1.662c0,0.748-0.194,1.305-0.581,1.671
				c-0.387,0.368-0.848,0.551-1.381,0.551c-0.561,0-1.028-0.183-1.401-0.551C596.637,57.918,596.451,57.361,596.451,56.613z
				 M600.054,84.5h-3.323V62.559h3.323V84.5z"/>
			<path class="st5" d="M614.188,82.158c0.587,0,1.154-0.043,1.702-0.13c0.547-0.086,0.981-0.176,1.301-0.27V84.3
				c-0.36,0.174-0.891,0.317-1.591,0.431c-0.701,0.113-1.332,0.17-1.892,0.17c-4.244,0-6.366-2.235-6.366-6.707V65.141h-3.143V63.54
				l3.143-1.381l1.401-4.685h1.922v5.085h6.366v2.583h-6.366v12.913c0,1.321,0.313,2.336,0.941,3.043
				C612.232,81.804,613.093,82.158,614.188,82.158z"/>
			<path class="st5" d="M628.662,82.158c0.587,0,1.154-0.043,1.702-0.13c0.547-0.086,0.981-0.176,1.301-0.27V84.3
				c-0.36,0.174-0.891,0.317-1.592,0.431c-0.7,0.113-1.331,0.17-1.892,0.17c-4.244,0-6.366-2.235-6.366-6.707V65.141h-3.143V63.54
				l3.143-1.381l1.401-4.685h1.922v5.085h6.366v2.583h-6.366v12.913c0,1.321,0.313,2.336,0.941,3.043
				C626.707,81.804,627.567,82.158,628.662,82.158z"/>
			<path class="st5" d="M639.373,84.5h-3.323V53.35h3.323V84.5z"/>
			<path class="st5" d="M649.542,62.559v14.234c0,1.789,0.407,3.123,1.221,4.004c0.814,0.881,2.088,1.321,3.824,1.321
				c2.295,0,3.974-0.627,5.035-1.882c1.062-1.254,1.592-3.303,1.592-6.146V62.559h3.323V84.5h-2.743l-0.48-2.943h-0.18
				c-0.681,1.081-1.625,1.909-2.833,2.482s-2.586,0.861-4.134,0.861c-2.669,0-4.668-0.634-5.996-1.902
				c-1.328-1.268-1.992-3.296-1.992-6.086V62.559H649.542z"/>
			<path class="st5" d="M686.599,84.5V70.306c0-1.788-0.407-3.123-1.221-4.004c-0.814-0.881-2.089-1.321-3.824-1.321
				c-2.296,0-3.978,0.621-5.045,1.862c-1.068,1.241-1.602,3.29-1.602,6.146V84.5h-3.323V62.559h2.703l0.541,3.003h0.16
				c0.681-1.081,1.635-1.918,2.863-2.513c1.228-0.593,2.596-0.891,4.104-0.891c2.643,0,4.631,0.638,5.966,1.912
				c1.334,1.274,2.002,3.313,2.002,6.116V84.5H686.599z"/>
			<path class="st5" d="M714.706,62.559v2.102l-4.064,0.48c0.374,0.467,0.707,1.078,1.001,1.832c0.293,0.754,0.44,1.605,0.44,2.553
				c0,2.149-0.734,3.864-2.202,5.145c-1.468,1.281-3.483,1.922-6.046,1.922c-0.654,0-1.268-0.053-1.842-0.16
				c-1.415,0.748-2.122,1.688-2.122,2.823c0,0.601,0.247,1.044,0.741,1.331c0.494,0.288,1.341,0.431,2.542,0.431h3.884
				c2.375,0,4.201,0.5,5.475,1.501s1.912,2.456,1.912,4.364c0,2.429-0.975,4.281-2.923,5.555c-1.949,1.274-4.792,1.912-8.528,1.912
				c-2.87,0-5.082-0.534-6.637-1.602c-1.555-1.068-2.332-2.576-2.332-4.524c0-1.335,0.427-2.489,1.281-3.463
				c0.854-0.974,2.055-1.635,3.604-1.982c-0.561-0.253-1.031-0.647-1.411-1.181c-0.381-0.534-0.571-1.154-0.571-1.862
				c0-0.801,0.213-1.501,0.641-2.102c0.427-0.601,1.101-1.181,2.022-1.742c-1.135-0.467-2.059-1.261-2.772-2.382
				c-0.714-1.121-1.071-2.402-1.071-3.844c0-2.402,0.721-4.254,2.162-5.555c1.441-1.302,3.483-1.952,6.126-1.952
				c1.147,0,2.182,0.134,3.103,0.4H714.706z M697.209,88.184c0,1.188,0.5,2.088,1.501,2.703c1.001,0.614,2.436,0.921,4.304,0.921
				c2.789,0,4.854-0.417,6.196-1.251c1.341-0.834,2.012-1.965,2.012-3.393c0-1.188-0.367-2.012-1.101-2.472
				C709.387,84.23,708.006,84,705.978,84h-3.984c-1.508,0-2.683,0.36-3.523,1.081S697.209,86.836,697.209,88.184z M699.011,69.586
				c0,1.535,0.434,2.696,1.301,3.483c0.867,0.788,2.075,1.181,3.624,1.181c3.243,0,4.865-1.575,4.865-4.725
				c0-3.296-1.642-4.945-4.925-4.945c-1.562,0-2.763,0.42-3.604,1.261S699.011,67.931,699.011,69.586z"/>
			<path class="st5" d="M733.364,78.514c0,2.042-0.761,3.617-2.282,4.725c-1.521,1.108-3.657,1.662-6.406,1.662
				c-2.91,0-5.179-0.46-6.807-1.381v-3.083c1.054,0.534,2.185,0.955,3.394,1.261c1.208,0.307,2.372,0.46,3.493,0.46
				c1.735,0,3.069-0.277,4.004-0.831c0.934-0.554,1.401-1.398,1.401-2.533c0-0.854-0.37-1.584-1.111-2.192
				c-0.74-0.607-2.186-1.325-4.334-2.152c-2.042-0.761-3.493-1.424-4.354-1.992c-0.86-0.567-1.501-1.211-1.922-1.932
				c-0.42-0.721-0.63-1.582-0.63-2.583c0-1.788,0.727-3.2,2.182-4.234c1.455-1.034,3.45-1.552,5.986-1.552
				c2.362,0,4.671,0.48,6.927,1.441l-1.182,2.703c-2.202-0.907-4.198-1.361-5.986-1.361c-1.575,0-2.763,0.247-3.563,0.741
				c-0.801,0.494-1.201,1.175-1.201,2.042c0,0.587,0.15,1.088,0.451,1.501c0.3,0.414,0.784,0.808,1.451,1.181
				c0.667,0.374,1.948,0.915,3.844,1.622c2.603,0.948,4.36,1.902,5.275,2.863C732.907,75.852,733.364,77.06,733.364,78.514z"/>
			<path class="st5" d="M743.574,84.5l-8.328-21.941h3.563l4.725,13.013c1.067,3.043,1.694,5.019,1.882,5.926h0.16
				c0.146-0.707,0.61-2.172,1.392-4.395c0.78-2.222,2.532-7.07,5.255-14.544h3.563L747.458,84.5H743.574z"/>
			<path class="st5" d="M768.578,84.901c-3.242,0-5.802-0.987-7.677-2.963c-1.876-1.975-2.813-4.718-2.813-8.228
				c0-3.537,0.871-6.346,2.613-8.428c1.741-2.082,4.08-3.123,7.017-3.123c2.749,0,4.925,0.904,6.526,2.713s2.402,4.194,2.402,7.157
				v2.102h-15.115c0.067,2.576,0.718,4.531,1.952,5.866c1.234,1.335,2.974,2.002,5.216,2.002c2.361,0,4.697-0.494,7.006-1.481v2.963
				c-1.174,0.507-2.285,0.871-3.333,1.091C771.324,84.79,770.061,84.901,768.578,84.901z M767.678,64.941
				c-1.762,0-3.167,0.574-4.214,1.722c-1.048,1.148-1.665,2.736-1.853,4.765h11.472c0-2.095-0.468-3.7-1.401-4.815
				C770.747,65.499,769.412,64.941,767.678,64.941z"/>
			<path class="st5" d="M792.322,62.158c0.974,0,1.849,0.08,2.623,0.24l-0.461,3.083c-0.908-0.2-1.709-0.3-2.402-0.3
				c-1.775,0-3.293,0.721-4.555,2.162c-1.261,1.441-1.892,3.237-1.892,5.385V84.5h-3.323V62.559h2.742l0.381,4.064h0.16
				c0.813-1.428,1.795-2.529,2.943-3.303C789.687,62.546,790.947,62.158,792.322,62.158z"/>
			<path class="st5" d="M806.136,82.158c0.587,0,1.154-0.043,1.702-0.13c0.547-0.086,0.98-0.176,1.301-0.27V84.3
				c-0.36,0.174-0.891,0.317-1.592,0.431c-0.7,0.113-1.331,0.17-1.892,0.17c-4.244,0-6.366-2.235-6.366-6.707V65.141h-3.143V63.54
				l3.143-1.381l1.401-4.685h1.922v5.085h6.366v2.583h-6.366v12.913c0,1.321,0.313,2.336,0.94,3.043
				C804.181,81.804,805.041,82.158,806.136,82.158z"/>
			<path class="st5" d="M823.532,62.158c0.974,0,1.849,0.08,2.622,0.24l-0.46,3.083c-0.908-0.2-1.709-0.3-2.402-0.3
				c-1.775,0-3.293,0.721-4.555,2.162c-1.261,1.441-1.892,3.237-1.892,5.385V84.5h-3.323V62.559h2.743l0.38,4.064h0.16
				c0.813-1.428,1.795-2.529,2.942-3.303C820.896,62.546,822.157,62.158,823.532,62.158z"/>
			<path class="st5" d="M843.752,84.5l-0.66-3.123h-0.16c-1.095,1.375-2.187,2.306-3.273,2.793c-1.088,0.487-2.446,0.73-4.074,0.73
				c-2.176,0-3.881-0.561-5.115-1.682s-1.852-2.716-1.852-4.785c0-4.431,3.543-6.753,10.631-6.967l3.723-0.12v-1.361
				c0-1.722-0.37-2.993-1.11-3.814c-0.741-0.82-1.926-1.231-3.554-1.231c-1.829,0-3.897,0.561-6.206,1.682l-1.021-2.542
				c1.08-0.587,2.265-1.047,3.553-1.381c1.288-0.333,2.579-0.5,3.874-0.5c2.615,0,4.555,0.581,5.815,1.742
				c1.262,1.161,1.893,3.023,1.893,5.585V84.5H843.752z M836.244,82.158c2.069,0,3.694-0.567,4.875-1.702
				c1.182-1.134,1.771-2.723,1.771-4.765V73.71l-3.322,0.14c-2.643,0.094-4.549,0.504-5.716,1.231
				c-1.168,0.728-1.752,1.858-1.752,3.393c0,1.201,0.363,2.116,1.091,2.743C833.919,81.844,834.937,82.158,836.244,82.158z"/>
			<path class="st5" d="M871.018,62.559v2.102l-4.063,0.48c0.373,0.467,0.707,1.078,1.001,1.832c0.293,0.754,0.44,1.605,0.44,2.553
				c0,2.149-0.734,3.864-2.202,5.145c-1.469,1.281-3.483,1.922-6.046,1.922c-0.654,0-1.269-0.053-1.842-0.16
				c-1.415,0.748-2.122,1.688-2.122,2.823c0,0.601,0.247,1.044,0.74,1.331c0.494,0.288,1.342,0.431,2.543,0.431h3.884
				c2.375,0,4.2,0.5,5.476,1.501c1.274,1.001,1.912,2.456,1.912,4.364c0,2.429-0.975,4.281-2.924,5.555
				c-1.948,1.274-4.791,1.912-8.527,1.912c-2.87,0-5.082-0.534-6.637-1.602c-1.556-1.068-2.332-2.576-2.332-4.524
				c0-1.335,0.427-2.489,1.281-3.463c0.854-0.974,2.055-1.635,3.604-1.982c-0.561-0.253-1.031-0.647-1.412-1.181
				c-0.38-0.534-0.57-1.154-0.57-1.862c0-0.801,0.213-1.501,0.641-2.102c0.427-0.601,1.102-1.181,2.021-1.742
				c-1.134-0.467-2.059-1.261-2.772-2.382s-1.071-2.402-1.071-3.844c0-2.402,0.721-4.254,2.162-5.555
				c1.441-1.302,3.484-1.952,6.127-1.952c1.147,0,2.182,0.134,3.103,0.4H871.018z M853.521,88.184c0,1.188,0.5,2.088,1.501,2.703
				c1.001,0.614,2.436,0.921,4.304,0.921c2.79,0,4.855-0.417,6.196-1.251c1.342-0.834,2.013-1.965,2.013-3.393
				c0-1.188-0.368-2.012-1.102-2.472C865.699,84.23,864.318,84,862.289,84h-3.983c-1.509,0-2.683,0.36-3.523,1.081
				S853.521,86.836,853.521,88.184z M855.322,69.586c0,1.535,0.434,2.696,1.302,3.483c0.867,0.788,2.075,1.181,3.624,1.181
				c3.242,0,4.864-1.575,4.864-4.725c0-3.296-1.642-4.945-4.925-4.945c-1.562,0-2.763,0.42-3.604,1.261
				S855.322,67.931,855.322,69.586z"/>
		</g>
	</g>
	<g id="text_x5F_lower">
		<g>
			<path class="st5" d="M515.426,385.232h8.268c3.884,0,6.693,0.581,8.428,1.741c1.735,1.162,2.603,2.997,2.603,5.506
				c0,1.735-0.484,3.166-1.452,4.294s-2.379,1.858-4.234,2.192v0.2c4.444,0.761,6.667,3.097,6.667,7.007
				c0,2.616-0.884,4.658-2.652,6.126c-1.769,1.469-4.241,2.202-7.417,2.202h-10.21V385.232z M518.83,397.764h5.605
				c2.402,0,4.13-0.377,5.185-1.131c1.054-0.754,1.582-2.025,1.582-3.814c0-1.641-0.587-2.825-1.762-3.553
				c-1.175-0.728-3.043-1.092-5.605-1.092h-5.005V397.764z M518.83,400.647v10.951h6.106c2.362,0,4.141-0.457,5.335-1.372
				c1.194-0.913,1.792-2.345,1.792-4.294c0-1.814-0.61-3.149-1.832-4.004c-1.221-0.854-3.08-1.281-5.575-1.281H518.83z"/>
			<path class="st5" d="M550.761,414.901c-3.243,0-5.803-0.987-7.678-2.963c-1.875-1.975-2.813-4.718-2.813-8.229
				c0-3.536,0.871-6.346,2.612-8.428c1.742-2.082,4.081-3.123,7.017-3.123c2.749,0,4.925,0.904,6.526,2.713s2.402,4.193,2.402,7.156
				v2.103h-15.115c0.066,2.576,0.717,4.531,1.952,5.866c1.234,1.334,2.973,2.002,5.215,2.002c2.362,0,4.698-0.494,7.007-1.482v2.963
				c-1.175,0.508-2.286,0.871-3.333,1.092C553.506,414.79,552.242,414.901,550.761,414.901z M549.86,394.942
				c-1.762,0-3.167,0.574-4.214,1.721c-1.048,1.148-1.665,2.736-1.852,4.766h11.471c0-2.096-0.467-3.701-1.401-4.815
				C552.929,395.498,551.595,394.942,549.86,394.942z"/>
			<path class="st5" d="M582.412,414.5l-4.024-12.873c-0.254-0.787-0.728-2.575-1.421-5.365h-0.16
				c-0.534,2.336-1.001,4.139-1.401,5.406l-4.144,12.832h-3.844l-5.986-21.941h3.483c1.415,5.512,2.493,9.709,3.233,12.592
				c0.741,2.883,1.165,4.825,1.271,5.826h0.16c0.146-0.761,0.383-1.744,0.711-2.953c0.327-1.207,0.61-2.165,0.851-2.873
				l4.024-12.592h3.604l3.924,12.592c0.747,2.297,1.254,4.225,1.521,5.786h0.16c0.053-0.48,0.197-1.222,0.43-2.222
				c0.233-1.002,1.625-6.387,4.174-16.156h3.443l-6.066,21.941H582.412z"/>
			<path class="st5" d="M605.654,414.901c-3.243,0-5.803-0.987-7.678-2.963c-1.875-1.975-2.813-4.718-2.813-8.229
				c0-3.536,0.871-6.346,2.612-8.428c1.742-2.082,4.081-3.123,7.017-3.123c2.749,0,4.925,0.904,6.526,2.713s2.402,4.193,2.402,7.156
				v2.103h-15.115c0.066,2.576,0.717,4.531,1.952,5.866c1.234,1.334,2.973,2.002,5.215,2.002c2.362,0,4.698-0.494,7.007-1.482v2.963
				c-1.175,0.508-2.286,0.871-3.333,1.092C608.4,414.79,607.136,414.901,605.654,414.901z M604.753,394.942
				c-1.762,0-3.167,0.574-4.214,1.721c-1.048,1.148-1.665,2.736-1.852,4.766h11.471c0-2.096-0.467-3.701-1.401-4.815
				C607.823,395.498,606.488,394.942,604.753,394.942z"/>
			<path class="st5" d="M629.397,392.158c0.974,0,1.848,0.08,2.623,0.24l-0.46,3.083c-0.908-0.2-1.708-0.3-2.402-0.3
				c-1.775,0-3.293,0.721-4.555,2.162c-1.261,1.441-1.892,3.236-1.892,5.385V414.5h-3.323v-21.941h2.743l0.38,4.064h0.16
				c0.814-1.428,1.795-2.529,2.943-3.304C626.761,392.545,628.022,392.158,629.397,392.158z"/>
			<path class="st5" d="M646.334,392.198c2.883,0,5.122,0.984,6.717,2.953c1.594,1.969,2.392,4.755,2.392,8.358
				s-0.804,6.402-2.413,8.397c-1.608,1.996-3.84,2.993-6.696,2.993c-1.428,0-2.732-0.264-3.914-0.791
				c-1.181-0.526-2.172-1.338-2.973-2.432h-0.24l-0.701,2.822h-2.382v-31.15h3.323v7.567c0,1.695-0.054,3.217-0.16,4.564h0.16
				C640.995,393.293,643.291,392.198,646.334,392.198z M645.854,394.981c-2.269,0-3.904,0.651-4.905,1.952
				c-1.001,1.302-1.501,3.493-1.501,6.577c0,3.082,0.514,5.288,1.542,6.616c1.027,1.328,2.676,1.991,4.945,1.991
				c2.042,0,3.563-0.743,4.564-2.231s1.501-3.627,1.501-6.417c0-2.855-0.5-4.984-1.501-6.386S647.949,394.981,645.854,394.981z"/>
			<path class="st5" d="M670.518,414.901c-3.243,0-5.803-0.987-7.678-2.963c-1.875-1.975-2.813-4.718-2.813-8.229
				c0-3.536,0.871-6.346,2.612-8.428c1.742-2.082,4.081-3.123,7.017-3.123c2.749,0,4.925,0.904,6.526,2.713s2.402,4.193,2.402,7.156
				v2.103h-15.115c0.066,2.576,0.717,4.531,1.952,5.866c1.234,1.334,2.973,2.002,5.215,2.002c2.362,0,4.698-0.494,7.007-1.482v2.963
				c-1.175,0.508-2.286,0.871-3.333,1.092C673.263,414.79,671.999,414.901,670.518,414.901z M669.617,394.942
				c-1.762,0-3.167,0.574-4.214,1.721c-1.048,1.148-1.665,2.736-1.852,4.766h11.471c0-2.096-0.467-3.701-1.401-4.815
				C672.686,395.498,671.352,394.942,669.617,394.942z"/>
			<path class="st5" d="M694.261,392.158c0.974,0,1.848,0.08,2.623,0.24l-0.46,3.083c-0.908-0.2-1.708-0.3-2.402-0.3
				c-1.775,0-3.293,0.721-4.555,2.162c-1.261,1.441-1.892,3.236-1.892,5.385V414.5h-3.323v-21.941h2.743l0.38,4.064h0.16
				c0.814-1.428,1.795-2.529,2.943-3.304C691.625,392.545,692.886,392.158,694.261,392.158z"/>
			<path class="st5" d="M715.141,408.514c0,2.043-0.761,3.617-2.282,4.725c-1.521,1.108-3.657,1.662-6.406,1.662
				c-2.91,0-5.179-0.461-6.807-1.381v-3.084c1.054,0.534,2.185,0.955,3.393,1.262c1.208,0.308,2.373,0.461,3.494,0.461
				c1.735,0,3.069-0.277,4.004-0.831c0.934-0.554,1.401-1.398,1.401-2.532c0-0.854-0.371-1.585-1.111-2.192
				c-0.741-0.607-2.186-1.325-4.334-2.152c-2.042-0.761-3.494-1.425-4.354-1.992c-0.861-0.567-1.502-1.211-1.922-1.932
				c-0.421-0.721-0.631-1.581-0.631-2.583c0-1.787,0.727-3.199,2.182-4.233c1.455-1.034,3.45-1.552,5.986-1.552
				c2.362,0,4.671,0.48,6.927,1.441l-1.181,2.703c-2.202-0.908-4.198-1.361-5.986-1.361c-1.575,0-2.763,0.246-3.563,0.74
				s-1.201,1.175-1.201,2.042c0,0.587,0.15,1.088,0.45,1.501c0.301,0.414,0.784,0.809,1.452,1.182
				c0.667,0.374,1.948,0.914,3.844,1.621c2.603,0.948,4.361,1.902,5.275,2.863S715.141,407.06,715.141,408.514z"/>
			<path class="st5" d="M723.669,392.559v14.234c0,1.788,0.407,3.123,1.221,4.004c0.814,0.881,2.088,1.32,3.824,1.32
				c2.295,0,3.974-0.627,5.035-1.881c1.062-1.255,1.592-3.304,1.592-6.146v-11.531h3.323V414.5h-2.743l-0.48-2.943h-0.18
				c-0.681,1.082-1.625,1.909-2.833,2.482c-1.208,0.574-2.586,0.861-4.134,0.861c-2.669,0-4.668-0.634-5.996-1.902
				c-1.328-1.268-1.992-3.296-1.992-6.086v-14.354H723.669z"/>
			<path class="st5" d="M754.479,414.901c-3.177,0-5.636-0.978-7.377-2.933c-1.742-1.955-2.613-4.722-2.613-8.298
				c0-3.67,0.884-6.507,2.653-8.509c1.768-2.002,4.287-3.003,7.557-3.003c1.054,0,2.108,0.113,3.163,0.34
				c1.054,0.228,1.882,0.494,2.482,0.801l-1.021,2.823c-0.734-0.294-1.535-0.537-2.402-0.73c-0.868-0.193-1.635-0.29-2.302-0.29
				c-4.458,0-6.687,2.842-6.687,8.527c0,2.697,0.543,4.766,1.631,6.207s2.699,2.162,4.835,2.162c1.828,0,3.704-0.394,5.625-1.182
				v2.943C758.557,414.52,756.708,414.901,754.479,414.901z"/>
			<path class="st5" d="M780.245,414.5v-14.193c0-1.789-0.407-3.123-1.221-4.004c-0.814-0.881-2.089-1.322-3.824-1.322
				c-2.309,0-3.994,0.628-5.055,1.883c-1.061,1.254-1.591,3.31-1.591,6.166V414.5h-3.323v-31.15h3.323v9.43
				c0,1.135-0.054,2.075-0.16,2.822h0.2c0.654-1.055,1.584-1.885,2.792-2.492s2.586-0.911,4.134-0.911
				c2.683,0,4.695,0.638,6.036,1.912c1.342,1.274,2.012,3.3,2.012,6.075V414.5H780.245z"/>
			<path class="st5" d="M799.664,414.901c-3.244,0-5.803-0.987-7.678-2.963c-1.875-1.975-2.813-4.718-2.813-8.229
				c0-3.536,0.871-6.346,2.613-8.428c1.741-2.082,4.08-3.123,7.017-3.123c2.749,0,4.925,0.904,6.526,2.713s2.402,4.193,2.402,7.156
				v2.103h-15.114c0.066,2.576,0.717,4.531,1.951,5.866c1.234,1.334,2.973,2.002,5.215,2.002c2.363,0,4.698-0.494,7.008-1.482v2.963
				c-1.176,0.508-2.286,0.871-3.334,1.092C802.409,414.79,801.145,414.901,799.664,414.901z M798.763,394.942
				c-1.762,0-3.167,0.574-4.214,1.721c-1.049,1.148-1.666,2.736-1.852,4.766h11.471c0-2.096-0.467-3.701-1.401-4.815
				S800.498,394.942,798.763,394.942z"/>
			<path class="st5" d="M822.786,406.912c0-1.734,0.464-3.27,1.392-4.604c0.928-1.335,2.592-2.684,4.994-4.045
				c-1.135-1.268-1.904-2.229-2.312-2.883c-0.407-0.653-0.731-1.334-0.972-2.041s-0.359-1.441-0.359-2.203
				c0-2.002,0.653-3.563,1.961-4.684c1.309-1.121,3.13-1.682,5.466-1.682c2.162,0,3.864,0.557,5.104,1.671
				c1.242,1.114,1.862,2.667,1.862,4.655c0,1.428-0.454,2.746-1.361,3.953c-0.907,1.209-2.409,2.433-4.505,3.674l8.148,7.828
				c0.747-0.828,1.344-1.799,1.792-2.913c0.446-1.114,0.823-2.333,1.131-3.653h3.363c-0.907,3.816-2.276,6.713-4.104,8.688
				l5.986,5.826h-4.584l-3.704-3.563c-1.575,1.415-3.177,2.43-4.805,3.043s-3.443,0.921-5.445,0.921
				c-2.87,0-5.095-0.707-6.677-2.122C823.577,411.365,822.786,409.408,822.786,406.912z M831.915,411.918
				c3.216,0,5.886-1.028,8.008-3.084l-8.749-8.488c-1.48,0.908-2.529,1.659-3.143,2.253c-0.614,0.594-1.068,1.231-1.361,1.911
				c-0.294,0.682-0.44,1.455-0.44,2.322c0,1.563,0.517,2.8,1.552,3.714C828.814,411.461,830.193,411.918,831.915,411.918z
				 M828.813,391.057c0,0.922,0.24,1.799,0.721,2.633s1.301,1.839,2.462,3.014c1.722-1.002,2.919-1.926,3.594-2.773
				c0.673-0.848,1.011-1.824,1.011-2.933c0-1.027-0.344-1.864-1.031-2.513c-0.688-0.646-1.605-0.971-2.752-0.971
				c-1.188,0-2.152,0.32-2.894,0.961C829.183,389.115,828.813,389.977,828.813,391.057z"/>
			<path class="st5" d="M622.901,471.5l-3.644-9.309h-11.731l-3.604,9.309h-3.443l11.571-29.389h2.863l11.511,29.389H622.901z
				 M618.197,459.128l-3.403-9.069c-0.44-1.147-0.895-2.555-1.361-4.224c-0.294,1.281-0.714,2.689-1.261,4.224l-3.443,9.069H618.197
				z"/>
			<path class="st5" d="M633.071,449.559v14.234c0,1.788,0.407,3.123,1.221,4.004c0.814,0.881,2.088,1.32,3.824,1.32
				c2.295,0,3.974-0.627,5.035-1.881c1.061-1.255,1.591-3.304,1.591-6.146v-11.531h3.323V471.5h-2.743l-0.48-2.943h-0.18
				c-0.681,1.082-1.625,1.909-2.833,2.482c-1.208,0.574-2.586,0.861-4.134,0.861c-2.669,0-4.668-0.634-5.996-1.902
				c-1.329-1.268-1.992-3.296-1.992-6.086v-14.354H633.071z"/>
			<path class="st5" d="M669.267,465.514c0,2.043-0.761,3.617-2.282,4.725c-1.521,1.108-3.657,1.662-6.406,1.662
				c-2.91,0-5.179-0.461-6.807-1.381v-3.084c1.054,0.534,2.185,0.955,3.394,1.262c1.208,0.308,2.372,0.461,3.493,0.461
				c1.735,0,3.069-0.277,4.004-0.831c0.934-0.554,1.401-1.398,1.401-2.532c0-0.854-0.37-1.585-1.111-2.192
				c-0.74-0.607-2.186-1.324-4.334-2.152c-2.042-0.761-3.493-1.425-4.354-1.992c-0.86-0.566-1.501-1.211-1.922-1.932
				c-0.42-0.721-0.63-1.581-0.63-2.583c0-1.788,0.727-3.199,2.182-4.233c1.455-1.034,3.45-1.552,5.986-1.552
				c2.362,0,4.671,0.48,6.927,1.441l-1.181,2.703c-2.202-0.908-4.198-1.361-5.986-1.361c-1.575,0-2.763,0.247-3.563,0.74
				c-0.801,0.494-1.201,1.175-1.201,2.042c0,0.588,0.15,1.088,0.451,1.501c0.3,0.414,0.784,0.809,1.451,1.182
				c0.667,0.374,1.948,0.914,3.844,1.621c2.603,0.948,4.361,1.902,5.275,2.863C668.809,462.852,669.267,464.06,669.267,465.514z"/>
			<path class="st5" d="M692.589,471.5l-4.024-12.873c-0.254-0.787-0.728-2.575-1.421-5.365h-0.16
				c-0.534,2.336-1.001,4.138-1.401,5.406l-4.144,12.832h-3.844l-5.986-21.941h3.483c1.415,5.513,2.493,9.709,3.233,12.592
				c0.741,2.883,1.165,4.825,1.271,5.826h0.16c0.146-0.761,0.383-1.745,0.711-2.953c0.327-1.207,0.61-2.165,0.851-2.873
				l4.024-12.592h3.604l3.924,12.592c0.747,2.296,1.254,4.225,1.521,5.786h0.16c0.053-0.48,0.197-1.222,0.43-2.222
				c0.233-1.002,1.625-6.387,4.174-16.156h3.443l-6.066,21.941H692.589z"/>
			<path class="st5" d="M720.056,471.5l-0.661-3.123h-0.16c-1.095,1.375-2.186,2.306-3.273,2.793
				c-1.088,0.486-2.446,0.73-4.074,0.73c-2.176,0-3.881-0.561-5.115-1.682c-1.235-1.121-1.852-2.716-1.852-4.785
				c0-4.431,3.543-6.753,10.63-6.967l3.724-0.119v-1.361c0-1.723-0.37-2.993-1.111-3.814c-0.74-0.82-1.925-1.23-3.553-1.23
				c-1.829,0-3.897,0.561-6.206,1.682l-1.021-2.543c1.081-0.587,2.265-1.048,3.554-1.381c1.288-0.334,2.579-0.501,3.874-0.501
				c2.616,0,4.554,0.581,5.816,1.741c1.261,1.162,1.892,3.023,1.892,5.586V471.5H720.056z M712.549,469.158
				c2.068,0,3.693-0.567,4.875-1.702c1.181-1.134,1.771-2.723,1.771-4.765v-1.982l-3.323,0.141
				c-2.643,0.094-4.548,0.504-5.716,1.231s-1.751,1.858-1.751,3.394c0,1.201,0.363,2.115,1.091,2.742
				C710.223,468.845,711.241,469.158,712.549,469.158z"/>
			<path class="st5" d="M744.38,471.5v-14.193c0-1.789-0.407-3.123-1.221-4.004c-0.814-0.881-2.089-1.322-3.824-1.322
				c-2.309,0-3.994,0.628-5.055,1.883c-1.062,1.254-1.592,3.31-1.592,6.166V471.5h-3.323v-31.15h3.323v9.43
				c0,1.134-0.054,2.075-0.16,2.822h0.2c0.654-1.054,1.584-1.885,2.793-2.492c1.208-0.607,2.585-0.911,4.134-0.911
				c2.683,0,4.694,0.638,6.036,1.912c1.341,1.274,2.012,3.3,2.012,6.075V471.5H744.38z"/>
			<path class="st5" d="M757.853,471.5h-3.323v-31.15h3.323V471.5z"/>
		</g>
	</g>
</g>
<g id="Sanitt_x5F_Logos">
	<g id="Sanitt_x5F_1_2_">
		<polygon id="main1_4_" class="st4" points="1007.485,143.557 1021.338,143.557 1014.773,150.238 998.006,150.238 998.006,58.004 
			1014.289,58.004 1020.973,64.565 1007.485,64.565 		"/>
		<path id="main2_1_" class="st4" d="M1027.726,134.372l-2.178-5.861c0.854,0.326,1.704,0.563,2.576,0.725
			c0.871,0.165,1.741,0.237,2.631,0.237c4.825,0,8.4-1.562,10.741-4.683c2.341-3.12,3.501-7.895,3.501-14.351
			c0-2.649-0.035-5.697-0.107-9.146c-0.073-3.428-0.109-5.533-0.109-6.313c0-10.887,2.306-19.27,6.913-25.146
			c4.607-5.879,11.158-8.819,19.668-8.819c2.378,0,4.664,0.271,6.859,0.797c2.195,0.526,4.409,1.342,6.641,2.449l2.179,5.462
			c-1.145-0.218-2.231-0.379-3.267-0.507c-1.053-0.126-2.031-0.181-2.957-0.181c-4.809,0-8.274,1.776-10.36,5.314
			s-3.14,9.471-3.14,17.818c0,0.381,0.021,1.705,0.057,3.973c0.036,2.27,0.054,4.356,0.054,6.224c0,6.171-0.417,11.016-1.235,14.532
			c-0.796,3.54-2.14,6.535-3.972,9.02c-2.667,3.503-5.861,6.153-9.599,7.947c-3.738,1.796-7.983,2.688-12.721,2.688
			c-2.448,0-4.662-0.184-6.64-0.529C1031.264,135.658,1029.43,135.113,1027.726,134.372L1027.726,134.372z"/>
		<path id="main3_1_" class="st4" d="M1100.334,73.03c-9.183,7.495-16.536,16.986-22.14,28.329
			c-5.738,11.545-8.566,22.944-8.566,34.911h16.609c0-3.324,0.641-7.646,1.921-12.299h20.4v12.299h17.618V62.194
			C1117.867,62.194,1109.178,65.805,1100.334,73.03z M1108.561,112.003h-16.452c4.997-10.97,10.469-18.382,16.452-21.757V112.003z"
			/>
		<path id="main4_1_" class="st4" d="M1188.503,136.123h-17.722c0-12.491-4.56-25.992-13.672-40.511
			c-2.904-4.589-4.524-6.885-4.862-6.885v47.396h-17.62V63.005h17.62c4.255,0,10.129,5.703,17.622,17.113
			c0.742,1.082,2.023,3.105,3.849,6.078V63.004h14.786L1188.503,136.123L1188.503,136.123z"/>
		<polygon id="main5_4_" class="st4" points="1201.813,143.557 1215.664,143.557 1215.664,64.323 1202.42,64.323 1208.857,57.762 
			1225.021,57.762 1225.021,150.119 1208.131,150.119 		"/>
		<polygon id="main6_4_" class="st4" points="1256.021,136.108 1240.78,136.108 1240.78,73.476 1256.021,73.476 		"/>
		<polygon id="main7_4_" class="st4" points="1306.01,85.233 1290.688,85.233 1290.688,136.108 1275.623,136.108 1275.623,85.233 
			1259.611,85.233 1259.611,73.958 1306.01,73.958 		"/>
		<polygon id="main8_4_" class="st4" points="1356.708,85.233 1341.388,85.233 1341.388,136.108 1326.324,136.108 1326.324,85.233 
			1310.311,85.233 1310.311,73.958 1356.708,73.958 		"/>
		<polygon id="main9_4_" class="st4" points="1378.792,143.557 1392.646,143.557 1386.083,150.238 1369.313,150.238 
			1369.313,58.004 1385.596,58.004 1392.279,64.565 1378.792,64.565 		"/>
		<path id="sub1_4_" class="st4" d="M1394.582,91.846l-3.532,0.847l0.026-18.923h3.506V91.846L1394.582,91.846z M1412.919,92.021
			l-3.737,0.79l0.061-3.185l-2.891-4.557c-1.09-1.693-1.957-2.841-2.599-3.444c-0.39-0.389-0.877-0.818-1.462-1.285l-1.516-1.079
			l-0.062,12.816l-3.387,0.818l-0.029-19.563c0.449,0,0.789,0.009,1.021,0.027c0.232,0.021,0.597,0.083,1.084,0.191
			c0.484,0.108,1.037,0.345,1.662,0.715c0.76,0.467,1.615,1.089,2.569,1.868c0.797,0.644,1.576,1.334,2.336,2.073
			c0.585,0.525,1.204,1.236,1.868,2.131c0.505,0.663,0.973,1.363,1.401,2.103v-8.673h3.736L1412.919,92.021L1412.919,92.021z
			 M1419.694,80.867h9.168l-3.68,3.503h-5.43l-0.059,7.476l-3.505,0.877V73.77h16.089l-3.699,3.505h-8.885V80.867L1419.694,80.867z
			 M1450.355,82.91c0,2.472-0.834,4.599-2.496,6.38c-1.666,1.779-3.654,2.671-5.974,2.671h-3.15c-2.337,0-4.333-0.886-5.988-2.657
			c-1.653-1.772-2.482-3.903-2.482-6.395c0-2.512,0.834-4.661,2.497-6.455c1.665-1.79,3.656-2.688,5.975-2.688h3.151
			c2.336,0,4.329,0.887,5.986,2.657C1449.527,78.198,1450.355,80.361,1450.355,82.91L1450.355,82.91z M1446.561,82.91
			c0-1.559-0.447-2.887-1.345-3.984c-0.896-1.104-2.006-1.652-3.329-1.652h-3.15c-1.268,0-2.369,0.558-3.303,1.666
			c-0.445,0.545-0.788,1.146-1.021,1.811c-0.234,0.662-0.351,1.382-0.351,2.161c0,1.517,0.456,2.82,1.371,3.911
			c0.916,1.091,2.016,1.638,3.303,1.638h3.15c1.282,0,2.387-0.547,3.301-1.638S1446.561,84.428,1446.561,82.91L1446.561,82.91z
			 M1469.771,91.729l-3.826,0.848l0.147-1.052l0.176-1.313c0-1.946-0.896-3.594-2.688-4.935c-1.791-1.345-4.078-2.016-6.863-2.016
			l5.14-5.11l0.117-0.232c0-0.175-0.236-0.352-0.714-0.524c-0.479-0.176-0.95-0.264-1.418-0.264h-4.027l-0.06,14.684l-3.826,0.765
			l0.029-18.95h7.944c1.671,0,3.077,0.34,4.217,1.021c1.14,0.682,1.709,1.489,1.709,2.426c0,0.466-0.201,0.981-0.613,1.544
			l-0.789,0.848l-1.4,1.313c2.198,0.954,3.854,2.249,4.965,3.885c0.564,0.896,1.004,1.938,1.312,3.125
			C1469.619,88.974,1469.771,90.288,1469.771,91.729L1469.771,91.729z M1496.314,91.962l-3.59,0.962L1488.928,82l-5.526,11.26
			l-5.416-11.179l-3.568,9.938l-4.028,0.614l7.125-19.506l5.897,12.177l6.017-12.177L1496.314,91.962L1496.314,91.962z
			 M1505.689,85.597l-3.184,5.169c-0.058,0.173-0.136,0.35-0.23,0.527c-0.099,0.173-0.215,0.367-0.354,0.583l-0.231,0.32
			l-4.848,1.372l11.973-19.915l11.213,18.397l-3.708,1.343l-0.469-0.992l-0.643-1.462l-3.327-5.343H1505.689L1505.689,85.597
			L1505.689,85.597z M1507.823,82.092h1.954l-0.963-1.605L1507.823,82.092L1507.823,82.092z M1536.497,73.769l-3.621,3.504h-5.694
			l-0.059,14.571l-3.532,0.992l0.087-15.563h-8.146l3.386-3.504H1536.497L1536.497,73.769z M1541.871,91.846l-3.532,0.847
			l0.027-18.923h3.505V91.846L1541.871,91.846z M1563.625,82.91c0,2.472-0.833,4.599-2.498,6.38
			c-1.664,1.779-3.654,2.671-5.971,2.671h-3.153c-2.336,0-4.329-0.886-5.985-2.657c-1.656-1.772-2.484-3.903-2.484-6.395
			c0-2.512,0.833-4.661,2.499-6.455c1.663-1.79,3.654-2.688,5.972-2.688h3.153c2.335,0,4.331,0.887,5.987,2.657
			C1562.797,78.198,1563.625,80.361,1563.625,82.91L1563.625,82.91z M1559.828,82.91c0-1.559-0.449-2.887-1.342-3.984
			c-0.896-1.104-2.006-1.652-3.33-1.652h-3.153c-1.267,0-2.365,0.558-3.3,1.666c-0.448,0.545-0.789,1.146-1.021,1.811
			c-0.234,0.662-0.351,1.382-0.351,2.161c0,1.517,0.455,2.82,1.371,3.911c0.913,1.091,2.014,1.638,3.3,1.638h3.153
			c1.282,0,2.384-0.547,3.3-1.638C1559.37,85.732,1559.828,84.428,1559.828,82.91L1559.828,82.91z M1580.795,92.021l-3.739,0.79
			l0.061-3.185l-2.89-4.557c-1.09-1.693-1.957-2.841-2.599-3.444c-0.389-0.389-0.876-0.818-1.462-1.285l-1.518-1.079l-0.058,12.816
			l-3.388,0.818l-0.029-19.563c0.449,0,0.786,0.009,1.022,0.027c0.23,0.021,0.592,0.083,1.079,0.191
			c0.486,0.108,1.041,0.345,1.664,0.715c0.761,0.467,1.617,1.089,2.569,1.868c0.796,0.644,1.579,1.334,2.337,2.073
			c0.583,0.525,1.205,1.236,1.866,2.131c0.506,0.663,0.976,1.363,1.403,2.103v-8.673h3.737L1580.795,92.021L1580.795,92.021z"/>
		<path id="sub2_4_" class="st4" d="M1403.895,95.302l-3.62,3.503h-5.694l-0.061,14.571l-3.532,0.992l0.088-15.563h-8.147
			l3.388-3.503H1403.895L1403.895,95.302z M1406.057,102.25h13.779l-3.912,3.971l-9.896-0.088c0.29,1.053,0.813,1.947,1.573,2.687
			c0.778,0.682,1.646,1.024,2.6,1.024h8.03c0.681,0,1.509-0.1,2.48-0.294l1.345-0.321l-3.826,4.118h-8.818
			c-2.063,0-3.818-0.926-5.27-2.776c-1.449-1.849-2.178-4.088-2.178-6.714c0-2.354,0.736-4.394,2.207-6.118
			c1.47-1.722,3.216-2.583,5.239-2.583h12.41l-3.62,3.445h-8.001c-0.914,0-1.747,0.331-2.496,0.992
			C1406.955,100.257,1406.406,101.141,1406.057,102.25L1406.057,102.25z M1442.701,95.302l-4.206,3.417l-1.925,0.086h-5.782
			c-1.186,0-2.219,0.556-3.095,1.666c-0.432,0.563-0.748,1.169-0.965,1.81c-0.214,0.643-0.32,1.362-0.32,2.162
			c0,1.538,0.424,2.847,1.269,3.929c0.849,1.077,1.884,1.618,3.11,1.618h7.534c0.993,0,2.159-0.089,3.505-0.263
			c0.291,0,0.592-0.048,0.902-0.146l-3.911,3.912h-8.907c-1.984,0-3.698-0.894-5.139-2.685s-2.16-3.944-2.16-6.454
			c0-2.531,0.714-4.672,2.145-6.423c1.434-1.752,3.15-2.627,5.154-2.627h12.791V95.302L1442.701,95.302z M1449.271,104.674
			l1.109-2.656h7.213l0.061-6.863h3.678v18.428l-3.797,0.642l0.118-8.702h-8.382v7.999l-3.971,0.85l0.029-19.214h3.94
			L1449.271,104.674L1449.271,104.674z M1479.729,113.552l-3.735,0.789l0.056-3.185l-2.89-4.556
			c-1.09-1.696-1.958-2.843-2.599-3.445c-0.391-0.389-0.875-0.816-1.461-1.285l-1.518-1.081l-0.061,12.818l-3.387,0.818
			l-0.025-19.564c0.443,0,0.783,0.011,1.02,0.029c0.233,0.021,0.593,0.083,1.081,0.189c0.484,0.108,1.041,0.347,1.663,0.718
			c0.759,0.464,1.615,1.088,2.568,1.866c0.799,0.644,1.576,1.335,2.336,2.073c0.587,0.525,1.208,1.236,1.869,2.132
			c0.506,0.66,0.973,1.362,1.4,2.102V95.3h3.738L1479.729,113.552L1479.729,113.552z M1501.396,104.441
			c0,2.472-0.834,4.601-2.5,6.38c-1.662,1.78-3.654,2.669-5.97,2.669h-3.153c-2.337,0-4.33-0.884-5.985-2.653
			c-1.655-1.773-2.484-3.904-2.484-6.396c0-2.512,0.832-4.663,2.498-6.453c1.663-1.793,3.654-2.687,5.973-2.687h3.153
			c2.334,0,4.328,0.884,5.984,2.656C1500.568,99.729,1501.396,101.89,1501.396,104.441L1501.396,104.441z M1497.6,104.441
			c0-1.559-0.448-2.887-1.343-3.986c-0.896-1.101-2.006-1.65-3.329-1.65h-3.154c-1.268,0-2.365,0.555-3.299,1.665
			c-0.448,0.547-0.787,1.148-1.023,1.81c-0.232,0.663-0.349,1.383-0.349,2.162c0,1.52,0.455,2.821,1.372,3.912
			c0.912,1.09,2.014,1.636,3.299,1.636h3.154c1.283,0,2.384-0.546,3.299-1.636S1497.6,105.96,1497.6,104.441L1497.6,104.441z
			 M1515.059,109.58l-3.735,3.911h-8.496l0.026-18.189h3.505l0.06,14.688h4.468c0.778,0,1.683-0.067,2.716-0.204L1515.059,109.58
			L1515.059,109.58z M1535.559,104.441c0,2.472-0.833,4.601-2.496,6.38c-1.662,1.78-3.653,2.669-5.972,2.669h-3.151
			c-2.336,0-4.332-0.884-5.988-2.653c-1.653-1.773-2.481-3.904-2.481-6.396c0-2.512,0.833-4.663,2.499-6.453
			c1.663-1.793,3.654-2.687,5.971-2.687h3.152c2.337,0,4.33,0.884,5.985,2.656C1534.732,99.729,1535.559,101.89,1535.559,104.441
			L1535.559,104.441z M1531.765,104.441c0-1.559-0.448-2.887-1.346-3.986c-0.896-1.101-2.006-1.65-3.328-1.65h-3.152
			c-1.267,0-2.365,0.555-3.301,1.665c-0.445,0.547-0.788,1.148-1.021,1.81c-0.234,0.663-0.351,1.383-0.351,2.162
			c0,1.52,0.457,2.821,1.371,3.912c0.915,1.09,2.016,1.636,3.302,1.636h3.152c1.285,0,2.382-0.546,3.298-1.636
			C1531.307,107.263,1531.765,105.96,1531.765,104.441L1531.765,104.441z M1556.175,95.302l-3.595,3.387l-7.182,0.116
			c-1.189,0-2.219,0.555-3.097,1.665c-0.43,0.563-0.75,1.169-0.964,1.81c-0.215,0.643-0.317,1.362-0.317,2.162
			c0,1.538,0.422,2.847,1.268,3.929c0.849,1.076,1.884,1.618,3.11,1.618h6.131v-4.322h-4.585c-0.563,0-1.48,0.088-2.745,0.264
			c-0.076,0-0.199,0.009-0.365,0.03c-0.166,0.02-0.347,0.059-0.541,0.113l3.768-3.912h7.974l-0.061,11.328h-9.577
			c-2.201,0-4.111-0.884-5.738-2.653c-1.627-1.773-2.438-3.904-2.438-6.396c0-2.512,0.793-4.662,2.379-6.452
			c1.587-1.793,3.521-2.688,5.798-2.688L1556.175,95.302L1556.175,95.302z M1580.645,95.593l-9.604,9.607v8.233l-3.564,0.759
			l0.061-8.905l-9.694-9.695h5.124l6.291,6.395l6.41-6.395L1580.645,95.593L1580.645,95.593z"/>
		<path id="sub3_4_" class="st4" d="M1403.939,116.942l-3.621,3.504h-5.693l-0.058,14.571l-3.534,0.992l0.088-15.563h-8.146
			l3.388-3.504H1403.939L1403.939,116.942z M1422.014,134.9l-3.821,0.849l0.144-1.051l0.176-1.314c0-1.946-0.896-3.591-2.687-4.935
			s-4.078-2.015-6.862-2.015l5.138-5.111l0.12-0.231c0-0.176-0.24-0.352-0.718-0.527c-0.476-0.173-0.948-0.263-1.416-0.263h-4.028
			l-0.061,14.685l-3.825,0.765l0.029-18.95h7.944c1.675,0,3.08,0.34,4.219,1.021c1.139,0.683,1.708,1.489,1.708,2.426
			c0,0.465-0.203,0.981-0.613,1.544l-0.788,0.848l-1.4,1.316c2.195,0.951,3.854,2.245,4.963,3.881
			c0.564,0.896,1.005,1.938,1.314,3.126C1421.859,132.145,1422.014,133.46,1422.014,134.9L1422.014,134.9z M1431.068,128.768
			l-3.185,5.171c-0.059,0.173-0.137,0.352-0.231,0.527c-0.099,0.173-0.215,0.367-0.352,0.583l-0.234,0.321l-4.849,1.374
			l11.974-19.916l11.213,18.396l-3.708,1.342l-0.468-0.994l-0.644-1.46l-3.329-5.344L1431.068,128.768L1431.068,128.768z
			 M1433.199,125.265h1.959l-0.966-1.606L1433.199,125.265L1433.199,125.265z M1450.313,135.019l-3.533,0.847l0.028-18.923h3.505
			V135.019L1450.313,135.019z M1469.817,134.9l-3.738,0.789l0.059-3.181l-2.888-4.556c-1.092-1.695-1.959-2.845-2.6-3.446
			c-0.391-0.391-0.877-0.818-1.463-1.285l-1.518-1.081l-0.057,12.819l-3.387,0.817l-0.03-19.563c0.444,0,0.786,0.01,1.021,0.03
			c0.231,0.02,0.596,0.083,1.08,0.19c0.488,0.107,1.041,0.345,1.666,0.715c0.759,0.465,1.615,1.089,2.568,1.868
			c0.799,0.643,1.578,1.333,2.336,2.072c0.582,0.525,1.206,1.237,1.869,2.131c0.506,0.664,0.973,1.364,1.399,2.103v-8.673h3.737
			L1469.817,134.9L1469.817,134.9z M1476.447,135.019l-3.534,0.847l0.028-18.923h3.506V135.019L1476.447,135.019z M1495.368,134.9
			l-3.74,0.789l0.061-3.181l-2.892-4.556c-1.089-1.695-1.957-2.845-2.598-3.446c-0.391-0.391-0.878-0.818-1.46-1.285l-1.519-1.081
			l-0.061,12.819l-3.387,0.817l-0.028-19.563c0.447,0,0.788,0.01,1.023,0.03c0.23,0.02,0.592,0.083,1.079,0.19
			c0.484,0.107,1.041,0.345,1.663,0.715c0.76,0.465,1.616,1.089,2.568,1.868c0.799,0.643,1.578,1.333,2.337,2.072
			c0.586,0.525,1.207,1.237,1.869,2.131c0.506,0.664,0.973,1.364,1.401,2.103v-8.673h3.736L1495.368,134.9L1495.368,134.9z
			 M1516.188,116.942l-3.595,3.388l-7.181,0.117c-1.188,0-2.218,0.556-3.096,1.666c-0.431,0.563-0.748,1.166-0.965,1.811
			c-0.214,0.643-0.318,1.362-0.318,2.161c0,1.538,0.424,2.846,1.269,3.928c0.848,1.077,1.884,1.619,3.11,1.619h6.13v-4.323h-4.585
			c-0.563,0-1.479,0.09-2.744,0.265c-0.077,0-0.199,0.011-0.363,0.029c-0.166,0.021-0.347,0.06-0.539,0.115l3.765-3.912h7.972
			l-0.059,11.328h-9.577c-2.202,0-4.11-0.884-5.739-2.657c-1.624-1.771-2.438-3.9-2.438-6.392c0-2.512,0.794-4.663,2.38-6.455
			c1.586-1.79,3.521-2.688,5.797-2.688H1516.188L1516.188,116.942L1516.188,116.942L1516.188,116.942z M1535.723,135.133h-20.731
			l3.504-3.502h13.692c-0.113-1.109-0.798-2.071-2.043-2.891c-0.975-0.621-2.315-1.157-4.03-1.606c-3.58-0.877-6.11-1.86-7.59-2.949
			c-1.248-0.896-1.868-1.896-1.868-3.008c0-1.148,0.38-2.14,1.139-2.979c0.759-0.838,1.692-1.255,2.802-1.255h14.279l-3.502,3.357
			l-8.002,0.118h-0.788h-0.729c-0.565,0-0.99,0.06-1.271,0.176c-0.28,0.116-0.422,0.358-0.422,0.728c0,0.177,0.412,0.43,1.24,0.761
			c0.828,0.33,2.449,0.837,4.862,1.518c2.841,0.759,5.043,1.725,6.599,2.894c1.907,1.459,2.862,3.316,2.862,5.576L1535.723,135.133
			L1535.723,135.133z"/>
	</g>
	<g id="Sanitt_x5F_2_1_">
		<polygon id="main1_2_" class="st4" points="1007.485,468.557 1021.338,468.557 1014.773,475.238 998.006,475.238 998.006,383.004 
			1014.289,383.004 1020.973,389.565 1007.485,389.565 		"/>
		<path id="main2_3_" class="st4" d="M1027.726,459.37l-2.178-5.86c0.854,0.326,1.704,0.563,2.576,0.726
			c0.871,0.165,1.741,0.237,2.631,0.237c4.825,0,8.4-1.563,10.741-4.685c2.341-3.118,3.501-7.894,3.501-14.35
			c0-2.65-0.035-5.698-0.107-9.146c-0.073-3.429-0.109-5.533-0.109-6.313c0-10.887,2.306-19.27,6.913-25.146
			c4.607-5.88,11.158-8.818,19.668-8.818c2.378,0,4.664,0.27,6.859,0.797c2.195,0.526,4.409,1.342,6.641,2.449l2.179,5.462
			c-1.145-0.218-2.231-0.38-3.267-0.507c-1.053-0.127-2.031-0.183-2.957-0.183c-4.809,0-8.274,1.777-10.36,5.314
			c-2.086,3.538-3.14,9.472-3.14,17.818c0,0.381,0.021,1.704,0.057,3.973c0.036,2.27,0.054,4.355,0.054,6.225
			c0,6.17-0.417,11.016-1.235,14.531c-0.796,3.539-2.14,6.535-3.972,9.02c-2.667,3.503-5.861,6.152-9.599,7.947
			c-3.738,1.795-7.983,2.688-12.721,2.688c-2.448,0-4.662-0.185-6.64-0.528C1031.264,460.657,1029.43,460.113,1027.726,459.37
			L1027.726,459.37z"/>
		<path id="main3_3_" class="st4" d="M1100.334,398.03c-9.183,7.495-16.536,16.985-22.14,28.329
			c-5.738,11.545-8.566,22.943-8.566,34.91h16.609c0-3.324,0.641-7.646,1.921-12.299h20.4v12.299h17.618v-74.075
			C1117.867,387.194,1109.178,390.805,1100.334,398.03z M1108.561,437.004h-16.452c4.997-10.972,10.469-18.384,16.452-21.759
			V437.004z"/>
		<path id="main4_3_" class="st4" d="M1188.503,461.122h-17.722c0-12.49-4.56-25.991-13.672-40.51
			c-2.904-4.59-4.524-6.885-4.862-6.885v47.395h-17.62v-73.117h17.62c4.255,0,10.129,5.702,17.622,17.111
			c0.742,1.082,2.023,3.107,3.849,6.079v-23.191h14.786L1188.503,461.122L1188.503,461.122z"/>
		<polygon id="main5_2_" class="st4" points="1201.813,468.557 1215.664,468.557 1215.664,389.323 1202.42,389.323 
			1208.857,382.762 1225.021,382.762 1225.021,475.118 1208.131,475.118 		"/>
		<polygon id="main6_2_" class="st4" points="1256.021,461.108 1240.78,461.108 1240.78,398.477 1256.021,398.477 		"/>
		<polygon id="main7_2_" class="st4" points="1306.01,410.233 1290.688,410.233 1290.688,461.108 1275.623,461.108 
			1275.623,410.233 1259.611,410.233 1259.611,398.956 1306.01,398.956 		"/>
		<polygon id="main8_2_" class="st4" points="1356.708,410.233 1341.388,410.233 1341.388,461.108 1326.324,461.108 
			1326.324,410.233 1310.311,410.233 1310.311,398.956 1356.708,398.956 		"/>
		<polygon id="main9_2_" class="st4" points="1378.792,468.557 1392.646,468.557 1386.083,475.238 1369.313,475.238 
			1369.313,383.004 1385.596,383.004 1392.279,389.565 1378.792,389.565 		"/>
		<path id="sub1_2_" class="st4" d="M1394.582,416.846l-3.532,0.848l0.026-18.924h3.506V416.846L1394.582,416.846z
			 M1412.919,417.021l-3.737,0.789l0.061-3.184l-2.891-4.558c-1.09-1.692-1.957-2.84-2.599-3.443
			c-0.39-0.389-0.877-0.818-1.462-1.285l-1.516-1.079l-0.062,12.815l-3.387,0.819l-0.029-19.563c0.449,0,0.789,0.01,1.021,0.027
			c0.232,0.021,0.597,0.084,1.084,0.191c0.484,0.106,1.037,0.345,1.662,0.715c0.76,0.467,1.615,1.089,2.569,1.867
			c0.797,0.645,1.576,1.334,2.336,2.074c0.585,0.524,1.204,1.235,1.868,2.131c0.505,0.662,0.973,1.362,1.401,2.102v-8.673h3.736
			L1412.919,417.021L1412.919,417.021z M1419.694,405.866h9.168l-3.68,3.503h-5.43l-0.059,7.477l-3.505,0.877V398.77h16.089
			l-3.699,3.505h-8.885V405.866L1419.694,405.866z M1450.355,407.909c0,2.474-0.834,4.6-2.496,6.38
			c-1.666,1.78-3.654,2.672-5.974,2.672h-3.15c-2.337,0-4.333-0.887-5.988-2.656c-1.653-1.771-2.482-3.903-2.482-6.396
			c0-2.512,0.834-4.659,2.497-6.455c1.665-1.788,3.656-2.686,5.975-2.686h3.151c2.336,0,4.329,0.887,5.986,2.656
			C1449.527,403.198,1450.355,405.361,1450.355,407.909L1450.355,407.909z M1446.561,407.909c0-1.559-0.447-2.886-1.345-3.983
			c-0.896-1.104-2.006-1.652-3.329-1.652h-3.15c-1.268,0-2.369,0.557-3.303,1.666c-0.445,0.545-0.788,1.146-1.021,1.81
			c-0.234,0.661-0.351,1.383-0.351,2.161c0,1.518,0.456,2.82,1.371,3.912c0.916,1.09,2.016,1.637,3.303,1.637h3.15
			c1.282,0,2.387-0.547,3.301-1.637C1446.102,410.732,1446.561,409.428,1446.561,407.909L1446.561,407.909z M1469.771,416.729
			l-3.826,0.848l0.147-1.051l0.176-1.313c0-1.945-0.896-3.595-2.688-4.935c-1.791-1.345-4.078-2.016-6.863-2.016l5.14-5.11
			l0.117-0.232c0-0.176-0.236-0.353-0.714-0.524c-0.479-0.177-0.95-0.265-1.418-0.265h-4.027l-0.06,14.684l-3.826,0.765
			l0.029-18.949h7.944c1.671,0,3.077,0.34,4.217,1.021s1.709,1.488,1.709,2.425c0,0.467-0.201,0.981-0.613,1.544l-0.789,0.85
			l-1.4,1.313c2.198,0.954,3.854,2.249,4.965,3.886c0.564,0.895,1.004,1.938,1.312,3.123
			C1469.619,413.975,1469.771,415.286,1469.771,416.729L1469.771,416.729z M1496.314,416.963l-3.59,0.962l-3.797-10.924
			l-5.526,11.261l-5.416-11.181l-3.568,9.938l-4.028,0.614l7.125-19.506l5.897,12.177l6.017-12.177L1496.314,416.963
			L1496.314,416.963z M1505.689,410.597l-3.184,5.169c-0.058,0.174-0.136,0.351-0.23,0.527c-0.099,0.173-0.215,0.366-0.354,0.582
			l-0.231,0.321l-4.848,1.371l11.973-19.914l11.213,18.396l-3.708,1.344l-0.469-0.992l-0.643-1.462l-3.327-5.343H1505.689
			L1505.689,410.597L1505.689,410.597z M1507.823,407.092h1.954l-0.963-1.605L1507.823,407.092L1507.823,407.092z M1536.497,398.77
			l-3.621,3.504h-5.694l-0.059,14.571l-3.532,0.992l0.087-15.563h-8.146l3.386-3.504H1536.497L1536.497,398.77z M1541.871,416.846
			l-3.532,0.848l0.027-18.924h3.505V416.846L1541.871,416.846z M1563.625,407.909c0,2.474-0.833,4.6-2.498,6.38
			c-1.664,1.78-3.654,2.672-5.971,2.672h-3.153c-2.336,0-4.329-0.887-5.985-2.656c-1.656-1.771-2.484-3.903-2.484-6.396
			c0-2.512,0.833-4.659,2.499-6.455c1.663-1.788,3.654-2.686,5.972-2.686h3.153c2.335,0,4.331,0.887,5.987,2.656
			C1562.797,403.198,1563.625,405.361,1563.625,407.909L1563.625,407.909z M1559.828,407.909c0-1.559-0.449-2.886-1.342-3.983
			c-0.896-1.104-2.006-1.652-3.33-1.652h-3.153c-1.267,0-2.365,0.557-3.3,1.666c-0.448,0.545-0.789,1.146-1.021,1.81
			c-0.234,0.661-0.351,1.383-0.351,2.161c0,1.518,0.455,2.82,1.371,3.912c0.913,1.09,2.014,1.637,3.3,1.637h3.153
			c1.282,0,2.384-0.547,3.3-1.637C1559.37,410.732,1559.828,409.428,1559.828,407.909L1559.828,407.909z M1580.795,417.021
			l-3.739,0.789l0.061-3.184l-2.89-4.558c-1.09-1.692-1.957-2.84-2.599-3.443c-0.389-0.389-0.876-0.818-1.462-1.285l-1.518-1.079
			l-0.058,12.815l-3.388,0.819l-0.029-19.563c0.449,0,0.786,0.01,1.022,0.027c0.23,0.021,0.592,0.084,1.079,0.191
			c0.486,0.106,1.041,0.345,1.664,0.715c0.761,0.467,1.617,1.089,2.569,1.867c0.796,0.645,1.579,1.334,2.337,2.074
			c0.583,0.524,1.205,1.235,1.866,2.131c0.506,0.662,0.976,1.362,1.403,2.102v-8.673h3.737L1580.795,417.021L1580.795,417.021z"/>
		<path id="sub2_2_" class="st4" d="M1403.895,420.302l-3.62,3.503h-5.694l-0.061,14.571l-3.532,0.991l0.088-15.563h-8.147
			l3.388-3.503H1403.895L1403.895,420.302z M1406.057,427.25h13.779l-3.912,3.971l-9.896-0.088c0.29,1.053,0.813,1.946,1.573,2.687
			c0.778,0.682,1.646,1.024,2.6,1.024h8.03c0.681,0,1.509-0.102,2.48-0.295l1.345-0.32l-3.826,4.117h-8.818
			c-2.063,0-3.818-0.926-5.27-2.775c-1.451-1.849-2.178-4.088-2.178-6.715c0-2.355,0.736-4.395,2.207-6.118
			c1.47-1.722,3.216-2.583,5.239-2.583h12.41l-3.62,3.445h-8.001c-0.914,0-1.747,0.33-2.496,0.992
			C1406.955,425.257,1406.406,426.141,1406.057,427.25L1406.057,427.25z M1442.701,420.302l-4.206,3.417l-1.925,0.086h-5.782
			c-1.186,0-2.219,0.556-3.095,1.666c-0.432,0.563-0.748,1.168-0.965,1.809c-0.214,0.644-0.32,1.362-0.32,2.162
			c0,1.538,0.424,2.846,1.269,3.928c0.849,1.078,1.884,1.619,3.11,1.619h7.534c0.993,0,2.159-0.088,3.505-0.262
			c0.291,0,0.592-0.049,0.902-0.146l-3.911,3.912h-8.907c-1.984,0-3.698-0.894-5.139-2.684c-1.44-1.791-2.16-3.945-2.16-6.455
			c0-2.531,0.714-4.672,2.145-6.423c1.434-1.752,3.15-2.628,5.154-2.628L1442.701,420.302L1442.701,420.302L1442.701,420.302z
			 M1449.271,429.674l1.109-2.656h7.213l0.061-6.863h3.678v18.428l-3.797,0.643l0.118-8.702h-8.382v7.998l-3.971,0.85l0.029-19.214
			h3.94L1449.271,429.674L1449.271,429.674z M1479.729,438.553l-3.735,0.789l0.056-3.186l-2.89-4.556
			c-1.09-1.695-1.958-2.844-2.599-3.445c-0.391-0.389-0.875-0.816-1.461-1.285l-1.518-1.081l-0.061,12.819l-3.387,0.818
			l-0.025-19.564c0.443,0,0.783,0.01,1.02,0.029c0.233,0.021,0.593,0.082,1.081,0.188c0.484,0.108,1.041,0.348,1.663,0.719
			c0.759,0.465,1.615,1.088,2.568,1.864c0.799,0.646,1.576,1.336,2.336,2.074c0.587,0.525,1.208,1.236,1.869,2.132
			c0.506,0.661,0.973,1.363,1.4,2.104V420.3h3.738L1479.729,438.553L1479.729,438.553z M1501.396,429.441
			c0,2.471-0.834,4.601-2.5,6.38c-1.662,1.78-3.654,2.669-5.97,2.669h-3.153c-2.337,0-4.33-0.884-5.985-2.653
			c-1.655-1.773-2.484-3.904-2.484-6.396c0-2.512,0.832-4.662,2.498-6.453c1.663-1.793,3.654-2.687,5.973-2.687h3.153
			c2.334,0,4.328,0.884,5.984,2.656C1500.568,424.729,1501.396,426.891,1501.396,429.441L1501.396,429.441z M1497.6,429.441
			c0-1.559-0.448-2.887-1.343-3.986c-0.896-1.1-2.006-1.649-3.329-1.649h-3.154c-1.268,0-2.365,0.555-3.299,1.665
			c-0.448,0.547-0.787,1.147-1.023,1.81c-0.232,0.663-0.349,1.383-0.349,2.162c0,1.52,0.455,2.821,1.372,3.912
			c0.912,1.09,2.014,1.636,3.299,1.636h3.154c1.283,0,2.384-0.546,3.299-1.636C1497.142,432.263,1497.6,430.96,1497.6,429.441
			L1497.6,429.441z M1515.059,434.579l-3.735,3.911h-8.496l0.026-18.188h3.505l0.06,14.688h4.468c0.778,0,1.683-0.067,2.716-0.205
			L1515.059,434.579L1515.059,434.579z M1535.559,429.441c0,2.471-0.833,4.601-2.496,6.38c-1.662,1.78-3.653,2.669-5.972,2.669
			h-3.151c-2.336,0-4.332-0.884-5.988-2.653c-1.653-1.773-2.481-3.904-2.481-6.396c0-2.512,0.833-4.662,2.499-6.453
			c1.663-1.793,3.654-2.687,5.971-2.687h3.152c2.337,0,4.33,0.884,5.985,2.656C1534.732,424.729,1535.559,426.891,1535.559,429.441
			L1535.559,429.441z M1531.765,429.441c0-1.559-0.448-2.887-1.346-3.986c-0.896-1.1-2.006-1.649-3.328-1.649h-3.152
			c-1.267,0-2.365,0.555-3.301,1.665c-0.445,0.547-0.788,1.147-1.021,1.81c-0.234,0.663-0.351,1.383-0.351,2.162
			c0,1.52,0.457,2.821,1.371,3.912c0.915,1.09,2.016,1.636,3.302,1.636h3.152c1.285,0,2.382-0.546,3.298-1.636
			C1531.307,432.263,1531.765,430.96,1531.765,429.441L1531.765,429.441z M1556.175,420.302l-3.595,3.388l-7.182,0.115
			c-1.189,0-2.219,0.555-3.097,1.665c-0.43,0.563-0.75,1.169-0.964,1.81c-0.215,0.644-0.317,1.362-0.317,2.162
			c0,1.538,0.422,2.846,1.268,3.928c0.849,1.078,1.884,1.619,3.11,1.619h6.131v-4.322h-4.585c-0.563,0-1.48,0.089-2.745,0.265
			c-0.076,0-0.199,0.01-0.365,0.03c-0.166,0.02-0.347,0.059-0.541,0.113l3.768-3.912h7.974l-0.061,11.328h-9.577
			c-2.201,0-4.111-0.884-5.738-2.653c-1.627-1.773-2.438-3.904-2.438-6.396c0-2.512,0.793-4.662,2.379-6.452
			c1.587-1.794,3.521-2.688,5.798-2.688H1556.175L1556.175,420.302z M1580.645,420.594l-9.604,9.605v8.234l-3.564,0.759l0.061-8.906
			l-9.694-9.693h5.124l6.291,6.396l6.41-6.396L1580.645,420.594L1580.645,420.594z"/>
		<path id="sub3_2_" class="st4" d="M1403.939,441.941l-3.621,3.505h-5.693l-0.058,14.571l-3.534,0.992l0.088-15.563h-8.146
			l3.388-3.505H1403.939L1403.939,441.941z M1422.014,459.9l-3.821,0.848l0.144-1.05l0.176-1.314c0-1.945-0.896-3.593-2.687-4.935
			c-1.791-1.344-4.078-2.016-6.862-2.016l5.138-5.111l0.12-0.231c0-0.177-0.24-0.351-0.718-0.526
			c-0.476-0.173-0.948-0.263-1.416-0.263h-4.028l-0.061,14.685l-3.825,0.765l0.029-18.95h7.944c1.675,0,3.08,0.341,4.219,1.021
			c1.139,0.683,1.708,1.488,1.708,2.425c0,0.466-0.203,0.982-0.613,1.544l-0.788,0.85l-1.4,1.314
			c2.195,0.953,3.854,2.246,4.963,3.883c0.564,0.896,1.005,1.938,1.314,3.126C1421.859,457.145,1422.014,458.46,1422.014,459.9
			L1422.014,459.9z M1431.068,453.768l-3.185,5.171c-0.059,0.173-0.137,0.351-0.231,0.527c-0.099,0.173-0.215,0.365-0.352,0.583
			l-0.234,0.319l-4.849,1.375l11.974-19.916l11.213,18.396l-3.708,1.343l-0.468-0.994l-0.644-1.46l-3.329-5.345H1431.068
			L1431.068,453.768z M1433.199,450.266h1.959l-0.966-1.607L1433.199,450.266L1433.199,450.266z M1450.313,460.019l-3.533,0.847
			l0.028-18.923h3.505V460.019L1450.313,460.019z M1469.817,459.9l-3.738,0.789l0.059-3.182l-2.888-4.557
			c-1.092-1.694-1.959-2.844-2.6-3.445c-0.391-0.391-0.877-0.817-1.463-1.285l-1.518-1.08l-0.057,12.819l-3.387,0.816l-0.03-19.563
			c0.444,0,0.786,0.01,1.021,0.029c0.231,0.021,0.596,0.083,1.08,0.19c0.488,0.106,1.041,0.346,1.666,0.715
			c0.759,0.466,1.615,1.09,2.568,1.869c0.799,0.642,1.578,1.332,2.336,2.071c0.582,0.525,1.206,1.236,1.869,2.132
			c0.506,0.663,0.973,1.362,1.399,2.103v-8.673h3.737L1469.817,459.9L1469.817,459.9z M1476.447,460.019l-3.534,0.847l0.028-18.923
			h3.506V460.019L1476.447,460.019z M1495.368,459.9l-3.74,0.789l0.061-3.182l-2.892-4.557c-1.089-1.694-1.957-2.844-2.598-3.445
			c-0.391-0.391-0.878-0.817-1.46-1.285l-1.519-1.08l-0.061,12.819l-3.387,0.816l-0.028-19.563c0.447,0,0.788,0.01,1.023,0.029
			c0.23,0.021,0.592,0.083,1.079,0.19c0.484,0.106,1.041,0.346,1.663,0.715c0.76,0.466,1.616,1.09,2.568,1.869
			c0.799,0.642,1.578,1.332,2.337,2.071c0.586,0.525,1.207,1.236,1.869,2.132c0.506,0.663,0.973,1.362,1.401,2.103v-8.673h3.736
			L1495.368,459.9L1495.368,459.9z M1516.188,441.941l-3.595,3.387l-7.181,0.118c-1.188,0-2.218,0.557-3.096,1.665
			c-0.431,0.563-0.748,1.166-0.965,1.812c-0.214,0.643-0.318,1.36-0.318,2.16c0,1.537,0.424,2.846,1.269,3.928
			c0.848,1.077,1.884,1.619,3.11,1.619h6.13v-4.323h-4.585c-0.563,0-1.479,0.09-2.744,0.265c-0.077,0-0.199,0.01-0.363,0.029
			c-0.166,0.021-0.347,0.059-0.539,0.115l3.765-3.912h7.972l-0.059,11.328h-9.577c-2.202,0-4.11-0.885-5.739-2.657
			c-1.624-1.771-2.438-3.901-2.438-6.392c0-2.513,0.794-4.663,2.38-6.455c1.586-1.79,3.521-2.688,5.797-2.688L1516.188,441.941
			L1516.188,441.941L1516.188,441.941L1516.188,441.941z M1535.723,460.133h-20.731l3.504-3.502h13.692
			c-0.113-1.109-0.798-2.071-2.043-2.891c-0.975-0.622-2.315-1.158-4.03-1.605c-3.58-0.878-6.11-1.86-7.59-2.949
			c-1.248-0.896-1.868-1.898-1.868-3.009c0-1.147,0.38-2.141,1.139-2.979s1.692-1.256,2.802-1.256h14.279l-3.502,3.357l-8.002,0.118
			h-0.788h-0.729c-0.565,0-0.99,0.06-1.271,0.176c-0.28,0.115-0.422,0.357-0.422,0.728c0,0.176,0.412,0.429,1.24,0.76
			c0.828,0.33,2.449,0.839,4.862,1.519c2.841,0.759,5.043,1.725,6.599,2.893c1.907,1.459,2.862,3.317,2.862,5.576L1535.723,460.133
			L1535.723,460.133z"/>
	</g>
</g>
</svg>
