<svg version="1.1" id="logo" xmlns="http://www.w3.org/2000/svg" xmlns:xlink="http://www.w3.org/1999/xlink" x="0px" y="0px" width="100%"
	  viewBox="0 0 1753.362 278.194" xml:space="preserve">
	  <!-- width="1753.362px" height="278.194px" -->
	<style type="text/css">
		.st0{fill:#42955B;}
	</style>
	<polygon id="main1" class="st0" points="28.514,258.093 70.188,258.093 50.444,278.194 0,278.194 0,0.728 48.982,0.728 
		69.09,20.467 28.514,20.467 28.514,258.093 "/>
	<path id="main2" class="st0" d="M89.403,230.463l-6.55-17.632c2.564,0.979,5.127,1.691,7.75,2.18
		c2.62,0.495,5.236,0.715,7.914,0.715c14.515,0,25.273-4.699,32.313-14.088c7.041-9.387,10.533-23.747,10.533-43.169
		c0-7.973-0.107-17.143-0.323-27.517c-0.222-10.31-0.333-16.644-0.333-18.987c0-32.752,6.935-57.969,20.797-75.647
		c13.863-17.688,33.569-26.532,59.163-26.532c7.153,0,14.036,0.816,20.638,2.4c6.604,1.584,13.265,4.037,19.977,7.367l6.551,16.432
		c-3.438-0.655-6.712-1.143-9.82-1.526c-3.168-0.382-6.115-0.547-8.899-0.547c-14.464,0-24.892,5.347-31.168,15.991
		c-6.276,10.642-9.44,28.492-9.44,53.602c0,1.146,0.056,5.128,0.164,11.95c0.11,6.825,0.162,13.104,0.162,18.724
		c0,18.56-1.254,33.135-3.714,43.715c-2.396,10.647-6.438,19.658-11.95,27.129c-8.023,10.537-17.632,18.511-28.873,23.91
		c-11.246,5.4-24.016,8.083-38.266,8.083c-7.369,0-14.025-0.553-19.975-1.592C100.048,234.331,94.532,232.694,89.403,230.463
		L89.403,230.463z"/>
	<path id="main3" class="st0" d="M307.831,45.932c-27.625,22.548-49.746,51.098-66.602,85.22
		c-17.264,34.73-25.772,69.021-25.772,105.021h49.964c0-10,1.929-23,5.783-37h61.369v37h53V13.335
		C360.573,13.335,334.434,24.196,307.831,45.932z M332.573,163.173h-49.492c15.033-33,31.492-55.3,49.492-65.452V163.173z"/>
	<path id="main4" class="st0" d="M573.065,235.731h-53.312c0-37.576-13.712-78.189-41.129-121.864
		c-8.737-13.806-13.608-20.712-14.626-20.712v142.576h-53.007V15.774h53.007c12.799,0,30.468,17.155,53.012,51.479
		c2.232,3.253,6.09,9.344,11.578,18.285V15.772h44.479L573.065,235.731L573.065,235.731z"/>
	<polygon id="main5" class="st0" points="613.102,258.093 654.771,258.093 654.771,19.739 614.929,19.739 634.299,0 682.921,0 
		682.921,277.834 632.11,277.834 613.102,258.093 "/>
	<polygon id="main6" class="st0" points="776.181,235.687 730.327,235.687 730.327,47.273 776.181,47.273 776.181,235.687 "/>
	<polygon id="main7" class="st0" points="926.557,82.643 880.46,82.643 880.46,235.687 835.146,235.687 835.146,82.643 
		786.977,82.643 786.977,48.721 926.556,48.721 926.556,82.643 "/>
	<polygon id="main8" class="st0" points="1079.069,82.643 1032.983,82.643 1032.983,235.687 987.67,235.687 987.67,82.643 
		939.496,82.643 939.496,48.721 1079.07,48.721 1079.07,82.643 "/>
	<polygon id="main9" class="st0" points="1145.504,258.093 1187.185,258.093 1167.438,278.194 1116.989,278.194 1116.989,0.728 
		1165.971,0.728 1186.077,20.467 1145.503,20.467 1145.503,258.093 "/>
	<path id="sub1" class="st0" d="M1193.005,102.533l-10.624,2.55l0.08-56.927h10.544V102.533L1193.005,102.533z M1248.17,103.061
		l-11.243,2.376l0.176-9.579l-8.693-13.704c-3.278-5.096-5.888-8.547-7.815-10.365c-1.173-1.168-2.64-2.461-4.399-3.865l-4.56-3.245
		l-0.179,38.557l-10.189,2.462l-0.089-58.854c1.351,0,2.373,0.027,3.073,0.084c0.699,0.063,1.79,0.252,3.256,0.574
		c1.46,0.324,3.125,1.038,5.003,2.151c2.284,1.405,4.862,3.276,7.729,5.621c2.399,1.935,4.744,4.012,7.027,6.235
		c1.762,1.582,3.626,3.72,5.622,6.41c1.519,1.993,2.924,4.103,4.214,6.326V48.154h11.245L1248.17,103.061L1248.17,103.061z
		 M1268.551,69.506h27.578l-11.065,10.539h-16.336l-0.176,22.488l-10.545,2.638V48.156h48.401L1295.281,58.7h-26.729L1268.551,69.506
		L1268.551,69.506z M1360.784,75.653c0,7.436-2.506,13.834-7.51,19.192c-5.011,5.356-10.992,8.036-17.963,8.036h-9.481
		c-7.028,0-13.035-2.664-18.017-7.991c-4.974-5.331-7.463-11.743-7.463-19.237c0-7.554,2.506-14.021,7.508-19.416
		c5.01-5.386,11-8.082,17.972-8.082h9.481c7.028,0,13.025,2.668,18.01,7.993C1358.295,61.479,1360.784,67.985,1360.784,75.653
		L1360.784,75.653z M1349.37,75.653c0-4.688-1.349-8.681-4.045-11.987c-2.696-3.315-6.033-4.968-10.014-4.968h-9.482
		c-3.81,0-7.125,1.674-9.933,5.009c-1.342,1.639-2.373,3.45-3.071,5.446c-0.707,1.989-1.056,4.157-1.056,6.5
		c0,4.563,1.371,8.486,4.127,11.768c2.755,3.278,6.063,4.923,9.933,4.923h9.482c3.859,0,7.177-1.645,9.925-4.923
		C1347.991,84.142,1349.37,80.219,1349.37,75.653L1349.37,75.653z M1419.198,102.18l-11.51,2.55l0.442-3.16l0.53-3.952
		c0-5.854-2.699-10.812-8.084-14.844c-5.388-4.045-12.269-6.063-20.646-6.063l15.458-15.374l0.354-0.702
		c0-0.526-0.715-1.056-2.148-1.576c-1.438-0.531-2.859-0.796-4.262-0.796h-12.119l-0.179,44.172l-11.51,2.299l0.089-57.007h23.896
		c5.029,0,9.26,1.023,12.687,3.071c3.429,2.05,5.144,4.479,5.144,7.296c0,1.402-0.609,2.954-1.849,4.647l-2.373,2.55l-4.215,3.952
		c6.616,2.871,11.599,6.765,14.937,11.685c1.701,2.693,3.021,5.829,3.947,9.399C1418.735,93.895,1419.198,97.847,1419.198,102.18
		L1419.198,102.18z M1499.048,102.884l-10.802,2.896l-11.42-32.863l-16.631,33.874l-16.291-33.628l-10.733,29.896l-12.121,1.847
		l21.436-58.681l17.741,36.632l18.099-36.632L1499.048,102.884L1499.048,102.884z M1527.245,83.735l-9.571,15.551
		c-0.177,0.521-0.411,1.054-0.699,1.584c-0.294,0.521-0.647,1.104-1.063,1.753l-0.699,0.966l-14.582,4.129l36.017-59.909
		l33.731,55.343l-11.154,4.041l-1.408-2.986l-1.932-4.396l-10.013-16.072h-18.626V83.735z M1533.663,73.194h5.879l-2.896-4.83
		L1533.663,73.194L1533.663,73.194z M1619.922,48.155l-10.892,10.543h-17.131l-0.176,43.834l-10.625,2.983l0.258-46.817h-24.5
		l10.185-10.543H1619.922L1619.922,48.155z M1636.088,102.533l-10.624,2.55l0.08-56.927h10.544V102.533L1636.088,102.533z
		 M1701.53,75.653c0,7.436-2.506,13.834-7.517,19.192c-5.001,5.356-10.992,8.036-17.956,8.036h-9.488
		c-7.028,0-13.025-2.664-18.01-7.991c-4.979-5.331-7.471-11.743-7.471-19.237c0-7.554,2.506-14.021,7.518-19.416
		c5.002-5.386,10.992-8.082,17.963-8.082h9.488c7.021,0,13.027,2.668,18.009,7.993C1699.04,61.479,1701.53,67.985,1701.53,75.653
		L1701.53,75.653z M1690.11,75.653c0-4.688-1.35-8.681-4.039-11.987c-2.694-3.315-6.033-4.968-10.014-4.968h-9.488
		c-3.811,0-7.117,1.674-9.926,5.009c-1.349,1.639-2.373,3.45-3.071,5.446c-0.707,1.989-1.054,4.157-1.054,6.5
		c0,4.563,1.369,8.486,4.125,11.768c2.748,3.278,6.058,4.923,9.926,4.923h9.488c3.859,0,7.17-1.645,9.925-4.923
		C1688.733,84.142,1690.11,80.219,1690.11,75.653L1690.11,75.653z M1753.182,103.061l-11.246,2.376l0.179-9.579l-8.692-13.704
		c-3.278-5.096-5.89-8.547-7.817-10.365c-1.17-1.168-2.638-2.461-4.397-3.865l-4.567-3.245l-0.17,38.557l-10.189,2.462l-0.089-58.854
		c1.351,0,2.365,0.027,3.075,0.084c0.695,0.063,1.779,0.252,3.247,0.574c1.467,0.324,3.132,1.038,5.005,2.151
		c2.289,1.405,4.868,3.276,7.732,5.621c2.396,1.935,4.748,4.012,7.03,6.235c1.754,1.582,3.625,3.72,5.615,6.41
		c1.522,1.993,2.933,4.103,4.222,6.326V48.154h11.244L1753.182,103.061L1753.182,103.061z"/>
	<path id="sub2" class="st0" d="M1221.018,112.93l-10.892,10.537h-17.131l-0.179,43.836l-10.625,2.984l0.26-46.82h-24.508
		l10.188-10.537H1221.018L1221.018,112.93z M1227.522,133.833h41.453l-11.767,11.947l-29.774-0.267
		c0.877,3.168,2.453,5.856,4.737,8.082c2.343,2.049,4.951,3.08,7.817,3.08h24.16c2.047,0,4.539-0.302,7.463-0.885l4.047-0.966
		l-11.51,12.388h-26.533c-6.203,0-11.487-2.786-15.85-8.35c-4.361-5.563-6.551-12.299-6.551-20.2c0-7.086,2.218-13.218,6.641-18.404
		c4.42-5.182,9.674-7.771,15.76-7.771h37.334l-10.892,10.365h-24.069c-2.748,0-5.254,0.994-7.51,2.982
		C1230.227,127.836,1228.577,130.496,1227.522,133.833L1227.522,133.833z M1337.76,112.93l-12.651,10.278l-5.791,0.259h-17.396
		c-3.564,0-6.675,1.673-9.309,5.011c-1.295,1.693-2.252,3.516-2.899,5.444c-0.644,1.931-0.967,4.097-0.967,6.502
		c0,4.628,1.274,8.563,3.815,11.818c2.549,3.242,5.666,4.871,9.357,4.871h22.665c2.99,0,6.498-0.267,10.543-0.789
		c0.877,0,1.783-0.146,2.72-0.44l-11.769,11.767h-26.798c-5.967,0-11.124-2.688-15.457-8.075c-4.333-5.386-6.5-11.863-6.5-19.415
		c0-7.614,2.15-14.055,6.454-19.321c4.312-5.271,9.478-7.905,15.503-7.905h38.479L1337.76,112.93L1337.76,112.93z M1357.526,141.124
		l3.338-7.991h21.699l0.179-20.644h11.065v55.433l-11.422,1.93l0.354-26.178h-25.214v24.063l-11.943,2.552l0.088-57.799h11.855
		V141.124L1357.526,141.124z M1449.149,167.833l-11.244,2.373l0.17-9.579l-8.692-13.704c-3.278-5.101-5.89-8.553-7.817-10.364
		c-1.172-1.171-2.629-2.46-4.392-3.867l-4.567-3.251l-0.179,38.563l-10.188,2.461l-0.08-58.854c1.338,0,2.361,0.03,3.068,0.088
		c0.703,0.062,1.783,0.247,3.252,0.568c1.457,0.327,3.131,1.042,5.002,2.158c2.283,1.399,4.861,3.274,7.729,5.613
		c2.401,1.938,4.744,4.018,7.028,6.241c1.763,1.579,3.633,3.718,5.621,6.41c1.524,1.988,2.926,4.101,4.215,6.324v-26.086h11.244
		L1449.149,167.833L1449.149,167.833z M1514.329,140.424c0,7.435-2.506,13.838-7.518,19.193c-5.003,5.355-10.993,8.03-17.956,8.03
		h-9.49c-7.028,0-13.024-2.658-18.007-7.985c-4.98-5.335-7.473-11.745-7.473-19.238c0-7.557,2.506-14.024,7.517-19.411
		c5.002-5.394,10.993-8.083,17.963-8.083h9.49c7.022,0,13.021,2.66,18.001,7.991C1511.839,126.251,1514.329,132.749,1514.329,140.424
		L1514.329,140.424z M1502.907,140.424c0-4.688-1.349-8.685-4.037-11.992c-2.695-3.308-6.035-4.965-10.015-4.965h-9.49
		c-3.81,0-7.117,1.672-9.924,5.01c-1.349,1.645-2.372,3.455-3.08,5.445c-0.7,1.993-1.046,4.158-1.046,6.502
		c0,4.568,1.369,8.487,4.126,11.769c2.747,3.278,6.056,4.923,9.924,4.923h9.49c3.86,0,7.17-1.645,9.926-4.923
		C1501.53,148.911,1502.907,144.992,1502.907,140.424L1502.907,140.424z M1555.434,155.883l-11.244,11.767h-25.56l0.08-54.72h10.545
		l0.178,44.186h13.439c2.342,0,5.062-0.207,8.17-0.619L1555.434,155.883L1555.434,155.883z M1617.1,140.424
		c0,7.435-2.505,13.838-7.51,19.193c-5.002,5.355-10.993,8.03-17.963,8.03h-9.483c-7.026,0-13.033-2.658-18.015-7.985
		c-4.974-5.335-7.463-11.745-7.463-19.238c0-7.557,2.504-14.024,7.515-19.411c5.004-5.394,10.994-8.083,17.963-8.083h9.483
		c7.028,0,13.026,2.66,18.008,7.991C1614.608,126.251,1617.1,132.749,1617.1,140.424L1617.1,140.424z M1605.686,140.424
		c0-4.688-1.351-8.685-4.045-11.992c-2.696-3.308-6.035-4.965-10.015-4.965h-9.483c-3.81,0-7.116,1.672-9.931,5.01
		c-1.342,1.645-2.373,3.455-3.074,5.445c-0.707,1.993-1.054,4.158-1.054,6.502c0,4.568,1.377,8.487,4.126,11.769
		c2.755,3.278,6.063,4.923,9.932,4.923h9.483c3.867,0,7.168-1.645,9.924-4.923C1604.307,148.911,1605.686,144.992,1605.686,140.424
		L1605.686,140.424z M1679.118,112.93l-10.812,10.189l-21.604,0.348c-3.58,0-6.674,1.672-9.313,5.01
		c-1.291,1.694-2.254,3.517-2.902,5.445c-0.643,1.93-0.959,4.096-0.959,6.502c0,4.628,1.27,8.563,3.816,11.818
		c2.551,3.241,5.667,4.871,9.357,4.871h18.441v-13.005h-13.793c-1.693,0-4.451,0.265-8.254,0.795c-0.232,0-0.604,0.027-1.1,0.089
		c-0.5,0.062-1.045,0.177-1.627,0.346l11.332-11.771h23.982l-0.177,34.081h-28.81c-6.623,0-12.369-2.659-17.266-7.986
		c-4.893-5.335-7.338-11.745-7.338-19.238c0-7.557,2.389-14.023,7.161-19.409c4.772-5.396,10.588-8.084,17.438-8.084L1679.118,112.93
		L1679.118,112.93z M1752.731,113.807l-28.896,28.9v24.771l-10.724,2.284l0.181-26.791l-29.164-29.166h15.414l18.931,19.238
		l19.279-19.238L1752.731,113.807L1752.731,113.807z"/>
	<path id="sub3" class="st0" d="M1221.157,178.03l-10.896,10.543h-17.124l-0.177,43.834l-10.633,2.983l0.267-46.817h-24.508
		l10.19-10.543H1221.157L1221.157,178.03z M1275.526,232.054l-11.5,2.551l0.435-3.159l0.528-3.958c0-5.853-2.694-10.803-8.082-14.84
		c-5.387-4.045-12.269-6.063-20.646-6.063l15.458-15.377l0.361-0.699c0-0.53-0.723-1.055-2.158-1.585
		c-1.432-0.521-2.853-0.789-4.26-0.789h-12.119l-0.18,44.174l-11.508,2.299l0.088-57.008h23.896c5.041,0,9.27,1.023,12.693,3.071
		c3.426,2.05,5.139,4.479,5.139,7.296c0,1.399-0.613,2.954-1.846,4.647l-2.372,2.55l-4.216,3.958
		c6.609,2.865,11.6,6.755,14.932,11.678c1.701,2.697,3.021,5.828,3.957,9.402C1275.062,223.765,1275.526,227.721,1275.526,232.054
		L1275.526,232.054z M1302.766,213.604l-9.578,15.556c-0.177,0.522-0.412,1.055-0.699,1.586c-0.295,0.521-0.647,1.104-1.054,1.752
		l-0.709,0.966l-14.582,4.135l36.017-59.912l33.731,55.343l-11.154,4.038l-1.409-2.991l-1.931-4.392l-10.013-16.078L1302.766,213.604
		L1302.766,213.604z M1309.177,203.069h5.889l-2.902-4.834L1309.177,203.069L1309.177,203.069z M1360.659,232.408l-10.633,2.549
		l0.09-56.926h10.543V232.408L1360.659,232.408z M1419.331,232.054l-11.244,2.373l0.176-9.57l-8.69-13.705
		c-3.28-5.101-5.89-8.556-7.817-10.366c-1.172-1.173-2.64-2.461-4.398-3.867l-4.566-3.25l-0.17,38.563l-10.189,2.461l-0.089-58.855
		c1.341,0,2.365,0.029,3.071,0.089c0.699,0.061,1.791,0.25,3.25,0.574c1.467,0.324,3.131,1.039,5.01,2.151
		c2.283,1.399,4.862,3.276,7.729,5.621c2.401,1.931,4.745,4.009,7.028,6.233c1.752,1.583,3.627,3.721,5.621,6.41
		c1.52,1.996,2.926,4.104,4.215,6.327v-26.091h11.242L1419.331,232.054L1419.331,232.054z M1439.276,232.408l-10.631,2.549
		l0.086-56.926h10.545V232.408L1439.276,232.408z M1496.196,232.054l-11.252,2.373l0.179-9.57l-8.694-13.705
		c-3.276-5.101-5.889-8.556-7.816-10.366c-1.171-1.173-2.639-2.461-4.393-3.867l-4.567-3.25l-0.179,38.563l-10.188,2.461
		l-0.088-58.855c1.349,0,2.372,0.029,3.08,0.089c0.699,0.061,1.783,0.25,3.248,0.574c1.46,0.324,3.131,1.039,5.006,2.151
		c2.282,1.399,4.86,3.276,7.728,5.621c2.401,1.931,4.746,4.009,7.028,6.233c1.763,1.583,3.633,3.721,5.623,6.41
		c1.524,1.996,2.925,4.104,4.215,6.327v-26.091h11.243L1496.196,232.054L1496.196,232.054z M1558.825,178.03l-10.81,10.188
		l-21.604,0.354c-3.574,0-6.674,1.67-9.313,5.01c-1.289,1.693-2.253,3.508-2.902,5.445c-0.642,1.931-0.959,4.097-0.959,6.498
		c0,4.627,1.276,8.562,3.817,11.816c2.549,3.241,5.667,4.871,9.356,4.871h18.442v-13.005h-13.794c-1.693,0-4.451,0.271-8.253,0.795
		c-0.233,0-0.604,0.03-1.099,0.088c-0.494,0.062-1.039,0.179-1.621,0.348l11.326-11.768h23.981l-0.177,34.077h-28.811
		c-6.623,0-12.369-2.658-17.264-7.993c-4.887-5.327-7.34-11.737-7.34-19.23c0-7.553,2.389-14.028,7.162-19.416
		c4.773-5.386,10.589-8.082,17.439-8.082h32.416v0.003H1558.825z M1617.594,232.754h-62.371l10.544-10.536h41.193
		c-0.347-3.338-2.399-6.231-6.146-8.693c-2.935-1.871-6.97-3.484-12.127-4.834c-10.772-2.64-18.383-5.594-22.834-8.871
		c-3.751-2.696-5.622-5.709-5.622-9.05c0-3.454,1.143-6.438,3.426-8.959c2.283-2.521,5.093-3.778,8.43-3.778h42.957l-10.537,10.102
		l-24.071,0.354h-2.371h-2.196c-1.701,0-2.978,0.179-3.821,0.53c-0.849,0.347-1.274,1.076-1.274,2.188
		c0,0.529,1.244,1.289,3.733,2.285c2.492,0.992,7.369,2.519,14.627,4.565c8.547,2.283,15.171,5.188,19.851,8.702
		c5.74,4.391,8.612,9.981,8.612,16.775L1617.594,232.754L1617.594,232.754z"/>
</svg>
