<?xml version="1.0" encoding="utf-8"?>
<!-- Generator: Adobe Illustrator 15.1.0, SVG Export Plug-In . SVG Version: 6.00 Build 0)  -->
<!DOCTYPE svg PUBLIC "-//W3C//DTD SVG 1.1//EN" "http://www.w3.org/Graphics/SVG/1.1/DTD/svg11.dtd">
<svg version="1.1" id="Ebene_1" xmlns="http://www.w3.org/2000/svg" xmlns:xlink="http://www.w3.org/1999/xlink" x="0px" y="0px"
	 width="1920px" height="800px" viewBox="0 0 1920 800" style="enable-background:new 0 0 1920 800;" xml:space="preserve">
<style type="text/css">
<![CDATA[
	.st0{fill:#009245;stroke:#000000;stroke-miterlimit:10;}
	.st1{fill:#FFFFFF;}
]]>
</style>
<g>
	<g>
		<polygon id="Arrow" class="st0" points="1816.707,293.107 1666.5,206.385 1666.5,246.5 253.5,246.5 253.5,206.385 
			103.293,293.105 253.5,379.828 253.5,339.5 1666.5,339.5 1666.5,379.828 		"/>
		<g>
			<path class="st1" d="M682.148,297.89c0,3.047-1.102,5.438-3.305,7.172s-5.242,2.602-9.117,2.602
				c-3.875,0-7.047-0.602-9.516-1.805v-5.297c1.562,0.734,3.223,1.313,4.98,1.734s3.395,0.633,4.91,0.633
				c2.218,0,3.855-0.422,4.91-1.266s1.582-1.977,1.582-3.398c0-1.281-0.484-2.367-1.453-3.258c-0.969-0.891-2.969-1.945-6-3.164
				c-3.125-1.266-5.329-2.711-6.609-4.336c-1.281-1.625-1.922-3.578-1.922-5.859c0-2.859,1.016-5.109,3.047-6.75
				c2.031-1.641,4.758-2.461,8.18-2.461c3.281,0,6.547,0.719,9.797,2.156l-1.781,4.57c-3.047-1.281-5.766-1.922-8.156-1.922
				c-1.813,0-3.188,0.395-4.125,1.184s-1.406,1.832-1.406,3.129c0,0.891,0.188,1.652,0.563,2.285s0.992,1.23,1.852,1.793
				c0.859,0.563,2.406,1.305,4.641,2.227c2.516,1.047,4.359,2.023,5.531,2.93s2.031,1.93,2.578,3.07
				C681.875,295,682.148,296.343,682.148,297.89z"/>
			<path class="st1" d="M711.187,294.187c0,4.234-1.086,7.539-3.258,9.914c-2.172,2.375-5.195,3.563-9.07,3.563
				c-2.422,0-4.563-0.547-6.422-1.641c-1.86-1.094-3.29-2.664-4.289-4.711c-1-2.047-1.5-4.422-1.5-7.125
				c0-4.203,1.078-7.484,3.234-9.844s5.195-3.539,9.117-3.539c3.75,0,6.718,1.207,8.906,3.621
				C710.093,286.839,711.187,290.093,711.187,294.187z M692.32,294.187c0,5.984,2.211,8.977,6.633,8.977
				c4.375,0,6.563-2.992,6.563-8.977c0-5.922-2.203-8.883-6.609-8.883c-2.313,0-3.988,0.766-5.027,2.297
				C692.839,289.132,692.32,291.328,692.32,294.187z"/>
			<path class="st1" d="M730.523,285.445h-6.328v21.75h-5.531v-21.75h-4.266v-2.578l4.266-1.688v-1.688
				c0-3.063,0.718-5.332,2.156-6.809c1.438-1.477,3.633-2.215,6.586-2.215c1.937,0,3.844,0.32,5.719,0.961l-1.453,4.172
				c-1.359-0.438-2.657-0.656-3.891-0.656c-1.25,0-2.16,0.387-2.73,1.16c-0.571,0.773-0.855,1.934-0.855,3.48v1.688h6.328V285.445z"
				/>
			<path class="st1" d="M744.585,303.21c1.344,0,2.687-0.211,4.031-0.633v4.148c-0.609,0.266-1.395,0.488-2.355,0.668
				s-1.957,0.27-2.988,0.27c-5.219,0-7.828-2.75-7.828-8.25v-13.969h-3.539v-2.438l3.797-2.016l1.875-5.484h3.398v5.766h7.383v4.172
				h-7.383v13.875c0,1.328,0.332,2.309,0.996,2.941C742.636,302.894,743.507,303.21,744.585,303.21z"/>
			<path class="st1" d="M775.054,307.195l-3.352-12.094c-0.407-1.281-1.141-4.258-2.203-8.93h-0.211
				c-0.906,4.219-1.625,7.211-2.156,8.977l-3.445,12.047h-6.094l-7.266-25.922h5.625l3.305,12.773
				c0.75,3.156,1.281,5.859,1.594,8.109h0.141c0.156-1.141,0.395-2.449,0.715-3.926c0.32-1.477,0.598-2.582,0.832-3.316
				l3.938-13.641h6.047l3.82,13.641c0.234,0.766,0.527,1.938,0.879,3.516s0.559,2.805,0.621,3.68h0.188
				c0.234-1.922,0.781-4.609,1.641-8.063l3.352-12.773h5.531l-7.313,25.922H775.054z"/>
			<path class="st1" d="M809.226,307.195l-1.102-3.609h-0.188c-1.25,1.578-2.508,2.652-3.773,3.223s-2.891,0.855-4.875,0.855
				c-2.547,0-4.535-0.688-5.965-2.063s-2.145-3.32-2.145-5.836c0-2.672,0.992-4.688,2.977-6.047c1.984-1.359,5.007-2.102,9.07-2.227
				l4.477-0.141v-1.383c0-1.656-0.387-2.895-1.16-3.715s-1.973-1.23-3.598-1.23c-1.328,0-2.602,0.195-3.82,0.586
				s-2.391,0.852-3.516,1.383l-1.781-3.938c1.406-0.734,2.945-1.293,4.617-1.676c1.672-0.383,3.25-0.574,4.734-0.574
				c3.296,0,5.785,0.719,7.465,2.156c1.679,1.438,2.52,3.695,2.52,6.773v17.461H809.226z M801.023,303.445
				c2,0,3.605-0.559,4.816-1.676c1.21-1.117,1.816-2.684,1.816-4.699v-2.25l-3.328,0.141c-2.594,0.094-4.48,0.527-5.66,1.301
				c-1.18,0.773-1.77,1.957-1.77,3.551c0,1.156,0.343,2.051,1.031,2.684C798.617,303.128,799.648,303.445,801.023,303.445z"/>
			<path class="st1" d="M834,280.804c1.109,0,2.023,0.078,2.742,0.234l-0.539,5.133c-0.782-0.188-1.594-0.281-2.438-0.281
				c-2.203,0-3.988,0.719-5.355,2.156c-1.368,1.438-2.051,3.305-2.051,5.602v13.547h-5.508v-25.922h4.313l0.727,4.57h0.281
				c0.859-1.547,1.98-2.773,3.363-3.68S832.406,280.804,834,280.804z"/>
			<path class="st1" d="M852.867,307.664c-4.031,0-7.184-1.176-9.457-3.527s-3.41-5.59-3.41-9.715c0-4.234,1.055-7.563,3.164-9.984
				s5.007-3.633,8.695-3.633c3.422,0,6.125,1.039,8.109,3.117c1.984,2.078,2.977,4.938,2.977,8.578v2.977h-17.273
				c0.078,2.516,0.758,4.449,2.039,5.801c1.281,1.352,3.085,2.027,5.414,2.027c1.531,0,2.957-0.145,4.277-0.434
				c1.32-0.289,2.738-0.77,4.254-1.441v4.477c-1.344,0.641-2.704,1.094-4.078,1.359
				C856.203,307.531,854.632,307.664,852.867,307.664z M851.859,284.976c-1.75,0-3.152,0.555-4.207,1.664s-1.684,2.727-1.887,4.852
				h11.766c-0.032-2.141-0.547-3.762-1.547-4.863C854.984,285.527,853.608,284.976,851.859,284.976z"/>
			<path class="st1" d="M878.859,303.21c1.344,0,2.687-0.211,4.031-0.633v4.148c-0.609,0.266-1.395,0.488-2.355,0.668
				s-1.957,0.27-2.988,0.27c-5.219,0-7.828-2.75-7.828-8.25v-13.969h-3.539v-2.438l3.797-2.016l1.875-5.484h3.398v5.766h7.383v4.172
				h-7.383v13.875c0,1.328,0.332,2.309,0.996,2.941C876.91,302.894,877.781,303.21,878.859,303.21z"/>
			<path class="st1" d="M899.39,307.664c-4.031,0-7.184-1.176-9.457-3.527s-3.41-5.59-3.41-9.715c0-4.234,1.055-7.563,3.164-9.984
				s5.007-3.633,8.695-3.633c3.422,0,6.125,1.039,8.109,3.117c1.984,2.078,2.977,4.938,2.977,8.578v2.977h-17.273
				c0.078,2.516,0.758,4.449,2.039,5.801c1.281,1.352,3.085,2.027,5.414,2.027c1.531,0,2.957-0.145,4.277-0.434
				c1.32-0.289,2.738-0.77,4.254-1.441v4.477c-1.344,0.641-2.704,1.094-4.078,1.359C902.726,307.531,901.156,307.664,899.39,307.664
				z M898.382,284.976c-1.75,0-3.152,0.555-4.207,1.664s-1.684,2.727-1.887,4.852h11.766c-0.032-2.141-0.547-3.762-1.547-4.863
				C901.507,285.527,900.132,284.976,898.382,284.976z"/>
			<path class="st1" d="M933.14,299.812c0,2.531-0.922,4.473-2.766,5.824c-1.844,1.352-4.485,2.027-7.922,2.027
				c-3.454,0-6.227-0.523-8.32-1.57v-4.758c3.047,1.406,5.883,2.109,8.508,2.109c3.39,0,5.086-1.023,5.086-3.07
				c0-0.656-0.188-1.203-0.563-1.641s-0.993-0.891-1.852-1.359c-0.859-0.469-2.055-1-3.586-1.594
				c-2.985-1.156-5.004-2.313-6.059-3.469s-1.582-2.656-1.582-4.5c0-2.219,0.894-3.941,2.684-5.168
				c1.789-1.227,4.222-1.84,7.301-1.84c3.047,0,5.93,0.617,8.648,1.852l-1.781,4.148c-2.797-1.156-5.148-1.734-7.055-1.734
				c-2.906,0-4.359,0.828-4.359,2.484c0,0.813,0.378,1.5,1.137,2.063c0.758,0.563,2.41,1.336,4.957,2.32
				c2.141,0.828,3.695,1.586,4.664,2.273c0.969,0.688,1.688,1.48,2.156,2.379S933.14,298.562,933.14,299.812z"/>
			<path class="st1" d="M948.75,303.21c1.344,0,2.687-0.211,4.031-0.633v4.148c-0.609,0.266-1.395,0.488-2.355,0.668
				s-1.957,0.27-2.988,0.27c-5.219,0-7.828-2.75-7.828-8.25v-13.969h-3.539v-2.438l3.797-2.016l1.875-5.484h3.398v5.766h7.383v4.172
				h-7.383v13.875c0,1.328,0.332,2.309,0.996,2.941C946.8,302.894,947.671,303.21,948.75,303.21z"/>
			<path class="st1" d="M983.672,280.804c3.234,0,5.754,1.172,7.559,3.516s2.707,5.633,2.707,9.867c0,4.25-0.914,7.559-2.742,9.926
				s-4.368,3.551-7.617,3.551c-3.281,0-5.828-1.18-7.641-3.539h-0.375l-1.008,3.07h-4.125v-36.469h5.508v8.672
				c0,0.641-0.032,1.594-0.094,2.859c-0.063,1.266-0.109,2.07-0.141,2.414h0.234C977.687,282.093,980.265,280.804,983.672,280.804z
				 M982.242,285.304c-2.219,0-3.817,0.652-4.793,1.957c-0.977,1.305-1.48,3.488-1.512,6.551v0.375c0,3.156,0.5,5.441,1.5,6.855
				c0.999,1.414,2.633,2.121,4.898,2.121c1.953,0,3.434-0.773,4.441-2.32s1.512-3.781,1.512-6.703
				C988.289,288.25,986.273,285.304,982.242,285.304z"/>
			<path class="st1" d="M1011.656,307.664c-4.031,0-7.184-1.176-9.457-3.527s-3.41-5.59-3.41-9.715c0-4.234,1.055-7.563,3.164-9.984
				s5.007-3.633,8.695-3.633c3.422,0,6.125,1.039,8.109,3.117c1.983,2.078,2.977,4.938,2.977,8.578v2.977h-17.273
				c0.078,2.516,0.758,4.449,2.039,5.801c1.28,1.352,3.085,2.027,5.414,2.027c1.531,0,2.956-0.145,4.277-0.434
				c1.32-0.289,2.738-0.77,4.254-1.441v4.477c-1.345,0.641-2.704,1.094-4.078,1.359
				C1014.992,307.531,1013.422,307.664,1011.656,307.664z M1010.648,284.976c-1.75,0-3.152,0.555-4.207,1.664
				s-1.685,2.727-1.887,4.852h11.766c-0.032-2.141-0.548-3.762-1.547-4.863C1013.773,285.527,1012.397,284.976,1010.648,284.976z"/>
			<path class="st1" d="M1027.664,274.406c0-0.984,0.27-1.742,0.809-2.273s1.309-0.797,2.309-0.797c0.969,0,1.723,0.266,2.262,0.797
				s0.809,1.289,0.809,2.273c0,0.938-0.27,1.676-0.809,2.215s-1.293,0.809-2.262,0.809c-1,0-1.77-0.27-2.309-0.809
				S1027.664,275.343,1027.664,274.406z M1033.5,307.195h-5.508v-25.922h5.508V307.195z"/>
			<path class="st1" d="M1064.555,314.789h-11.039v-41.859h11.039v4.125h-6v33.586h6V314.789z"/>
			<path class="st1" d="M1090.031,297.89c0,3.047-1.102,5.438-3.305,7.172s-5.242,2.602-9.117,2.602
				c-3.876,0-7.047-0.602-9.516-1.805v-5.297c1.562,0.734,3.223,1.313,4.98,1.734s3.395,0.633,4.91,0.633
				c2.218,0,3.855-0.422,4.91-1.266s1.582-1.977,1.582-3.398c0-1.281-0.484-2.367-1.453-3.258c-0.97-0.891-2.969-1.945-6-3.164
				c-3.126-1.266-5.329-2.711-6.609-4.336c-1.281-1.625-1.922-3.578-1.922-5.859c0-2.859,1.016-5.109,3.047-6.75
				c2.03-1.641,4.758-2.461,8.18-2.461c3.281,0,6.547,0.719,9.797,2.156l-1.781,4.57c-3.047-1.281-5.766-1.922-8.156-1.922
				c-1.813,0-3.188,0.395-4.125,1.184s-1.406,1.832-1.406,3.129c0,0.891,0.188,1.652,0.563,2.285s0.992,1.23,1.852,1.793
				c0.858,0.563,2.405,1.305,4.641,2.227c2.516,1.047,4.359,2.023,5.531,2.93s2.03,1.93,2.578,3.07
				C1089.758,295,1090.031,296.343,1090.031,297.89z"/>
			<path class="st1" d="M1117.922,307.195l-3.422-9.516h-13.102l-3.352,9.516h-5.906l12.82-34.406h6.094l12.82,34.406H1117.922z
				 M1113.023,292.851l-3.211-9.328c-0.234-0.625-0.56-1.609-0.973-2.953c-0.414-1.344-0.7-2.328-0.855-2.953
				c-0.422,1.922-1.04,4.023-1.852,6.305l-3.094,8.93H1113.023z"/>
			<path class="st1" d="M1156.945,307.195h-6.867l-16.852-27.305h-0.188l0.117,1.523c0.219,2.906,0.328,5.563,0.328,7.969v17.813
				h-5.086v-34.266h6.797L1152,300.093h0.141c-0.032-0.359-0.094-1.668-0.188-3.926s-0.141-4.02-0.141-5.285v-17.953h5.133V307.195z
				"/>
			<path class="st1" d="M1162.664,310.64h6v-33.586h-6v-4.125h10.992v41.859h-10.992V310.64z"/>
			<path class="st1" d="M1181.836,307.195v-34.266h5.602v34.266H1181.836z"/>
			<path class="st1" d="M1208.32,307.195h-5.602v-29.461h-10.078v-4.805h25.758v4.805h-10.078V307.195z"/>
			<path class="st1" d="M1235.484,307.195h-5.602v-29.461h-10.078v-4.805h25.758v4.805h-10.078V307.195z"/>
			<path class="st1" d="M1260.938,314.789h-11.039v-41.859h11.039v4.125h-6v33.586h6V314.789z"/>
		</g>
	</g>
	<g>
		<path id="card1" class="st0" d="M630.501,582.303c-12,12-26.999,11.197-26.999,11.197H299.5V430.439
			c0,0-0.666-15.469,10.667-26.803c11.333-11.334,25.667-10.137,25.667-10.137H641.5v163.606
			C641.5,557.106,642.501,570.303,630.501,582.303z"/>
		<g>
			<path class="st1" d="M332.849,504.106h-4.201v-22.096h-7.559v-3.604h19.318v3.604h-7.559V504.106z"/>
			<path class="st1" d="M352.396,504.458c-3.023,0-5.388-0.882-7.093-2.646s-2.558-4.192-2.558-7.286
				c0-3.176,0.791-5.672,2.373-7.488s3.756-2.725,6.521-2.725c2.566,0,4.594,0.779,6.082,2.338s2.232,3.703,2.232,6.434v2.232H347
				c0.059,1.887,0.568,3.337,1.529,4.351s2.314,1.521,4.061,1.521c1.148,0,2.218-0.108,3.208-0.325s2.054-0.577,3.19-1.081v3.357
				c-1.008,0.48-2.027,0.82-3.059,1.02S353.72,504.458,352.396,504.458z M351.64,487.442c-1.313,0-2.364,0.416-3.155,1.248
				s-1.263,2.045-1.415,3.639h8.824c-0.023-1.605-0.41-2.821-1.16-3.647S352.953,487.442,351.64,487.442z"/>
			<path class="st1" d="M377.708,498.569c0,1.898-0.691,3.354-2.074,4.368s-3.363,1.521-5.941,1.521c-2.59,0-4.67-0.393-6.24-1.178
				v-3.568c2.285,1.055,4.412,1.582,6.381,1.582c2.543,0,3.814-0.768,3.814-2.303c0-0.492-0.141-0.902-0.422-1.23
				s-0.744-0.668-1.389-1.02s-1.541-0.75-2.689-1.195c-2.238-0.867-3.753-1.734-4.544-2.602s-1.187-1.992-1.187-3.375
				c0-1.664,0.671-2.956,2.013-3.876s3.167-1.38,5.476-1.38c2.285,0,4.447,0.463,6.486,1.389l-1.336,3.111
				c-2.098-0.867-3.861-1.301-5.291-1.301c-2.18,0-3.27,0.621-3.27,1.863c0,0.609,0.284,1.125,0.853,1.547s1.808,1.002,3.718,1.74
				c1.605,0.621,2.771,1.189,3.498,1.705s1.266,1.11,1.617,1.784S377.708,497.632,377.708,498.569z"/>
			<path class="st1" d="M389.416,501.118c1.008,0,2.016-0.158,3.023-0.475v3.111c-0.457,0.199-1.046,0.366-1.767,0.501
				s-1.468,0.202-2.241,0.202c-3.914,0-5.871-2.063-5.871-6.188v-10.477h-2.654v-1.828l2.848-1.512l1.406-4.113h2.549v4.324h5.537
				v3.129h-5.537V498.2c0,0.996,0.249,1.731,0.747,2.206S388.607,501.118,389.416,501.118z"/>
			<path class="st1" d="M400.753,504.106l-7.383-19.441h4.359l3.955,11.303c0.68,1.898,1.09,3.434,1.23,4.605h0.141
				c0.105-0.844,0.516-2.379,1.23-4.605l3.955-11.303h4.395l-7.418,19.441H400.753z"/>
			<path class="st1" d="M432.833,494.351c0,3.176-0.814,5.654-2.443,7.436s-3.896,2.672-6.803,2.672c-1.816,0-3.422-0.41-4.816-1.23
				s-2.467-1.998-3.217-3.533s-1.125-3.316-1.125-5.344c0-3.152,0.809-5.613,2.426-7.383s3.896-2.654,6.838-2.654
				c2.813,0,5.039,0.905,6.68,2.716S432.833,491.28,432.833,494.351z M418.683,494.351c0,4.488,1.658,6.732,4.975,6.732
				c3.281,0,4.922-2.244,4.922-6.732c0-4.441-1.652-6.662-4.957-6.662c-1.734,0-2.991,0.574-3.771,1.723
				S418.683,492.206,418.683,494.351z"/>
			<path class="st1" d="M447.441,484.313c0.832,0,1.518,0.059,2.057,0.176l-0.404,3.85c-0.586-0.141-1.195-0.211-1.828-0.211
				c-1.652,0-2.991,0.539-4.017,1.617s-1.538,2.479-1.538,4.201v10.16h-4.131v-19.441h3.234l0.545,3.428h0.211
				c0.645-1.16,1.485-2.08,2.522-2.76S446.246,484.313,447.441,484.313z"/>
			<path class="st1" d="M463.033,484.313c2.426,0,4.315,0.879,5.669,2.637s2.03,4.225,2.03,7.4c0,3.188-0.686,5.669-2.057,7.444
				s-3.275,2.663-5.713,2.663c-2.461,0-4.371-0.885-5.73-2.654h-0.281l-0.756,2.303h-3.094v-27.352h4.131v6.504
				c0,0.48-0.023,1.195-0.07,2.145s-0.082,1.553-0.105,1.811h0.176C458.544,485.28,460.478,484.313,463.033,484.313z
				 M461.96,487.688c-1.664,0-2.862,0.489-3.595,1.468s-1.11,2.616-1.134,4.913v0.281c0,2.367,0.375,4.081,1.125,5.142
				s1.975,1.591,3.674,1.591c1.465,0,2.575-0.58,3.331-1.74s1.134-2.836,1.134-5.027
				C466.496,489.897,464.984,487.688,461.96,487.688z"/>
			<path class="st1" d="M484.021,504.458c-3.023,0-5.388-0.882-7.093-2.646s-2.558-4.192-2.558-7.286
				c0-3.176,0.791-5.672,2.373-7.488s3.756-2.725,6.521-2.725c2.566,0,4.594,0.779,6.082,2.338s2.232,3.703,2.232,6.434v2.232
				h-12.955c0.059,1.887,0.568,3.337,1.529,4.351s2.314,1.521,4.061,1.521c1.148,0,2.218-0.108,3.208-0.325s2.054-0.577,3.19-1.081
				v3.357c-1.008,0.48-2.027,0.82-3.059,1.02S485.345,504.458,484.021,504.458z M483.265,487.442c-1.313,0-2.364,0.416-3.155,1.248
				s-1.263,2.045-1.415,3.639h8.824c-0.023-1.605-0.41-2.821-1.16-3.647S484.578,487.442,483.265,487.442z"/>
			<path class="st1" d="M506.134,484.313c0.832,0,1.518,0.059,2.057,0.176l-0.404,3.85c-0.586-0.141-1.195-0.211-1.828-0.211
				c-1.652,0-2.991,0.539-4.017,1.617s-1.538,2.479-1.538,4.201v10.16h-4.131v-19.441h3.234l0.545,3.428h0.211
				c0.645-1.16,1.485-2.08,2.522-2.76S504.939,484.313,506.134,484.313z"/>
			<path class="st1" d="M520.285,504.458c-3.023,0-5.388-0.882-7.093-2.646s-2.558-4.192-2.558-7.286
				c0-3.176,0.791-5.672,2.373-7.488s3.756-2.725,6.521-2.725c2.566,0,4.594,0.779,6.082,2.338s2.232,3.703,2.232,6.434v2.232
				h-12.955c0.059,1.887,0.568,3.337,1.529,4.351s2.314,1.521,4.061,1.521c1.148,0,2.218-0.108,3.208-0.325s2.054-0.577,3.19-1.081
				v3.357c-1.008,0.48-2.027,0.82-3.059,1.02S521.609,504.458,520.285,504.458z M519.529,487.442c-1.313,0-2.364,0.416-3.155,1.248
				s-1.263,2.045-1.415,3.639h8.824c-0.023-1.605-0.41-2.821-1.16-3.647S520.841,487.442,519.529,487.442z"/>
			<path class="st1" d="M532.291,479.515c0-0.738,0.202-1.307,0.606-1.705s0.981-0.598,1.731-0.598c0.727,0,1.292,0.199,1.696,0.598
				s0.606,0.967,0.606,1.705c0,0.703-0.202,1.257-0.606,1.661s-0.97,0.606-1.696,0.606c-0.75,0-1.327-0.202-1.731-0.606
				S532.291,480.218,532.291,479.515z M536.667,504.106h-4.131v-19.441h4.131V504.106z"/>
			<path class="st1" d="M549.816,501.118c1.008,0,2.016-0.158,3.023-0.475v3.111c-0.457,0.199-1.046,0.366-1.767,0.501
				s-1.468,0.202-2.241,0.202c-3.914,0-5.871-2.063-5.871-6.188v-10.477h-2.654v-1.828l2.848-1.512l1.406-4.113h2.549v4.324h5.537
				v3.129h-5.537V498.2c0,0.996,0.249,1.731,0.747,2.206S549.007,501.118,549.816,501.118z"/>
			<path class="st1" d="M570.435,504.106l-0.58-2.549h-0.211c-0.574,0.902-1.392,1.611-2.452,2.127s-2.271,0.773-3.63,0.773
				c-2.355,0-4.113-0.586-5.273-1.758s-1.74-2.947-1.74-5.326v-12.709h4.166v11.988c0,1.488,0.305,2.604,0.914,3.349
				s1.564,1.116,2.865,1.116c1.734,0,3.009-0.519,3.823-1.556s1.222-2.774,1.222-5.212v-9.686h4.148v19.441H570.435z"/>
			<path class="st1" d="M596.679,504.106h-4.148v-11.953c0-1.5-0.302-2.619-0.905-3.357s-1.562-1.107-2.874-1.107
				c-1.746,0-3.023,0.516-3.832,1.547s-1.213,2.76-1.213,5.186v9.686h-4.131v-19.441h3.234l0.58,2.549h0.211
				c0.586-0.926,1.418-1.641,2.496-2.145s2.273-0.756,3.586-0.756c4.664,0,6.996,2.373,6.996,7.119V504.106z"/>
			<path class="st1" d="M618.845,484.665v2.268l-3.322,0.615c0.305,0.41,0.557,0.914,0.756,1.512s0.299,1.23,0.299,1.898
				c0,2.004-0.691,3.58-2.074,4.729s-3.287,1.723-5.713,1.723c-0.621,0-1.184-0.047-1.688-0.141
				c-0.891,0.551-1.336,1.195-1.336,1.934c0,0.445,0.208,0.779,0.624,1.002s1.181,0.334,2.294,0.334h3.393
				c2.145,0,3.773,0.457,4.887,1.371s1.67,2.232,1.67,3.955c0,2.203-0.908,3.902-2.725,5.098s-4.441,1.793-7.875,1.793
				c-2.648,0-4.67-0.469-6.064-1.406s-2.092-2.273-2.092-4.008c0-1.195,0.378-2.2,1.134-3.015s1.813-1.38,3.173-1.696
				c-0.551-0.234-1.005-0.612-1.362-1.134s-0.536-1.069-0.536-1.644c0-0.727,0.205-1.342,0.615-1.846s1.02-1.002,1.828-1.494
				c-1.008-0.434-1.825-1.14-2.452-2.118s-0.94-2.124-0.94-3.437c0-2.109,0.665-3.744,1.995-4.904s3.226-1.74,5.687-1.74
				c0.551,0,1.128,0.038,1.731,0.114s1.058,0.155,1.362,0.237H618.845z M603.57,507.13c0,0.891,0.401,1.576,1.204,2.057
				s1.931,0.721,3.384,0.721c2.25,0,3.926-0.322,5.027-0.967s1.652-1.5,1.652-2.566c0-0.844-0.302-1.444-0.905-1.802
				s-1.726-0.536-3.366-0.536h-3.129c-1.184,0-2.124,0.278-2.821,0.835S603.57,506.181,603.57,507.13z M605.345,490.958
				c0,1.219,0.313,2.156,0.94,2.813s1.526,0.984,2.698,0.984c2.391,0,3.586-1.277,3.586-3.832c0-1.266-0.296-2.241-0.888-2.927
				s-1.491-1.028-2.698-1.028c-1.195,0-2.101,0.34-2.716,1.02S605.345,489.657,605.345,490.958z"/>
		</g>
	</g>
	<g>
		<path id="card1_2_" class="st0" d="M1608.981,582.303c-12,12-26.519,11.197-26.519,11.197H1277.5V430.439
			c0,0-0.186-15.469,11.147-26.803c11.334-11.334,26.148-10.137,26.148-10.137H1619.5v163.606
			C1619.5,557.106,1620.981,570.303,1608.981,582.303z"/>
		<g>
			<path class="st1" d="M1340.145,504.106h-4.201v-22.096h-7.559v-3.604h19.318v3.604h-7.559V504.106z"/>
			<path class="st1" d="M1359.691,504.458c-3.023,0-5.387-0.882-7.092-2.646s-2.559-4.192-2.559-7.286
				c0-3.176,0.791-5.672,2.373-7.488s3.756-2.725,6.521-2.725c2.566,0,4.594,0.779,6.082,2.338s2.232,3.703,2.232,6.434v2.232
				h-12.955c0.059,1.887,0.568,3.337,1.529,4.351s2.314,1.521,4.061,1.521c1.148,0,2.219-0.108,3.209-0.325s2.053-0.577,3.189-1.081
				v3.357c-1.008,0.48-2.027,0.82-3.059,1.02S1361.016,504.458,1359.691,504.458z M1358.936,487.442
				c-1.313,0-2.363,0.416-3.154,1.248s-1.264,2.045-1.416,3.639h8.824c-0.023-1.605-0.41-2.821-1.16-3.647
				S1360.248,487.442,1358.936,487.442z"/>
			<path class="st1" d="M1385.004,498.569c0,1.898-0.691,3.354-2.074,4.368s-3.363,1.521-5.941,1.521c-2.59,0-4.67-0.393-6.24-1.178
				v-3.568c2.285,1.055,4.412,1.582,6.381,1.582c2.543,0,3.814-0.768,3.814-2.303c0-0.492-0.141-0.902-0.422-1.23
				s-0.744-0.668-1.389-1.02s-1.541-0.75-2.689-1.195c-2.238-0.867-3.752-1.734-4.543-2.602s-1.188-1.992-1.188-3.375
				c0-1.664,0.672-2.956,2.014-3.876s3.166-1.38,5.475-1.38c2.285,0,4.447,0.463,6.486,1.389l-1.336,3.111
				c-2.098-0.867-3.861-1.301-5.291-1.301c-2.18,0-3.27,0.621-3.27,1.863c0,0.609,0.285,1.125,0.854,1.547s1.807,1.002,3.717,1.74
				c1.605,0.621,2.771,1.189,3.498,1.705s1.266,1.11,1.617,1.784S1385.004,497.632,1385.004,498.569z"/>
			<path class="st1" d="M1396.711,501.118c1.008,0,2.016-0.158,3.023-0.475v3.111c-0.457,0.199-1.045,0.366-1.766,0.501
				s-1.469,0.202-2.242,0.202c-3.914,0-5.871-2.063-5.871-6.188v-10.477h-2.654v-1.828l2.848-1.512l1.406-4.113h2.549v4.324h5.537
				v3.129h-5.537V498.2c0,0.996,0.25,1.731,0.748,2.206S1395.902,501.118,1396.711,501.118z"/>
			<path class="st1" d="M1415.783,504.106l-0.826-2.707h-0.141c-0.938,1.184-1.881,1.989-2.83,2.417s-2.168,0.642-3.656,0.642
				c-1.91,0-3.4-0.516-4.473-1.547s-1.609-2.49-1.609-4.377c0-2.004,0.744-3.516,2.232-4.535s3.756-1.576,6.803-1.67l3.357-0.105
				v-1.037c0-1.242-0.289-2.171-0.869-2.786s-1.48-0.923-2.699-0.923c-0.996,0-1.951,0.146-2.865,0.439s-1.793,0.639-2.637,1.037
				l-1.336-2.953c1.055-0.551,2.209-0.97,3.463-1.257s2.438-0.431,3.551-0.431c2.473,0,4.34,0.539,5.6,1.617s1.889,2.771,1.889,5.08
				v13.096H1415.783z M1409.631,501.294c1.5,0,2.705-0.419,3.613-1.257s1.361-2.013,1.361-3.524v-1.688l-2.496,0.105
				c-1.945,0.07-3.359,0.396-4.244,0.976s-1.328,1.468-1.328,2.663c0,0.867,0.258,1.538,0.773,2.013
				S1408.6,501.294,1409.631,501.294z"/>
			<path class="st1" d="M1434.434,484.313c2.426,0,4.316,0.879,5.67,2.637s2.029,4.225,2.029,7.4c0,3.188-0.686,5.669-2.057,7.444
				s-3.275,2.663-5.713,2.663c-2.461,0-4.371-0.885-5.73-2.654h-0.281l-0.756,2.303h-3.094v-27.352h4.131v6.504
				c0,0.48-0.023,1.195-0.07,2.145s-0.082,1.553-0.105,1.811h0.176C1429.945,485.28,1431.879,484.313,1434.434,484.313z
				 M1433.361,487.688c-1.664,0-2.861,0.489-3.594,1.468s-1.111,2.616-1.135,4.913v0.281c0,2.367,0.375,4.081,1.125,5.142
				s1.975,1.591,3.674,1.591c1.465,0,2.576-0.58,3.332-1.74s1.133-2.836,1.133-5.027
				C1437.896,489.897,1436.385,487.688,1433.361,487.688z"/>
			<path class="st1" d="M1459.992,498.569c0,1.898-0.691,3.354-2.074,4.368s-3.363,1.521-5.941,1.521c-2.59,0-4.67-0.393-6.24-1.178
				v-3.568c2.285,1.055,4.412,1.582,6.381,1.582c2.543,0,3.814-0.768,3.814-2.303c0-0.492-0.141-0.902-0.422-1.23
				s-0.744-0.668-1.389-1.02s-1.541-0.75-2.689-1.195c-2.238-0.867-3.752-1.734-4.543-2.602s-1.188-1.992-1.188-3.375
				c0-1.664,0.672-2.956,2.014-3.876s3.166-1.38,5.475-1.38c2.285,0,4.447,0.463,6.486,1.389l-1.336,3.111
				c-2.098-0.867-3.861-1.301-5.291-1.301c-2.18,0-3.27,0.621-3.27,1.863c0,0.609,0.285,1.125,0.854,1.547s1.807,1.002,3.717,1.74
				c1.605,0.621,2.771,1.189,3.498,1.705s1.266,1.11,1.617,1.784S1459.992,497.632,1459.992,498.569z"/>
			<path class="st1" d="M1472.297,504.458c-2.941,0-5.176-0.858-6.705-2.575s-2.295-4.181-2.295-7.392c0-3.27,0.801-5.783,2.4-7.541
				s3.91-2.637,6.934-2.637c2.051,0,3.896,0.381,5.537,1.143l-1.248,3.322c-1.746-0.68-3.188-1.02-4.324-1.02
				c-3.363,0-5.045,2.232-5.045,6.697c0,2.18,0.42,3.817,1.258,4.913s2.064,1.644,3.682,1.644c1.84,0,3.58-0.457,5.221-1.371v3.604
				c-0.738,0.434-1.525,0.744-2.363,0.932S1473.492,504.458,1472.297,504.458z"/>
			<path class="st1" d="M1499.385,504.106h-4.148v-11.953c0-1.5-0.301-2.619-0.904-3.357s-1.563-1.107-2.875-1.107
				c-1.734,0-3.008,0.519-3.822,1.556s-1.223,2.774-1.223,5.212v9.65h-4.131v-27.352h4.131v6.943c0,1.113-0.07,2.303-0.211,3.568
				h0.264c0.563-0.938,1.346-1.664,2.348-2.18s2.17-0.773,3.506-0.773c4.711,0,7.066,2.373,7.066,7.119V504.106z"/>
			<path class="st1" d="M1509.264,504.106h-4.131v-27.352h4.131V504.106z"/>
			<path class="st1" d="M1528.881,504.106l-0.58-2.549h-0.211c-0.574,0.902-1.391,1.611-2.451,2.127s-2.271,0.773-3.631,0.773
				c-2.355,0-4.113-0.586-5.273-1.758s-1.74-2.947-1.74-5.326v-12.709h4.166v11.988c0,1.488,0.305,2.604,0.914,3.349
				s1.564,1.116,2.865,1.116c1.734,0,3.01-0.519,3.824-1.556s1.221-2.774,1.221-5.212v-9.686h4.148v19.441H1528.881z"/>
			<path class="st1" d="M1551.082,498.569c0,1.898-0.691,3.354-2.074,4.368s-3.363,1.521-5.941,1.521c-2.59,0-4.67-0.393-6.24-1.178
				v-3.568c2.285,1.055,4.412,1.582,6.381,1.582c2.543,0,3.814-0.768,3.814-2.303c0-0.492-0.141-0.902-0.422-1.23
				s-0.744-0.668-1.389-1.02s-1.541-0.75-2.689-1.195c-2.238-0.867-3.752-1.734-4.543-2.602s-1.188-1.992-1.188-3.375
				c0-1.664,0.672-2.956,2.014-3.876s3.166-1.38,5.475-1.38c2.285,0,4.447,0.463,6.486,1.389l-1.336,3.111
				c-2.098-0.867-3.861-1.301-5.291-1.301c-2.18,0-3.27,0.621-3.27,1.863c0,0.609,0.285,1.125,0.854,1.547s1.807,1.002,3.717,1.74
				c1.605,0.621,2.771,1.189,3.498,1.705s1.266,1.11,1.617,1.784S1551.082,497.632,1551.082,498.569z"/>
			<path class="st1" d="M1568.607,498.569c0,1.898-0.691,3.354-2.074,4.368s-3.363,1.521-5.941,1.521c-2.59,0-4.67-0.393-6.24-1.178
				v-3.568c2.285,1.055,4.412,1.582,6.381,1.582c2.543,0,3.814-0.768,3.814-2.303c0-0.492-0.141-0.902-0.422-1.23
				s-0.744-0.668-1.389-1.02s-1.541-0.75-2.689-1.195c-2.238-0.867-3.752-1.734-4.543-2.602s-1.188-1.992-1.188-3.375
				c0-1.664,0.672-2.956,2.014-3.876s3.166-1.38,5.475-1.38c2.285,0,4.447,0.463,6.486,1.389l-1.336,3.111
				c-2.098-0.867-3.861-1.301-5.291-1.301c-2.18,0-3.27,0.621-3.27,1.863c0,0.609,0.285,1.125,0.854,1.547s1.807,1.002,3.717,1.74
				c1.605,0.621,2.771,1.189,3.498,1.705s1.266,1.11,1.617,1.784S1568.607,497.632,1568.607,498.569z"/>
		</g>
	</g>
	<g>
		<path id="card1_1_" class="st0" d="M1119.991,582.303c-12,12-26.509,11.197-26.509,11.197H788.5V430.439
			c0,0-0.176-15.469,11.158-26.803c11.333-11.334,26.158-10.137,26.158-10.137H1130.5v163.606
			C1130.5,557.106,1131.991,570.303,1119.991,582.303z"/>
		<g>
			<path class="st1" d="M815.148,504.106h-4.201v-22.096h-7.559v-3.604h19.318v3.604h-7.559V504.106z"/>
			<path class="st1" d="M834.695,504.458c-3.023,0-5.388-0.882-7.093-2.646s-2.558-4.192-2.558-7.286
				c0-3.176,0.791-5.672,2.373-7.488s3.756-2.725,6.521-2.725c2.566,0,4.594,0.779,6.082,2.338s2.232,3.703,2.232,6.434v2.232
				h-12.955c0.059,1.887,0.568,3.337,1.529,4.351s2.314,1.521,4.061,1.521c1.148,0,2.218-0.108,3.208-0.325s2.054-0.577,3.19-1.081
				v3.357c-1.008,0.48-2.027,0.82-3.059,1.02S836.019,504.458,834.695,504.458z M833.939,487.442c-1.313,0-2.364,0.416-3.155,1.248
				s-1.263,2.045-1.415,3.639h8.824c-0.023-1.605-0.41-2.821-1.16-3.647S835.251,487.442,833.939,487.442z"/>
			<path class="st1" d="M860.007,498.569c0,1.898-0.691,3.354-2.074,4.368s-3.363,1.521-5.941,1.521c-2.59,0-4.67-0.393-6.24-1.178
				v-3.568c2.285,1.055,4.412,1.582,6.381,1.582c2.543,0,3.814-0.768,3.814-2.303c0-0.492-0.141-0.902-0.422-1.23
				s-0.744-0.668-1.389-1.02s-1.541-0.75-2.689-1.195c-2.238-0.867-3.753-1.734-4.544-2.602s-1.187-1.992-1.187-3.375
				c0-1.664,0.671-2.956,2.013-3.876s3.167-1.38,5.476-1.38c2.285,0,4.447,0.463,6.486,1.389l-1.336,3.111
				c-2.098-0.867-3.861-1.301-5.291-1.301c-2.18,0-3.27,0.621-3.27,1.863c0,0.609,0.284,1.125,0.853,1.547s1.808,1.002,3.718,1.74
				c1.605,0.621,2.771,1.189,3.498,1.705s1.266,1.11,1.617,1.784S860.007,497.632,860.007,498.569z"/>
			<path class="st1" d="M871.714,501.118c1.008,0,2.016-0.158,3.023-0.475v3.111c-0.457,0.199-1.046,0.366-1.767,0.501
				s-1.468,0.202-2.241,0.202c-3.914,0-5.871-2.063-5.871-6.188v-10.477h-2.654v-1.828l2.848-1.512l1.406-4.113h2.549v4.324h5.537
				v3.129h-5.537V498.2c0,0.996,0.249,1.731,0.747,2.206S870.906,501.118,871.714,501.118z"/>
			<path class="st1" d="M885.179,504.458c-2.426,0-4.318-0.879-5.678-2.637s-2.039-4.225-2.039-7.4c0-3.188,0.688-5.669,2.065-7.444
				s3.284-2.663,5.722-2.663c2.555,0,4.5,0.943,5.836,2.83h0.211c-0.199-1.395-0.299-2.496-0.299-3.305v-7.084h4.148v27.352h-3.234
				l-0.721-2.549h-0.193C889.673,503.491,887.734,504.458,885.179,504.458z M886.287,501.118c1.699,0,2.936-0.478,3.709-1.433
				s1.172-2.505,1.195-4.649v-0.58c0-2.449-0.398-4.189-1.195-5.221s-2.045-1.547-3.744-1.547c-1.453,0-2.572,0.589-3.357,1.767
				s-1.178,2.856-1.178,5.036c0,2.156,0.381,3.8,1.143,4.931S884.763,501.118,886.287,501.118z"/>
			<path class="st1" d="M914.763,504.106l-0.58-2.549h-0.211c-0.574,0.902-1.392,1.611-2.452,2.127s-2.271,0.773-3.63,0.773
				c-2.355,0-4.113-0.586-5.273-1.758s-1.74-2.947-1.74-5.326v-12.709h4.166v11.988c0,1.488,0.305,2.604,0.914,3.349
				s1.564,1.116,2.865,1.116c1.734,0,3.009-0.519,3.823-1.556s1.222-2.774,1.222-5.212v-9.686h4.148v19.441H914.763z"/>
			<path class="st1" d="M933.765,484.313c0.832,0,1.518,0.059,2.057,0.176l-0.404,3.85c-0.586-0.141-1.195-0.211-1.828-0.211
				c-1.652,0-2.991,0.539-4.017,1.617s-1.538,2.479-1.538,4.201v10.16h-4.131v-19.441h3.234l0.545,3.428h0.211
				c0.645-1.16,1.485-2.08,2.522-2.76S932.57,484.313,933.765,484.313z"/>
			<path class="st1" d="M947.265,504.458c-2.941,0-5.177-0.858-6.706-2.575s-2.294-4.181-2.294-7.392c0-3.27,0.8-5.783,2.399-7.541
				s3.911-2.637,6.935-2.637c2.051,0,3.896,0.381,5.537,1.143l-1.248,3.322c-1.746-0.68-3.188-1.02-4.324-1.02
				c-3.363,0-5.045,2.232-5.045,6.697c0,2.18,0.419,3.817,1.257,4.913s2.065,1.644,3.683,1.644c1.84,0,3.58-0.457,5.221-1.371v3.604
				c-0.738,0.434-1.526,0.744-2.364,0.932S948.46,504.458,947.265,504.458z"/>
			<path class="st1" d="M974.354,504.106h-4.148v-11.953c0-1.5-0.303-2.619-0.906-3.357s-1.561-1.107-2.873-1.107
				c-1.734,0-3.01,0.519-3.824,1.556s-1.221,2.774-1.221,5.212v9.65h-4.131v-27.352h4.131v6.943c0,1.113-0.07,2.303-0.211,3.568
				h0.264c0.563-0.938,1.344-1.664,2.346-2.18s2.172-0.773,3.508-0.773c4.711,0,7.066,2.373,7.066,7.119V504.106z"/>
			<path class="st1" d="M989.857,487.794h-4.746v16.313h-4.148v-16.313h-3.199v-1.934l3.199-1.266v-1.266
				c0-2.297,0.539-3.999,1.617-5.106s2.725-1.661,4.939-1.661c1.453,0,2.883,0.24,4.289,0.721l-1.09,3.129
				c-1.02-0.328-1.992-0.492-2.918-0.492c-0.938,0-1.621,0.29-2.049,0.87s-0.641,1.45-0.641,2.61v1.266h4.746V487.794z"/>
			<path class="st1" d="M1006.873,504.106l-0.58-2.549h-0.211c-0.574,0.902-1.393,1.611-2.453,2.127s-2.27,0.773-3.629,0.773
				c-2.355,0-4.113-0.586-5.273-1.758s-1.74-2.947-1.74-5.326v-12.709h4.166v11.988c0,1.488,0.305,2.604,0.914,3.349
				s1.564,1.116,2.865,1.116c1.734,0,3.008-0.519,3.822-1.556s1.223-2.774,1.223-5.212v-9.686h4.148v19.441H1006.873z
				 M996.045,479.515c0-0.727,0.195-1.251,0.588-1.573s0.871-0.483,1.434-0.483c0.621,0,1.115,0.182,1.484,0.545
				s0.555,0.867,0.555,1.512c0,0.621-0.188,1.119-0.563,1.494s-0.867,0.563-1.477,0.563c-0.563,0-1.041-0.17-1.434-0.51
				S996.045,480.206,996.045,479.515z M1002.953,479.515c0-0.727,0.195-1.251,0.588-1.573s0.871-0.483,1.434-0.483
				c0.621,0,1.119,0.182,1.494,0.545s0.563,0.867,0.563,1.512c0,0.633-0.193,1.134-0.58,1.503s-0.879,0.554-1.477,0.554
				c-0.563,0-1.041-0.17-1.434-0.51S1002.953,480.206,1002.953,479.515z"/>
			<path class="st1" d="M1033.117,504.106h-4.148v-11.953c0-1.5-0.303-2.619-0.906-3.357s-1.561-1.107-2.873-1.107
				c-1.734,0-3.01,0.519-3.824,1.556s-1.221,2.774-1.221,5.212v9.65h-4.131v-27.352h4.131v6.943c0,1.113-0.07,2.303-0.211,3.568
				h0.264c0.563-0.938,1.344-1.664,2.346-2.18s2.172-0.773,3.508-0.773c4.711,0,7.066,2.373,7.066,7.119V504.106z"/>
			<path class="st1" d="M1048.727,484.313c0.832,0,1.518,0.059,2.057,0.176l-0.404,3.85c-0.586-0.141-1.195-0.211-1.828-0.211
				c-1.652,0-2.992,0.539-4.018,1.617s-1.537,2.479-1.537,4.201v10.16h-4.131v-19.441h3.234l0.545,3.428h0.211
				c0.645-1.16,1.484-2.08,2.521-2.76S1047.531,484.313,1048.727,484.313z"/>
			<path class="st1" d="M1068.098,504.106l-0.58-2.549h-0.211c-0.574,0.902-1.393,1.611-2.453,2.127s-2.27,0.773-3.629,0.773
				c-2.355,0-4.113-0.586-5.273-1.758s-1.74-2.947-1.74-5.326v-12.709h4.166v11.988c0,1.488,0.305,2.604,0.914,3.349
				s1.564,1.116,2.865,1.116c1.734,0,3.008-0.519,3.822-1.556s1.223-2.774,1.223-5.212v-9.686h4.148v19.441H1068.098z"/>
			<path class="st1" d="M1094.342,504.106h-4.148v-11.953c0-1.5-0.303-2.619-0.906-3.357s-1.561-1.107-2.873-1.107
				c-1.746,0-3.023,0.516-3.832,1.547s-1.213,2.76-1.213,5.186v9.686h-4.131v-19.441h3.234l0.58,2.549h0.211
				c0.586-0.926,1.418-1.641,2.496-2.145s2.273-0.756,3.586-0.756c4.664,0,6.996,2.373,6.996,7.119V504.106z"/>
			<path class="st1" d="M1116.508,484.665v2.268l-3.322,0.615c0.305,0.41,0.557,0.914,0.756,1.512s0.299,1.23,0.299,1.898
				c0,2.004-0.691,3.58-2.074,4.729s-3.287,1.723-5.713,1.723c-0.621,0-1.184-0.047-1.688-0.141
				c-0.891,0.551-1.336,1.195-1.336,1.934c0,0.445,0.207,0.779,0.623,1.002s1.182,0.334,2.295,0.334h3.393
				c2.145,0,3.773,0.457,4.887,1.371s1.67,2.232,1.67,3.955c0,2.203-0.908,3.902-2.725,5.098s-4.441,1.793-7.875,1.793
				c-2.648,0-4.67-0.469-6.064-1.406s-2.092-2.273-2.092-4.008c0-1.195,0.377-2.2,1.133-3.015s1.814-1.38,3.174-1.696
				c-0.551-0.234-1.006-0.612-1.363-1.134s-0.535-1.069-0.535-1.644c0-0.727,0.205-1.342,0.615-1.846s1.02-1.002,1.828-1.494
				c-1.008-0.434-1.826-1.14-2.453-2.118s-0.939-2.124-0.939-3.437c0-2.109,0.664-3.744,1.994-4.904s3.227-1.74,5.688-1.74
				c0.551,0,1.127,0.038,1.73,0.114s1.059,0.155,1.363,0.237H1116.508z M1101.232,507.13c0,0.891,0.4,1.576,1.203,2.057
				s1.932,0.721,3.385,0.721c2.25,0,3.926-0.322,5.027-0.967s1.652-1.5,1.652-2.566c0-0.844-0.303-1.444-0.906-1.802
				s-1.725-0.536-3.365-0.536h-3.129c-1.184,0-2.125,0.278-2.822,0.835S1101.232,506.181,1101.232,507.13z M1103.008,490.958
				c0,1.219,0.313,2.156,0.939,2.813s1.527,0.984,2.699,0.984c2.391,0,3.586-1.277,3.586-3.832c0-1.266-0.297-2.241-0.889-2.927
				s-1.49-1.028-2.697-1.028c-1.195,0-2.102,0.34-2.717,1.02S1103.008,489.657,1103.008,490.958z"/>
		</g>
	</g>
</g>
</svg>
