<?xml version="1.0" encoding="utf-8"?>
<!-- Generator: Adobe Illustrator 15.1.0, SVG Export Plug-In . SVG Version: 6.00 Build 0)  -->
<!DOCTYPE svg PUBLIC "-//W3C//DTD SVG 1.1//EN" "http://www.w3.org/Graphics/SVG/1.1/DTD/svg11.dtd">
<svg version="1.1" id="Ebene_1" xmlns="http://www.w3.org/2000/svg" xmlns:xlink="http://www.w3.org/1999/xlink" x="0px" y="0px"
	 width="102.811px" height="102.811px" viewBox="0 0 102.811 102.811" style="enable-background:new 0 0 102.811 102.811;"
	 xml:space="preserve">
<style type="text/css">
<![CDATA[
	.st0{fill:#FFFFFF;}
	.st1{fill:#363636;}
	.st2{fill:#D4D4D4;}
]]>
</style>
<circle id="circle_4_" class="st0" cx="51.405" cy="51.406" r="51.405"/>
<path id="schatten" class="st2" d="M44.95,102.393c2.116,0.266,4.268,0.418,6.456,0.418c27.722,0,50.306-21.945,51.355-49.41
	L76.036,30.581l-2.229,24.658l-7.682-8.958l-13.22,4.124L31.659,31.037l-2.656,15.244l-7.682-7.936l-7.598,19.644L44.95,102.393z"/>
<g id="hantel">
	<rect x="36.686" y="46.281" class="st1" width="29.439" height="10.248"/>
	<path class="st1" d="M16.841,43.401v1.04c-0.385-0.236-0.807-0.397-1.284-0.397c-1.415,0-2.559,1.146-2.559,2.559v9.607
		c0,1.41,1.144,2.557,2.559,2.557c0.477,0,0.899-0.161,1.284-0.397v1.04c0,2.611,1.958,4.738,4.48,5.056V38.346
		C18.799,38.663,16.841,40.79,16.841,43.401z"/>
	<path class="st1" d="M87.253,44.044c-0.478,0-0.898,0.161-1.283,0.397v-1.04c0-2.611-1.958-4.738-4.48-5.056v26.12
		c2.522-0.318,4.48-2.445,4.48-5.055v-1.04c0.385,0.234,0.807,0.396,1.283,0.396c1.415,0,2.559-1.145,2.559-2.557v-9.607
		C89.812,45.19,88.668,44.044,87.253,44.044z"/>
	<path class="st1" d="M29.001,30.287c-2.825,0-5.119,2.294-5.119,5.123V67.4c0,2.829,2.294,5.123,5.119,5.123
		c2.829,0,5.123-2.294,5.123-5.123V35.41C34.125,32.581,31.831,30.287,29.001,30.287z"/>
	<path class="st1" d="M73.81,30.287c-2.83,0-5.123,2.294-5.123,5.123V67.4c0,2.829,2.293,5.123,5.123,5.123
		c2.824,0,5.117-2.294,5.117-5.123V35.41C78.927,32.581,76.634,30.287,73.81,30.287z"/>
</g>
</svg>
